<svg width="64" height="64" viewBox="0 0 64 64" fill="none" xmlns="http://www.w3.org/2000/svg">
<rect width="64" height="64" rx="8" fill="#0A3ED1"/>
<path d="M38.0319 24.4318C33.9101 18.3679 28.405 15.1449 25.5221 17.1197C25.2046 17.3432 24.9288 17.6207 24.707 17.9394C24.707 17.9627 18.0329 31.4692 18.0329 31.4692L14.307 33.9935C13.735 34.3818 13.2451 34.8789 12.8653 35.4566C12.4855 36.0342 12.2233 36.6811 12.0935 37.3601C11.9638 38.0391 11.9691 38.7371 12.1091 39.4141C12.2492 40.091 12.5212 40.7338 12.9098 41.3056L13.0774 41.5525C13.8628 42.6965 15.0675 43.4847 16.4302 43.7463C17.793 44.0079 19.2039 43.7216 20.357 42.9497L26.3418 51.7662C27.222 52.8514 28.9127 53.9319 30.9992 52.6604C31.3688 52.4207 31.6841 52.1062 31.9248 51.7372C32.1654 51.3682 32.3261 50.9529 32.3964 50.518C32.4807 50.0854 32.4784 49.6404 32.3897 49.2087C32.3009 48.7771 32.1275 48.3672 31.8794 48.003L26.6072 40.2251C26.6072 40.2251 39.0705 39.2331 39.1171 39.2144C39.5062 39.133 39.8751 38.9747 40.2022 38.7487C41.6833 37.7427 42.2142 35.6329 41.7019 32.8058C41.2408 30.2023 39.9321 27.2542 38.0319 24.4318ZM14.4327 40.635L14.2651 40.3881C13.997 39.9935 13.8094 39.5498 13.713 39.0826C13.6166 38.6154 13.6133 38.1337 13.7033 37.6652C13.7933 37.1967 13.9748 36.7505 14.2374 36.3522C14.5 35.954 14.8386 35.6114 15.2338 35.3441L18.4521 33.1551L22.6997 39.4101L19.4814 41.599C19.0867 41.8675 18.6429 42.0554 18.1755 42.1523C17.7081 42.2491 17.2261 42.2528 16.7573 42.1633C16.2884 42.0737 15.8418 41.8927 15.4429 41.6304C15.0441 41.3682 14.7008 41.0299 14.4327 40.635ZM30.5381 48.9205C30.7926 49.2993 30.8866 49.7635 30.7992 50.2114C30.7119 50.6593 30.4505 51.0543 30.0724 51.3098C29.6929 51.5645 29.2279 51.6586 28.7792 51.5713C28.3305 51.484 27.9347 51.2225 27.6784 50.844L21.7123 42.0555L24.1109 40.4254L24.7443 40.3741L30.5381 48.9205ZM24.2413 38.7766L19.6118 31.9582L24.027 22.9554C24.4555 25.4844 25.7084 28.4884 27.711 31.4366C29.7137 34.3847 32.0424 36.6575 34.2314 37.9895L24.2413 38.7766ZM37.9806 37.6915C35.7544 37.5471 32.1309 35.0367 29.0617 30.5144C25.9925 25.992 24.9958 21.7119 25.6804 19.5834C25.8041 19.1839 26.0508 18.8337 26.3853 18.5828C26.7199 18.3318 27.1252 18.193 27.5434 18.1862C29.751 18.1862 33.5095 20.7105 36.6673 25.3633C38.4464 27.9808 39.7412 30.7193 40.0951 33.1132C40.7891 37.6915 37.9806 37.6915 37.9806 37.6915Z" fill="white"/>
<path d="M32.2101 24.6042C31.6396 24.4921 31.0525 24.495 30.4831 24.6125C29.9137 24.7301 29.3735 24.96 28.894 25.2888C28.8056 25.35 28.7302 25.4279 28.6719 25.5183C28.6137 25.6086 28.5738 25.7095 28.5545 25.8153C28.5353 25.921 28.5371 26.0295 28.5598 26.1346C28.5824 26.2396 28.6256 26.3392 28.6868 26.4276C28.7479 26.5159 28.8259 26.5914 28.9162 26.6496C29.0065 26.7079 29.1075 26.7478 29.2132 26.767C29.3189 26.7863 29.4274 26.7845 29.5325 26.7618C29.6376 26.7391 29.7371 26.696 29.8255 26.6348C30.1292 26.4287 30.4705 26.2844 30.8299 26.2102C31.1893 26.136 31.5599 26.1333 31.9203 26.2023C32.2808 26.2712 32.6242 26.4105 32.9308 26.6122C33.2374 26.8139 33.5013 27.074 33.7074 27.3777C33.9136 27.6813 34.0578 28.0226 34.1321 28.3821C34.2063 28.7415 34.209 29.112 34.14 29.4725C34.071 29.833 33.9317 30.1763 33.73 30.4829C33.5284 30.7896 33.2683 31.0535 32.9646 31.2596C32.8214 31.3585 32.7136 31.5006 32.657 31.6651C32.6004 31.8297 32.598 32.008 32.65 32.1741C32.7021 32.3401 32.8059 32.4851 32.9463 32.5879C33.0867 32.6907 33.2563 32.7459 33.4303 32.7453C33.5963 32.7484 33.7592 32.6996 33.8961 32.6056C34.6205 32.1149 35.1829 31.4202 35.5122 30.6095C35.8415 29.7989 35.9227 28.9087 35.7456 28.0519C35.5686 27.195 35.1412 26.41 34.5176 25.7962C33.894 25.1825 33.1023 24.7676 32.2427 24.6042H32.2101Z" fill="white"/>
<path d="M39.0379 18.7638H39.1171C39.3187 18.7637 39.5131 18.6889 39.6627 18.5539C39.8124 18.4188 39.9067 18.2331 39.9275 18.0326L40.5562 11.922C40.5705 11.814 40.563 11.7042 40.5341 11.5991C40.5053 11.494 40.4556 11.3957 40.3881 11.3102C40.3206 11.2246 40.2366 11.1535 40.1411 11.1009C40.0456 11.0484 39.9405 11.0155 39.8321 11.0043C39.7237 10.9931 39.6141 11.0038 39.5099 11.0356C39.4056 11.0675 39.3089 11.12 39.2253 11.1899C39.1417 11.2598 39.0729 11.3458 39.0232 11.4428C38.9734 11.5397 38.9435 11.6457 38.9354 11.7544L38.3113 17.8696C38.2892 18.0845 38.3533 18.2994 38.4895 18.4671C38.6258 18.6347 38.823 18.7415 39.0379 18.7638Z" fill="white"/>
<path d="M49.5729 17.5062C49.4533 17.3258 49.2671 17.2001 49.0551 17.1565C48.843 17.1128 48.6223 17.1549 48.4412 17.2734L42.7638 20.9993C42.6164 21.0966 42.5046 21.2392 42.4452 21.4056C42.3859 21.572 42.3822 21.7532 42.4348 21.9219C42.4873 22.0905 42.5932 22.2376 42.7366 22.3408C42.8799 22.4441 43.0529 22.4979 43.2296 22.4943C43.3943 22.4981 43.5565 22.4527 43.6953 22.3639L49.3727 18.638C49.5488 18.5141 49.6687 18.3255 49.7062 18.1134C49.7438 17.9014 49.6958 17.6831 49.5729 17.5062Z" fill="white"/>
<path d="M51.3102 27.4545L44.706 26.2669C44.4929 26.2286 44.2733 26.2765 44.0956 26.4001C43.9178 26.5237 43.7965 26.7128 43.7582 26.9259C43.7199 27.139 43.7678 27.3586 43.8914 27.5363C44.015 27.7141 44.2041 27.8354 44.4172 27.8737L51.0168 29.0614H51.1611C51.3688 29.0674 51.571 28.994 51.7263 28.856C51.8816 28.718 51.9784 28.5259 51.9968 28.319C52.0152 28.112 51.9539 27.9059 51.8255 27.7426C51.697 27.5793 51.511 27.4713 51.3055 27.4406L51.3102 27.4545Z" fill="white"/>
</svg>
