<svg width="64" height="64" viewBox="0 0 64 64" fill="none" xmlns="http://www.w3.org/2000/svg">
<path d="M27.3827 22.5909C33.6068 22.5909 38.6707 17.527 38.6707 11.3028C38.6707 5.07852 33.6069 0.0147705 27.3827 0.0147705C21.1584 0.0147705 16.0947 5.07852 16.0947 11.3028C16.0947 17.527 21.1586 22.5909 27.3827 22.5909ZM27.3827 4.01477C31.4013 4.01477 34.6707 7.28414 34.6707 11.3028C34.6707 15.3214 31.4013 18.5909 27.3827 18.5909C23.3641 18.5909 20.0947 15.3215 20.0947 11.3028C20.0947 7.28414 23.3641 4.01477 27.3827 4.01477ZM61.2849 49.1541L58.5709 47.4844C58.6314 46.9513 58.6621 46.4141 58.6621 45.8773C58.6621 45.3401 58.6316 44.8029 58.5711 44.27L61.2849 42.6004C62.2072 42.033 62.5105 40.8346 61.969 39.8969L58.4197 33.7496C57.8783 32.812 56.6889 32.4755 55.7364 32.9904L52.9314 34.507C52.0683 33.8686 51.1316 33.327 50.1497 32.8986L50.0607 29.7135C50.0304 28.6313 49.1443 27.7694 48.0614 27.7694H46.0547C43.7478 25.3669 40.8573 23.5989 37.4453 22.5119C36.8409 22.3196 36.1813 22.425 35.6672 22.7961C33.2448 24.5459 30.3801 25.4706 27.3827 25.4706C24.3853 25.4706 21.5207 24.5459 19.0983 22.7961C18.5842 22.4248 17.9246 22.3195 17.3203 22.5119C12.9314 23.9099 9.41406 26.426 6.86581 29.991C4.08881 33.8756 2.38256 39.1386 1.79418 45.6339C1.61193 47.646 2.23581 49.4979 3.59831 50.9895C4.96081 52.4811 6.74894 53.2695 8.76944 53.2695H27.8711L30.6051 58.005C31.1466 58.9426 32.3358 59.2793 33.2883 58.7641L36.0933 57.2475C36.9564 57.8859 37.8932 58.4275 38.8751 58.8559L38.9641 62.041C38.9943 63.1233 39.8804 63.9851 40.9633 63.9851H48.0617C49.1446 63.9851 50.0306 63.1234 50.0609 62.041L50.1499 58.8566C51.1321 58.4281 52.0691 57.8864 52.9323 57.2478L55.7367 58.764C56.6893 59.2789 57.8786 58.9424 58.42 58.0048L61.9692 51.8575C62.5104 50.9199 62.2072 49.7215 61.2849 49.1541V49.1541ZM30.6051 33.7494L27.0558 39.8968C26.5143 40.8345 26.8176 42.0329 27.7398 42.6003L30.4537 44.2699C30.3932 44.8028 30.3627 45.34 30.3627 45.8771C30.3627 46.4143 30.3932 46.9515 30.4537 47.4843L27.7398 49.154C27.6813 49.19 27.6254 49.2285 27.5721 49.2694H8.76944C7.87819 49.2694 7.15269 48.9495 6.55169 48.2916C5.95056 47.6335 5.69756 46.8823 5.77794 45.9946C6.71819 35.6146 10.5999 29.2696 17.6336 26.6346C20.5463 28.4933 23.8949 29.4705 27.3828 29.4705C30.8713 29.4705 34.2204 28.4931 37.1334 26.6339C38.1672 27.0184 39.1234 27.477 40.0106 28.0111C39.4034 28.3409 38.9847 28.9755 38.9641 29.7133L38.8751 32.8985C37.8933 33.3269 36.9566 33.8685 36.0934 34.5069L33.2883 32.9903C32.3359 32.4755 31.1464 32.8118 30.6051 33.7494V33.7494ZM54.4271 43.6969C54.5831 44.4093 54.6621 45.1429 54.6621 45.8771C54.6621 46.611 54.5829 47.3445 54.4269 48.0573C54.2451 48.888 54.6084 49.7426 55.3327 50.1883L57.5326 51.5418L55.9283 54.3204L53.6543 53.091C52.9057 52.6863 51.9829 52.7996 51.3544 53.3735C50.2739 54.3603 48.9701 55.1143 47.5836 55.5539C46.7723 55.8111 46.2127 56.5536 46.1889 57.4044L46.1168 59.9851H42.9083L42.8362 57.4038C42.8124 56.553 42.2528 55.8106 41.4417 55.5533C40.0554 55.1135 38.7516 54.3596 37.6713 53.3733C37.0428 52.7991 36.1201 52.6858 35.3714 53.0908L33.0969 54.3205L31.4927 51.5419L33.6923 50.1885C34.4166 49.743 34.7799 48.8883 34.5981 48.0575C34.4422 47.3453 34.3632 46.6118 34.3632 45.8773C34.3632 45.1426 34.4422 44.409 34.5981 43.6969C34.7799 42.8661 34.4166 42.0115 33.6923 41.5658L31.4923 40.2125L33.0966 37.4338L35.3712 38.6636C36.1197 39.0684 37.0426 38.955 37.6709 38.3813C38.7514 37.3945 40.0552 36.6408 41.4413 36.2011C42.2526 35.9438 42.8121 35.2014 42.8358 34.3506L42.9079 31.7693H46.1164L46.1886 34.3506C46.2123 35.2014 46.7719 35.9438 47.5831 36.2011C48.9692 36.6409 50.2731 37.3948 51.3536 38.3813C51.9819 38.9551 52.9047 39.0684 53.6533 38.6636L55.9278 37.4339L57.5321 40.2125L55.3324 41.5659C54.6086 42.0115 54.2452 42.8663 54.4271 43.6969V43.6969ZM44.5124 38.7224C40.5673 38.7224 37.3577 41.932 37.3577 45.8771C37.3577 49.8223 40.5673 53.0319 44.5124 53.0319C48.4576 53.0319 51.6672 49.8223 51.6672 45.8771C51.6672 41.932 48.4576 38.7224 44.5124 38.7224ZM44.5124 49.032C42.7728 49.032 41.3577 47.6169 41.3577 45.8773C41.3577 44.1376 42.7729 42.7225 44.5124 42.7225C46.2519 42.7225 47.6672 44.1376 47.6672 45.8773C47.6672 47.6169 46.2519 49.032 44.5124 49.032Z" fill="#EB5A4D"/>
</svg>
