<svg width="64" height="64" viewBox="0 0 64 64" fill="none" xmlns="http://www.w3.org/2000/svg">
<rect width="64" height="64" rx="8" fill="#0A3ED1"/>
<path d="M24.1569 30.0392H17.8824C14.6336 30.0392 12 27.4056 12 24.1569V17.8824C12 14.6336 14.6336 12 17.8824 12H24.1569C27.4056 12 30.0392 14.6336 30.0392 17.8824V24.1569C30.0392 27.4056 27.4056 30.0392 24.1569 30.0392ZM17.8824 14.3529C15.9331 14.3529 14.3529 15.9331 14.3529 17.8824V24.1569C14.3529 26.1061 15.9331 27.6863 17.8824 27.6863H24.1569C26.1061 27.6863 27.6863 26.1061 27.6863 24.1569V17.8824C27.6863 15.9331 26.1061 14.3529 24.1569 14.3529H17.8824Z" fill="white"/>
<path d="M24.1569 51.9999H17.8824C14.6336 51.9999 12 49.3663 12 46.1176V39.843C12 36.5943 14.6336 33.9607 17.8824 33.9607H24.1569C27.4056 33.9607 30.0392 36.5943 30.0392 39.843V46.1176C30.0392 49.3663 27.4056 51.9999 24.1569 51.9999ZM17.8824 36.3136C15.9331 36.3136 14.3529 37.8938 14.3529 39.843V46.1176C14.3529 48.0668 15.9331 49.647 17.8824 49.647H24.1569C26.1061 49.647 27.6863 48.0668 27.6863 46.1176V39.843C27.6863 37.8938 26.1061 36.3136 24.1569 36.3136H17.8824Z" fill="white"/>
<path d="M46.1176 51.9999H39.843C36.5943 51.9999 33.9607 49.3663 33.9607 46.1176V39.843C33.9607 36.5943 36.5943 33.9607 39.843 33.9607H46.1176C49.3663 33.9607 51.9999 36.5943 51.9999 39.843V46.1176C51.9999 49.3663 49.3663 51.9999 46.1176 51.9999ZM39.843 36.3136C37.8938 36.3136 36.3136 37.8938 36.3136 39.843V46.1176C36.3136 48.0668 37.8938 49.647 39.843 49.647H46.1176C48.0668 49.647 49.647 48.0668 49.647 46.1176V39.843C49.647 37.8938 48.0668 36.3136 46.1176 36.3136H39.843Z" fill="white"/>
<path d="M46.1176 30.0392H39.843C36.5943 30.0392 33.9607 27.4056 33.9607 24.1569V17.8824C33.9607 14.6336 36.5943 12 39.843 12H46.1176C49.3663 12 51.9999 14.6336 51.9999 17.8824V24.1569C51.9999 27.4056 49.3663 30.0392 46.1176 30.0392ZM39.843 14.3529C37.8938 14.3529 36.3136 15.9331 36.3136 17.8824V24.1569C36.3136 26.1061 37.8938 27.6863 39.843 27.6863H46.1176C48.0668 27.6863 49.647 26.1061 49.647 24.1569V17.8824C49.647 15.9331 48.0668 14.3529 46.1176 14.3529H39.843Z" fill="white"/>
</svg>
