<svg width="602" height="560" viewBox="0 0 602 560" fill="none" xmlns="http://www.w3.org/2000/svg">
<g clip-path="url(#clip0_254_2528)">
<path d="M540.711 560.07H12.3943C9.10712 560.07 5.95459 558.763 3.63021 556.438C1.30583 554.112 7.84203e-06 550.959 7.84203e-06 547.67C-0.00182464 546.041 0.317512 544.428 0.939734 542.923C1.56196 541.418 2.47484 540.05 3.62612 538.898C4.7774 537.746 6.14446 536.833 7.64904 536.211C9.15361 535.588 10.7661 535.269 12.3943 535.271H540.711C543.998 535.271 547.151 536.577 549.475 538.902C551.799 541.228 553.105 544.381 553.105 547.67C553.102 550.957 551.795 554.109 549.471 556.434C547.147 558.758 543.997 560.066 540.711 560.07Z" fill="#E6EDFF"/>
<path d="M545.293 316.843L544.624 316.439C528.595 307.105 509.697 303.51 491.482 299.024C474.562 294.845 455.566 289.272 442.573 276.9C426.781 261.909 428.981 241.248 435.053 222.467C441.431 202.767 447.448 182.928 444.634 162.002C441.328 137.702 430.475 115.055 413.607 97.2598C387.147 69.5071 346.177 54.7948 306.919 58.9605C254.236 64.5334 210.967 100.882 178.116 140.24C156.558 166.07 143.843 195.411 119.25 219.932C94.9486 244.174 67.6533 266.019 47.1958 293.493C19.9563 330.065 6.71248 376.696 15.5417 420.637C24.3709 464.579 56.6656 504.676 100.881 520.53C129.04 530.645 159.928 530.84 190.009 530.924C252.565 531.091 315.205 531.244 377.552 526.507C418.579 523.372 460.162 517.939 497.54 501.638C534.918 485.338 568.02 456.707 580.275 419.537C592.502 382.603 579.844 337.449 545.293 316.843Z" fill="#BFD2FF"/>
<path d="M42.6836 229.726C41.7202 226.238 39.8679 223.06 37.3081 220.503L33.1302 217.243C29.9339 215.367 26.2939 214.381 22.5881 214.387H21.5576C18.7621 214.255 15.9825 214.876 13.5083 216.184C10.9301 217.017 8.61226 218.505 6.78192 220.503C4.78457 222.334 3.29695 224.653 2.46481 227.232C1.15848 229.708 0.538201 232.488 0.668335 235.285C0.905079 237.138 1.15575 238.991 1.40642 240.858C2.36727 244.343 4.22008 247.517 6.78192 250.067L10.9598 253.341C14.1621 255.195 17.8022 256.157 21.5019 256.127H22.5324C25.3412 256.283 28.1401 255.681 30.6374 254.386C33.214 253.551 35.5279 252.058 37.3498 250.053C39.3537 248.23 40.8467 245.915 41.6809 243.338C42.9853 240.861 43.6054 238.081 43.4773 235.285L42.6836 229.726Z" fill="#E6EDFF"/>
<path d="M556.865 253.745C581.793 253.745 602 233.529 602 208.591C602 183.653 581.793 163.437 556.865 163.437C531.938 163.437 511.731 183.653 511.731 208.591C511.731 233.529 531.938 253.745 556.865 253.745Z" fill="#BFD2FF"/>
<path d="M387.983 0.320438C386.075 0.696392 384.209 1.26109 382.412 2.00622C382.527 2.13949 382.634 2.27903 382.732 2.42418C383.081 2.98129 383.316 3.60159 383.425 4.24968C383.534 4.89776 383.514 5.56092 383.366 6.20131C383.219 6.8417 382.947 7.44677 382.566 7.98197C382.185 8.51717 381.702 8.97203 381.145 9.32056C380.588 9.6691 379.968 9.90449 379.32 10.0133C378.672 10.1221 378.01 10.1022 377.369 9.95472C376.077 9.65687 374.955 8.85744 374.251 7.73231C374.152 7.56632 374.064 7.39414 373.987 7.21682C372.511 8.51424 371.159 9.94612 369.948 11.494C370.13 11.5538 370.307 11.6284 370.477 11.7169C371.087 12.0092 371.632 12.4219 372.078 12.9302C372.524 13.4385 372.863 14.0318 373.074 14.6746C373.286 15.3173 373.364 15.9962 373.306 16.6702C373.248 17.3443 373.055 17.9996 372.737 18.5968C372.419 19.194 371.984 19.7208 371.458 20.1453C370.931 20.5699 370.324 20.8834 369.673 21.0672C369.022 21.2509 368.341 21.3011 367.67 21.2146C367 21.128 366.353 20.9067 365.77 20.5638L365.241 20.2015C364.592 22.0748 364.126 24.0064 363.849 25.9694C364.058 25.9694 364.253 25.8997 364.475 25.8858C365.771 25.8921 367.013 26.3997 367.943 27.3022C368.872 28.2047 369.416 29.432 369.461 30.727C369.506 32.022 369.049 33.2842 368.184 34.2491C367.319 35.214 366.115 35.8067 364.823 35.903C364.587 35.9238 364.35 35.9238 364.113 35.903C364.489 37.8677 365.058 39.7904 365.812 41.643C365.994 41.4834 366.184 41.3346 366.383 41.1972C367.507 40.5661 368.831 40.3923 370.08 40.712C371.329 41.0317 372.406 41.8203 373.089 42.914C373.772 44.0077 374.007 45.3225 373.747 46.5854C373.486 47.8482 372.749 48.9621 371.689 49.6957C371.467 49.8312 371.234 49.9477 370.993 50.044C372.318 51.5745 373.787 52.9742 375.379 54.2237C375.459 53.9798 375.557 53.7423 375.672 53.5131C376.294 52.34 377.357 51.4622 378.626 51.0729C379.896 50.6836 381.267 50.8146 382.44 51.4372C383.613 52.0599 384.49 53.123 384.879 54.3928C385.268 55.6626 385.137 57.0351 384.515 58.2082C384.381 58.4484 384.228 58.6768 384.056 58.8909C385.967 59.5544 387.94 60.0212 389.946 60.2841C389.892 60.0225 389.86 59.7569 389.849 59.49C389.826 58.8332 389.933 58.1783 390.163 57.5627C390.393 56.9471 390.742 56.3829 391.19 55.9023C392.095 54.9317 393.348 54.3604 394.674 54.3142C396 54.268 397.29 54.7507 398.26 55.656C398.741 56.1043 399.128 56.6428 399.401 57.2409C399.673 57.839 399.825 58.4849 399.848 59.1417C399.876 59.415 399.876 59.6904 399.848 59.9637C401.838 59.5755 403.783 58.9874 405.655 58.2082C405.473 58.0152 405.31 57.8053 405.168 57.5813C404.453 56.4617 404.212 55.1039 404.498 53.8067C404.784 52.5095 405.573 51.379 406.692 50.664C407.812 49.949 409.169 49.7081 410.465 49.9942C411.762 50.2803 412.892 51.07 413.607 52.1896C413.749 52.4146 413.871 52.6525 413.969 52.9001C415.476 51.5622 416.851 50.0834 418.077 48.4836C417.837 48.4113 417.604 48.3181 417.381 48.205C416.771 47.9127 416.226 47.5 415.78 46.9917C415.334 46.4834 414.995 45.89 414.784 45.2473C414.573 44.6045 414.494 43.9257 414.552 43.2517C414.61 42.5776 414.803 41.9223 415.121 41.3251C415.439 40.7278 415.874 40.2011 416.401 39.7766C416.927 39.352 417.534 39.0384 418.185 38.8547C418.836 38.6709 419.517 38.6208 420.188 38.7073C420.859 38.7938 421.505 39.0152 422.088 39.3581C422.302 39.4765 422.507 39.6116 422.701 39.7622C423.351 37.8704 423.818 35.9201 424.093 33.9386C423.868 33.981 423.64 34.0089 423.411 34.0221C422.707 34.0808 421.998 33.99 421.332 33.7556C420.665 33.5212 420.056 33.1485 419.544 32.662C419.031 32.1755 418.627 31.5862 418.359 30.9326C418.09 30.2791 417.962 29.576 417.984 28.8696C418.005 28.1632 418.176 27.4694 418.485 26.8336C418.793 26.1978 419.232 25.6345 419.774 25.1804C420.315 24.7264 420.946 24.3919 421.626 24.1989C422.305 24.006 423.018 23.9589 423.717 24.0607C423.323 22.1122 422.735 20.208 421.963 18.3764C421.795 18.5018 421.656 18.6411 421.475 18.7526C420.351 19.3837 419.027 19.5574 417.778 19.2377C416.53 18.918 415.452 18.1294 414.769 17.0357C414.087 15.942 413.851 14.6273 414.112 13.3644C414.372 12.1015 415.109 10.9876 416.169 10.254L416.698 9.9893C415.395 8.51803 413.954 7.17447 412.395 5.97686C412.34 6.14971 412.27 6.31751 412.186 6.47842C411.878 7.05931 411.459 7.5738 410.952 7.9925C410.445 8.4112 409.86 8.72591 409.232 8.91868C408.604 9.11144 407.943 9.17847 407.289 9.11595C406.635 9.05343 405.999 8.86258 405.418 8.5543C404.838 8.24601 404.323 7.82633 403.905 7.31921C403.486 6.8121 403.172 6.22748 402.979 5.59873C402.786 4.96999 402.719 4.30943 402.782 3.65478C402.844 3.00013 403.035 2.3642 403.343 1.78331C403.437 1.6248 403.54 1.47133 403.65 1.32355C401.793 0.700837 399.881 0.257627 397.94 0C397.977 0.165011 398 0.332753 398.009 0.501555C398.033 1.15838 397.928 1.81345 397.698 2.42938C397.469 3.0453 397.121 3.61002 396.673 4.09128C396.226 4.57254 395.688 4.96092 395.091 5.23425C394.493 5.50758 393.848 5.66051 393.191 5.68429C392.535 5.70807 391.88 5.60226 391.264 5.37287C390.648 5.14349 390.084 4.79504 389.603 4.34742C389.122 3.89979 388.734 3.36176 388.46 2.76404C388.187 2.16632 388.034 1.52061 388.011 0.863789C387.987 0.683686 387.978 0.502006 387.983 0.320438ZM393.261 12.6921C396.701 12.5704 400.1 13.4718 403.029 15.2826C405.957 17.0934 408.283 19.7322 409.712 22.8653C411.142 25.9984 411.611 29.4852 411.059 32.8848C410.508 36.2844 408.962 39.4441 406.616 41.9646C404.27 44.485 401.229 46.2529 397.879 47.0448C394.528 47.8367 391.019 47.617 387.793 46.4135C384.568 45.21 381.771 43.0767 379.757 40.2834C377.744 37.49 376.603 34.1621 376.48 30.7202C376.396 28.4336 376.764 26.1529 377.562 24.0086C378.361 21.8644 379.574 19.8987 381.133 18.2242C382.691 16.5496 384.565 15.199 386.646 14.2498C388.727 13.3005 390.975 12.7712 393.261 12.6921Z" fill="#E6EDFF"/>
<path d="M66.3304 179.752C97.4644 179.752 122.703 156.579 122.703 127.994C122.703 99.409 97.4644 76.2363 66.3304 76.2363C35.1964 76.2363 9.95728 99.409 9.95728 127.994C9.95728 156.579 35.1964 179.752 66.3304 179.752Z" fill="#E6EDFF"/>
<path d="M64.9934 128.802L21.0285 114.717C19.3093 119.214 18.4267 123.987 18.4243 128.802C18.4243 152.25 39.4528 171.546 64.9934 171.546C73.3668 171.563 81.6096 169.469 88.9603 165.457L64.9934 128.802Z" fill="#628AEC"/>
<path d="M67.4026 127.994L91.6759 164.482C98.3674 160.78 103.997 155.422 108.025 148.92C111.892 142.634 113.949 135.403 113.972 128.022L67.4026 127.994Z" fill="#BFD2FF"/>
<path d="M67.6672 125.946L114.195 125.389C114.102 119.539 112.718 113.783 110.142 108.531C107.495 103.141 103.747 98.3658 99.1404 94.5153L67.6672 125.946Z" fill="#FEFEFF"/>
<path d="M201.344 77.3788H184.48V117.921H201.344V77.3788Z" fill="#628AEC"/>
<path d="M227.414 57.5396H210.55V117.921H227.414V57.5396Z" fill="#628AEC"/>
<path d="M253.47 30.149H236.605V117.907H253.47V30.149Z" fill="#628AEC"/>
<path d="M279.54 68.5459H262.675V117.921H279.54V68.5459Z" fill="#628AEC"/>
<path d="M175.456 30.9989V117.545H290.667" stroke="#628AEC" stroke-width="0.88" stroke-miterlimit="10"/>
<path d="M434.385 57.1216C430.614 57.8549 426.922 58.9417 423.355 60.3677C423.564 60.6464 423.801 60.8972 423.982 61.1897C425.367 63.4067 425.815 66.0834 425.227 68.6308C424.64 71.1783 423.065 73.3879 420.848 74.7735C418.632 76.1591 415.957 76.6073 413.411 76.0194C410.864 75.4316 408.656 73.8558 407.27 71.6388C407.076 71.314 406.908 70.9738 406.769 70.6217C403.863 73.149 401.205 75.9481 398.831 78.981C399.165 79.1203 399.514 79.2318 399.848 79.399C400.99 80.0055 402.001 80.8311 402.825 81.8287C403.648 82.8263 404.266 83.9763 404.645 85.2131C405.024 86.4499 405.156 87.7492 405.033 89.0369C404.91 90.3246 404.534 91.5755 403.928 92.718C403.322 93.8606 402.497 94.8725 401.5 95.696C400.502 96.5195 399.353 97.1385 398.117 97.5175C396.88 97.8966 395.582 98.0283 394.294 97.9053C393.007 97.7822 391.757 97.4066 390.615 96.8001C390.248 96.5973 389.899 96.3643 389.57 96.1035C388.304 99.791 387.404 103.594 386.883 107.458C387.282 107.374 387.687 107.318 388.094 107.291C389.396 107.228 390.698 107.425 391.923 107.869C393.149 108.314 394.274 108.997 395.233 109.88C396.193 110.763 396.967 111.827 397.512 113.012C398.057 114.197 398.362 115.478 398.408 116.781C398.454 118.085 398.241 119.384 397.781 120.604C397.321 121.825 396.624 122.941 395.729 123.89C394.834 124.838 393.76 125.6 392.569 126.13C391.378 126.66 390.094 126.948 388.79 126.977C388.324 126.98 387.859 126.947 387.398 126.879C388.137 130.744 389.262 134.524 390.754 138.164C391.1 137.855 391.467 137.571 391.854 137.315C394.07 135.929 396.746 135.481 399.292 136.069C401.839 136.657 404.047 138.232 405.432 140.449C406.817 142.666 407.265 145.343 406.678 147.89C406.09 150.438 404.515 152.647 402.299 154.033C401.852 154.291 401.386 154.514 400.906 154.702C403.509 157.687 406.396 160.412 409.527 162.838C409.673 162.359 409.86 161.893 410.084 161.445C410.712 160.226 411.588 159.152 412.656 158.292C413.723 157.431 414.958 156.804 416.282 156.448C417.606 156.093 418.99 156.018 420.344 156.229C421.699 156.439 422.995 156.93 424.148 157.671C425.302 158.411 426.289 159.384 427.045 160.528C427.801 161.672 428.31 162.961 428.54 164.313C428.769 165.665 428.714 167.05 428.378 168.38C428.041 169.709 427.431 170.953 426.586 172.033C430.35 173.318 434.231 174.228 438.173 174.75C438.06 174.241 437.99 173.724 437.964 173.204C437.901 171.901 438.097 170.599 438.542 169.373C438.986 168.147 439.669 167.021 440.551 166.061C441.434 165.101 442.498 164.327 443.682 163.781C444.867 163.236 446.147 162.932 447.45 162.886C448.753 162.84 450.052 163.053 451.271 163.513C452.491 163.973 453.607 164.671 454.555 165.566C455.504 166.461 456.265 167.535 456.794 168.727C457.324 169.918 457.612 171.203 457.641 172.507C457.646 173.052 457.609 173.597 457.53 174.137C461.434 173.368 465.251 172.206 468.922 170.668C468.572 170.287 468.255 169.876 467.975 169.442C467.289 168.344 466.826 167.122 466.612 165.845C466.398 164.569 466.438 163.262 466.729 162.001C467.02 160.74 467.557 159.548 468.308 158.494C469.059 157.44 470.011 156.544 471.108 155.858C472.205 155.172 473.427 154.709 474.703 154.495C475.979 154.281 477.285 154.321 478.546 154.612C481.092 155.2 483.301 156.776 484.686 158.993C484.949 159.439 485.177 159.905 485.368 160.386C488.342 157.774 491.048 154.871 493.445 151.72C492.969 151.566 492.504 151.38 492.053 151.163C490.85 150.59 489.776 149.779 488.896 148.778C488.016 147.778 487.347 146.609 486.932 145.343C486.516 144.077 486.362 142.739 486.478 141.411C486.594 140.084 486.978 138.793 487.608 137.619C488.237 136.444 489.098 135.409 490.138 134.577C491.179 133.744 492.377 133.132 493.661 132.777C494.945 132.421 496.288 132.33 497.608 132.509C498.928 132.688 500.198 133.133 501.342 133.818C501.762 134.055 502.162 134.325 502.539 134.626C503.794 130.9 504.676 127.059 505.171 123.16C504.734 123.244 504.292 123.299 503.848 123.327C502.546 123.39 501.245 123.193 500.019 122.749C498.794 122.304 497.669 121.621 496.709 120.738C495.75 119.855 494.975 118.79 494.43 117.606C493.885 116.421 493.581 115.14 493.535 113.837C493.489 112.533 493.702 111.234 494.162 110.014C494.621 108.793 495.319 107.676 496.214 106.728C497.108 105.779 498.182 105.018 499.373 104.488C500.564 103.958 501.849 103.67 503.152 103.641C503.585 103.64 504.018 103.668 504.447 103.724C503.68 99.9056 502.537 96.1722 501.035 92.5787C500.738 92.8431 500.421 93.0853 500.088 93.3032C497.872 94.6888 495.197 95.137 492.65 94.5491C490.104 93.9612 487.895 92.3855 486.51 90.1685C485.125 87.9514 484.677 85.2748 485.265 82.7273C485.853 80.1799 487.428 77.9703 489.644 76.5847C489.984 76.3834 490.337 76.2065 490.702 76.0553C488.147 73.1981 485.325 70.5904 482.277 68.2672C482.137 68.6016 482.04 68.936 481.873 69.2564C480.634 71.5639 478.529 73.2845 476.022 74.0396C473.515 74.7947 470.81 74.5225 468.504 73.2828C466.197 72.0431 464.477 69.9375 463.723 67.4293C462.968 64.921 463.24 62.2155 464.479 59.908C464.667 59.591 464.872 59.284 465.092 58.9885C461.443 57.7619 457.684 56.8941 453.867 56.3971C453.867 56.7315 453.993 57.0519 454.007 57.3863C454.052 58.6798 453.843 59.9696 453.39 61.1822C452.938 62.3948 452.251 63.5063 451.369 64.4533C450.487 65.4003 449.427 66.1642 448.25 66.7015C447.073 67.2387 445.802 67.5388 444.509 67.5846C443.216 67.6303 441.927 67.4208 440.715 66.9681C439.503 66.5153 438.392 65.8282 437.445 64.9458C435.533 63.1639 434.407 60.6953 434.315 58.0829C434.322 57.7614 434.345 57.4406 434.385 57.1216ZM444.565 75.5676C452.498 75.2882 460.335 77.3693 467.086 81.5475C473.836 85.7258 479.196 91.8134 482.487 99.0401C485.778 106.267 486.852 114.308 485.574 122.145C484.296 129.983 480.722 137.265 475.305 143.07C469.889 148.875 462.872 152.943 455.145 154.757C447.417 156.572 439.324 156.053 431.892 153.265C424.459 150.477 418.02 145.546 413.389 139.096C408.759 132.646 406.145 124.966 405.878 117.03C405.692 111.761 406.545 106.508 408.388 101.569C410.232 96.6304 413.03 92.1036 416.622 88.2469C420.215 84.3902 424.531 81.2793 429.326 79.0918C434.12 76.9044 439.298 75.6832 444.565 75.498V75.5676Z" fill="#BFD2FF"/>
<path d="M376.577 107.765C375.366 106.887 373.792 106.135 373.402 104.714C372.636 102.415 375.101 100.018 374.488 97.7475C373.987 95.7831 371.703 94.9611 369.642 94.6824C367.581 94.4038 365.339 94.1112 364.197 92.4394C363.236 91.0462 363.459 89.1932 363.236 87.5214C362.984 85.8315 362.257 84.248 361.141 82.9554C360.024 81.6629 358.562 80.7146 356.927 80.2209C353.446 79.2318 350.41 82.3944 347.499 83.6622C345.981 84.3365 344.654 85.3765 343.636 86.6893C342.617 88.0021 341.94 89.5469 341.664 91.1855C341.145 94.5066 341.325 97.8997 342.194 101.147C343.058 104.382 343.696 107.673 344.101 110.997C344.239 114.544 343.725 118.085 342.584 121.446C341.738 124.05 341.892 126.876 343.015 129.373C344.283 131.533 346.831 132.536 349.24 133.233C353.883 134.734 358.796 135.209 363.64 134.626C368.247 134.026 372.485 131.786 375.575 128.314C377.708 126.59 379.347 124.331 380.323 121.766C382.064 116.876 380.741 110.816 376.577 107.765Z" fill="#485070"/>
<path d="M352.402 90.8929C352.692 91.9079 352.776 92.9707 352.649 94.0187C352.522 95.0667 352.187 96.0787 351.663 96.9952C351.315 97.5943 350.772 98.2073 350.076 98.1655C349.38 98.1237 348.85 97.232 348.6 96.4797C347.9 94.3963 347.46 92.2344 347.291 90.0431C347.179 88.6499 347.43 86.2814 349.338 86.7551C350.814 87.1173 352.012 89.6112 352.402 90.8929Z" fill="#FF6EA1"/>
<path d="M352.332 123.703C350.939 128.593 343.029 130.962 338.406 125.389C337.835 124.692 337.319 123.996 336.818 123.229C331.874 124.204 324.535 126.35 321.235 130.362C320.254 131.725 319.554 133.269 319.174 134.904C317.461 140.77 316.026 146.719 314.898 152.71C314.718 153.39 314.718 154.105 314.898 154.785C315.277 155.555 315.866 156.203 316.597 156.652C323.421 162.044 325.218 170.724 327.46 178.581C330.872 190.493 332.431 206.989 335.815 218.901C346.956 219.765 393.47 209.148 399.068 204.314C391.046 189.852 384.543 163.786 382.008 145.646C380.922 137.969 377.914 130.641 374.976 123.452C374.279 121.766 373.667 117.879 372.385 116.779C370.686 115.385 354.49 117.782 352.777 117.838C352.833 118.766 352.875 119.728 352.903 120.721C352.869 121.739 352.676 122.745 352.332 123.703Z" fill="#FF6EA1"/>
<path d="M335.815 115.817C335.29 114.13 334.556 112.515 333.629 111.011C336.374 110.914 339.029 110.008 341.26 108.406C342.361 107.599 343.386 106.694 344.324 105.703C344.672 105.354 345.188 104.477 345.717 103.836C344.979 104.7 346.789 109.534 347.109 110.509C347.837 112.618 348.957 114.571 350.41 116.263C351.872 117.893 352.833 118.158 353.098 120.443C353.294 122.949 352.928 125.467 352.025 127.813C351.614 129.273 350.745 130.562 349.546 131.491C348.768 131.911 347.912 132.168 347.031 132.247C346.15 132.326 345.263 132.225 344.422 131.951C341.539 131.184 337.584 128.788 336.553 125.765C336.01 124.191 336.623 123.383 336.762 121.766C336.838 119.741 336.516 117.72 335.815 115.817Z" fill="#FFC1A6"/>
<path d="M336.79 120.972C336.79 120.805 336.79 120.652 336.79 120.485C336.645 118.898 336.322 117.332 335.829 115.817C335.304 114.13 334.57 112.515 333.643 111.011C336.388 110.914 339.043 110.008 341.274 108.406C342.375 107.599 343.4 106.694 344.338 105.703C344.686 105.354 345.202 104.477 345.731 103.836C345.814 104.741 345.94 105.619 346.093 106.497C345.814 109.479 344.824 112.35 343.205 114.869C341.586 117.388 339.386 119.481 336.79 120.972Z" fill="#E3856D"/>
<path d="M318.422 100.311C319.544 104.836 322.117 108.868 325.747 111.791C326.699 112.625 327.82 113.243 329.033 113.602C329.64 113.778 330.278 113.814 330.9 113.708C331.523 113.602 332.113 113.356 332.626 112.989C334.019 111.875 334.27 109.868 334.367 108.085C334.672 104.736 334.565 101.363 334.047 98.04C333.527 94.6954 331.951 91.605 329.549 89.221C327.529 87.3541 322.001 84.6513 319.564 87.2148C316.918 90.043 317.6 96.9951 318.422 100.311Z" fill="#485070"/>
<path d="M321.304 92.4393C321.778 89.2907 325.343 91.6313 328.267 90.2938C330.788 89.1235 332.696 88.1204 335.537 88.3154C338.101 88.4514 340.525 89.5277 342.347 91.3387C342.82 91.8402 343.252 92.3557 343.656 92.8712C344.814 94.7121 345.797 96.6571 346.594 98.6809V98.8202C346.869 102.746 345.957 106.664 343.976 110.063C343.107 111.669 341.826 113.012 340.263 113.955C338.701 114.898 336.916 115.407 335.091 115.427C333.005 115.391 331 114.61 329.437 113.226C327.724 111.664 326.309 109.804 325.259 107.737C323.602 104.588 320.775 95.9223 321.304 92.4393Z" fill="#FFC1A6"/>
<path d="M335.091 98.3744C331.652 97.5524 328.128 97.0648 324.939 95.4905C322.54 94.3763 320.604 92.4596 319.466 90.0709C318.408 87.6328 319.132 85.8913 320.538 83.8154C322.591 80.7803 325.673 78.5924 329.214 77.6574C332.71 76.7379 337.083 78.1033 340.439 79.2596C342.805 80.0148 344.922 81.3965 346.566 83.2581C349.352 86.5461 350.229 92.2443 350.006 96.41C349.856 98.1353 349.506 99.8372 348.962 101.481C348.558 102.874 347.848 104.449 346.177 104.658C345.076 104.797 342.848 101.635 341.72 100.924C339.911 99.8496 337.948 99.0602 335.899 98.5834L335.091 98.3744Z" fill="#485070"/>
<path d="M329.799 102.164C329.831 102.429 329.965 102.671 330.174 102.838C330.382 103.005 330.648 103.083 330.913 103.056C331.045 103.043 331.173 103.005 331.29 102.943C331.408 102.881 331.511 102.796 331.595 102.694C331.679 102.592 331.743 102.474 331.781 102.347C331.819 102.22 331.832 102.087 331.819 101.955C331.777 101.698 331.64 101.467 331.434 101.309C331.227 101.151 330.969 101.077 330.71 101.104C330.452 101.131 330.213 101.256 330.044 101.453C329.874 101.65 329.787 101.904 329.799 102.164Z" fill="#485070"/>
<path d="M331.303 99.2661C330.619 99.1302 329.91 99.2232 329.284 99.5308" stroke="#485070" stroke-width="0.75" stroke-miterlimit="10" stroke-linecap="round"/>
<path d="M323.546 103.836C323.578 104.102 323.712 104.345 323.92 104.515C324.128 104.684 324.394 104.765 324.66 104.741C324.856 104.719 325.041 104.639 325.192 104.511C325.343 104.384 325.452 104.215 325.508 104.025C325.563 103.836 325.561 103.634 325.502 103.446C325.443 103.258 325.33 103.091 325.177 102.966C325.024 102.842 324.838 102.765 324.641 102.746C324.445 102.727 324.247 102.767 324.073 102.86C323.899 102.952 323.756 103.095 323.663 103.268C323.569 103.442 323.528 103.639 323.546 103.836Z" fill="#485070"/>
<path d="M325.051 100.952C324.372 100.801 323.662 100.895 323.045 101.217" stroke="#485070" stroke-width="0.75" stroke-miterlimit="10" stroke-linecap="round"/>
<path d="M327.265 103.961C327.469 104.84 327.324 105.764 326.861 106.539C326.714 106.721 326.631 106.946 326.624 107.179C326.657 107.302 326.727 107.412 326.824 107.494C326.921 107.576 327.041 107.627 327.167 107.639C327.418 107.65 327.669 107.612 327.905 107.528" stroke="#485070" stroke-width="0.75" stroke-miterlimit="10" stroke-linecap="round"/>
<path d="M332.306 109.005C331.876 109.46 331.347 109.81 330.761 110.028C330.174 110.245 329.544 110.324 328.922 110.259" stroke="#485070" stroke-width="0.75" stroke-miterlimit="10" stroke-linecap="round"/>
<path d="M346.831 98.5834C346.904 99.3123 346.76 100.046 346.416 100.693C346.073 101.34 345.545 101.871 344.9 102.218C344.255 102.565 343.522 102.713 342.793 102.643C342.064 102.573 341.372 102.289 340.805 101.827C340.237 101.364 339.82 100.743 339.604 100.043C339.389 99.3426 339.386 98.5944 339.596 97.8925C339.806 97.1907 340.219 96.5668 340.783 96.0996C341.347 95.6324 342.036 95.3429 342.765 95.2676C343.25 95.2156 343.74 95.2603 344.208 95.3992C344.676 95.5381 345.111 95.7684 345.489 96.0768C345.867 96.3851 346.181 96.7654 346.411 97.1957C346.641 97.626 346.784 98.0976 346.831 98.5834Z" fill="#FFC1A6"/>
<path d="M343.698 97.3017C343.423 97.2954 343.152 97.3585 342.908 97.4851C342.665 97.6118 342.457 97.7979 342.305 98.0262C342.159 98.2547 342.074 98.5164 342.057 98.7868C342.04 99.0573 342.092 99.3277 342.207 99.5726C342.354 99.4125 342.544 99.2993 342.755 99.2473C342.966 99.1952 343.187 99.2066 343.391 99.2801C343.595 99.3551 343.771 99.4895 343.898 99.6658C344.024 99.8421 344.095 100.052 344.101 100.269" stroke="#485070" stroke-width="0.75" stroke-linecap="round" stroke-linejoin="round"/>
<path d="M432.797 339.636H139.025C132.303 339.636 126.853 345.088 126.853 351.813V516.713C126.853 523.438 132.303 528.89 139.025 528.89H432.797C439.519 528.89 444.969 523.438 444.969 516.713V351.813C444.969 345.088 439.519 339.636 432.797 339.636Z" fill="#DCE4FF" stroke="#485070" stroke-width="0.75" stroke-miterlimit="10"/>
<path d="M468.518 529.126H103.304C103.302 531.122 103.694 533.098 104.456 534.942C105.218 536.786 106.336 538.462 107.745 539.874C109.155 541.285 110.829 542.405 112.672 543.169C114.514 543.933 116.489 544.326 118.484 544.326H453.338C455.333 544.326 457.308 543.933 459.15 543.169C460.993 542.405 462.667 541.285 464.077 539.874C465.486 538.462 466.604 536.786 467.366 534.942C468.128 533.098 468.52 531.122 468.518 529.126Z" fill="#BAC5EF" stroke="#485070" stroke-width="0.75" stroke-miterlimit="10"/>
<path d="M427.825 347.076H143.996C138.743 347.076 134.485 351.336 134.485 356.592V513.439C134.485 518.694 138.743 522.955 143.996 522.955H427.825C433.079 522.955 437.337 518.694 437.337 513.439V356.592C437.337 351.336 433.079 347.076 427.825 347.076Z" fill="#545D78"/>
<path d="M290.138 343.189C290.138 343.655 290 344.11 289.741 344.497C289.482 344.884 289.115 345.186 288.685 345.364C288.255 345.542 287.782 345.589 287.325 345.498C286.869 345.407 286.449 345.183 286.12 344.854C285.791 344.525 285.567 344.105 285.476 343.648C285.385 343.192 285.432 342.718 285.61 342.288C285.788 341.858 286.09 341.49 286.477 341.231C286.864 340.973 287.319 340.834 287.784 340.834C288.408 340.834 289.007 341.083 289.448 341.524C289.89 341.966 290.138 342.565 290.138 343.189Z" fill="#333333"/>
<path d="M165.721 168.55L165.721 521.924H406.115V168.55H165.721Z" fill="#FEFEFF"/>
<path d="M307.991 493.892L276.002 454.019L248.178 489.685L224.058 463.604L227.219 460.692L247.899 483.053L275.947 447.094L307.1 485.923L325.19 448.989L363.361 442.232L364.099 446.467L328.086 452.834L307.991 493.892Z" fill="#E6EDFF"/>
<path d="M369.238 444.35C369.238 443.245 368.909 442.164 368.294 441.247C367.679 440.329 366.805 439.614 365.783 439.195C364.761 438.775 363.637 438.669 362.555 438.89C361.473 439.11 360.48 439.648 359.704 440.434C358.928 441.221 358.403 442.22 358.196 443.306C357.989 444.391 358.109 445.514 358.541 446.531C358.974 447.548 359.699 448.414 360.624 449.017C361.549 449.621 362.633 449.936 363.737 449.923C365.203 449.904 366.602 449.309 367.631 448.266C368.661 447.223 369.238 445.816 369.238 444.35Z" fill="#FF6EA1"/>
<path d="M313.339 489.908C313.339 488.806 313.012 487.728 312.4 486.812C311.788 485.895 310.918 485.181 309.9 484.759C308.882 484.337 307.762 484.227 306.681 484.442C305.601 484.657 304.608 485.188 303.829 485.967C303.05 486.746 302.52 487.739 302.305 488.82C302.09 489.902 302.2 491.022 302.622 492.04C303.043 493.059 303.757 493.929 304.673 494.541C305.59 495.154 306.666 495.481 307.768 495.481C309.246 495.481 310.662 494.893 311.707 493.848C312.752 492.803 313.339 491.386 313.339 489.908Z" fill="#628AEC"/>
<path d="M331.443 450.912C331.443 449.807 331.114 448.726 330.499 447.809C329.884 446.891 329.009 446.176 327.988 445.757C326.966 445.337 325.842 445.231 324.76 445.452C323.677 445.672 322.685 446.21 321.909 446.996C321.132 447.783 320.607 448.782 320.4 449.868C320.193 450.953 320.314 452.076 320.746 453.093C321.178 454.11 321.903 454.976 322.828 455.579C323.753 456.183 324.837 456.498 325.942 456.485C327.407 456.466 328.806 455.871 329.836 454.828C330.865 453.785 331.443 452.378 331.443 450.912Z" fill="#FFB861"/>
<path d="M275.766 456.429C278.811 456.429 281.28 453.959 281.28 450.912C281.28 447.865 278.811 445.395 275.766 445.395C272.72 445.395 270.251 447.865 270.251 450.912C270.251 453.959 272.72 456.429 275.766 456.429Z" fill="#FFB861"/>
<path d="M248.693 491.231C251.739 491.231 254.208 488.761 254.208 485.714C254.208 482.667 251.739 480.197 248.693 480.197C245.648 480.197 243.179 482.667 243.179 485.714C243.179 488.761 245.648 491.231 248.693 491.231Z" fill="#FF6EA1"/>
<path d="M232.344 463.2C232.344 462.098 232.017 461.02 231.405 460.104C230.793 459.187 229.923 458.473 228.905 458.051C227.887 457.629 226.767 457.519 225.687 457.734C224.606 457.949 223.614 458.48 222.835 459.259C222.056 460.039 221.525 461.032 221.31 462.113C221.095 463.194 221.206 464.314 221.627 465.332C222.049 466.351 222.763 467.221 223.679 467.833C224.595 468.446 225.672 468.773 226.774 468.773C228.251 468.773 229.668 468.186 230.713 467.14C231.757 466.095 232.344 464.678 232.344 463.2Z" fill="#3FD4C7"/>
<path d="M202.57 428.356V503.575H370.352" stroke="#485070" stroke-width="0.75" stroke-miterlimit="10"/>
<path d="M241.535 308.275H215.925V367.779H241.535V308.275Z" fill="#FFB861"/>
<path d="M281.113 279.157H255.503V367.779H281.113V279.157Z" fill="#FF6EA1"/>
<path d="M211.148 291.18C241.996 277.103 269.45 256.542 291.642 230.896" stroke="#485070" stroke-width="0.75" stroke-miterlimit="10" stroke-linecap="round"/>
<path d="M293.981 228.18L292.157 233.376L291.405 231.091L289.051 230.618L293.981 228.18Z" fill="#485070"/>
<path d="M320.705 238.963H295.095V367.779H320.705V238.963Z" fill="#3FD4C7"/>
<path d="M360.298 295.304H334.688V367.779H360.298V295.304Z" fill="#628AEC"/>
<path d="M200.857 241.373V367.974H371.94" stroke="#485070" stroke-width="0.75" stroke-miterlimit="10"/>
<path d="M371.689 380.193H199.882V388.844H371.689V380.193Z" fill="#E6EDFF"/>
<path d="M337.194 208.856H233.946V217.508H337.194V208.856Z" fill="#E6EDFF"/>
<path d="M371.48 193.74H199.673V202.391H371.48V193.74Z" fill="#E6EDFF"/>
<path d="M371.689 396.061H199.882V404.713H371.689V396.061Z" fill="#E6EDFF"/>
<path d="M371.689 411.93H199.882V420.582H371.689V411.93Z" fill="#E6EDFF"/>
<path d="M365.172 117.029C363.166 117.503 361.189 118.06 359.211 118.618C358.867 118.689 358.544 118.837 358.264 119.05C357.939 119.405 357.735 119.853 357.679 120.331C357.072 123.749 357.16 127.253 357.938 130.636C358.716 134.018 360.167 137.209 362.205 140.017C363.431 141.55 364.879 142.804 366.202 144.322C367.525 145.841 369.266 147.025 370.38 148.502C371.773 150.244 372.316 153.058 372.942 155.148C374.432 159.964 375.348 164.94 375.672 169.971C375.895 173.287 376.048 177.049 378.583 179.18C381.117 181.312 385.086 180.755 387.676 178.735C390.147 176.541 391.943 173.69 392.857 170.515C395.839 162.43 397.211 153.84 396.895 145.228C396.519 137.44 394.11 128.064 389.111 121.906C385.741 117.726 380.198 115.929 374.878 115.859C371.607 115.844 368.346 116.237 365.172 117.029Z" fill="#FF6EA1"/>
<path d="M369.935 163.744C371.791 153.74 373.648 143.737 375.505 133.734" stroke="#485070" stroke-width="0.75" stroke-miterlimit="10"/>
<path d="M371.828 135.615C372.469 137.245 373.11 138.889 373.736 140.519" stroke="#485070" stroke-width="0.75" stroke-miterlimit="10"/>
<path d="M334.228 185.297C334.94 185.048 335.688 184.911 336.442 184.893C343.21 184.739 349.797 184.043 356.621 183.36C361.189 182.896 365.747 182.631 370.297 182.566C373.959 182.566 378.207 183.318 381.786 182.301C385.365 181.284 388.136 180.184 390.03 177.049C390.93 175.55 391.753 174.006 392.495 172.423C392.989 171.582 393.213 170.61 393.136 169.637C392.843 168.244 391.325 167.422 389.835 166.851C386.674 165.694 384.71 163.869 381.076 163.507C377.283 163.217 373.469 163.513 369.767 164.385C362.526 165.903 355.284 166.53 348.168 168.648C340.206 171.183 332.419 174.236 324.856 177.787C322.04 178.845 319.444 180.413 317.196 182.413C315.717 183.792 314.814 185.68 314.667 187.697C314.52 189.715 315.14 191.714 316.402 193.294C316.783 193.787 317.284 194.174 317.857 194.418C318.43 194.662 319.056 194.755 319.675 194.687C321.068 194.45 321.903 192.695 320.789 192.179C328.059 194.952 328.254 187.428 334.228 185.297Z" fill="#FFC1A6"/>
<path d="M311.319 186.453V186.007L310.985 186.829L311.319 186.453Z" fill="#FF6EA1"/>
<path d="M330.287 129.889C329.864 129.078 329.223 128.402 328.435 127.938C326.067 126.545 321.109 128.691 318.979 129.861C318.5 130.109 318.035 130.384 317.586 130.683C315.074 132.37 312.798 134.385 310.818 136.674C310.136 137.412 309.425 138.178 308.813 138.931C298.995 150.285 292.644 162.782 294.232 177.941C294.58 181.201 295.221 184.711 297.644 186.899C298.637 187.742 299.809 188.349 301.07 188.674C302.331 189 303.65 189.036 304.927 188.78C307.356 188.268 309.591 187.08 311.375 185.352V185.965L311.737 185.088C315.609 181.326 316.514 176.115 317.461 171.058L326.694 148.377C328.17 144.768 332.919 134.835 330.287 129.889Z" fill="#FF6EA1"/>
<path d="M314.592 242.07C318.77 235.104 311.11 233.989 309.982 227.803C309.857 227.056 309.857 226.294 309.982 225.546C311.055 218.803 311.528 212.144 312.057 205.261C312.419 200.664 312.976 196.08 313.742 191.552C314.244 188.487 315.441 185.088 315.581 181.897C315.581 180.88 315.4 179.863 315.233 178.874C314.571 177.628 313.667 176.526 312.574 175.634C311.481 174.741 310.221 174.076 308.868 173.677C306.971 173.111 304.965 173.017 303.023 173.403C301.082 173.789 299.264 174.644 297.727 175.893C296.96 177.081 296.271 178.319 295.666 179.598C294.947 182.933 294.671 186.348 294.845 189.755C295.095 197.167 294.427 204.467 295.318 211.809C296.483 220.047 298.219 228.194 300.513 236.191C301.089 239.122 302.239 241.911 303.897 244.397C305.151 246.08 306.987 247.235 309.047 247.637C311.107 248.039 313.243 247.658 315.038 246.57C315.603 246.265 316.084 245.823 316.436 245.286C316.789 244.748 317.002 244.132 317.057 243.491C316.987 242.126 315.344 241.025 314.592 242.07Z" fill="#FFC1A6"/>
<path d="M315.191 179.083C317.182 169.985 320.765 161.311 325.775 153.462" stroke="#485070" stroke-width="0.75" stroke-miterlimit="10"/>
<path d="M322.209 159.021L325.83 156.694" stroke="#485070" stroke-width="0.75" stroke-miterlimit="10"/>
<path d="M107.315 333.799C112.496 339.734 114.612 347.731 116.381 355.212C118.656 364.881 120.93 374.555 123.205 384.233C123.819 386.482 124.202 388.788 124.347 391.115C124.23 395.215 123.613 399.286 122.508 403.236C121.38 407.862 118.609 407.569 114.487 407.165C107.97 406.51 99.1683 404.546 94.7119 399.224C92.623 396.702 91.9266 393.331 91.3557 390.098C90.5201 385.668 89.6985 381.237 88.8629 376.807C85.4788 358.695 82.0948 340.012 85.9245 321.984C94.258 323.176 101.867 327.379 107.315 333.799Z" fill="white"/>
<path d="M116.882 391.087C119.765 392.481 122.453 394.208 125.238 395.88C129.639 398.527 134.234 400.394 138.746 402.846C139.983 403.603 141.332 404.158 142.743 404.49C145.152 404.922 147.701 404.002 150.124 404.337C153.383 404.769 156.154 407.667 157.324 411.498C159.315 417.948 154.664 415.552 151.586 414.981L144.386 413.657C135.078 412.018 125.671 410.994 116.228 410.592C110.978 410.328 101.731 410.439 97.8035 405.66C95.8956 403.334 93.7788 393.121 96.2855 390.655C96.7493 390.245 97.3025 389.95 97.901 389.792C102.782 388.121 108.066 388.038 112.997 389.555C114.328 389.968 115.627 390.481 116.882 391.087Z" fill="#9C5240"/>
<path d="M113.47 465.722H21.3627C20.6428 465.723 19.9296 465.583 19.264 465.309C18.5983 465.035 17.9934 464.632 17.4837 464.123C16.974 463.614 16.5696 463.01 16.2937 462.345C16.0178 461.68 15.8757 460.967 15.8758 460.246C15.8739 459.525 16.0146 458.81 16.2897 458.144C16.5648 457.477 16.9689 456.871 17.4787 456.361C17.9886 455.851 18.5942 455.446 19.2607 455.171C19.9273 454.896 20.6416 454.755 21.3627 454.757H113.47C114.19 454.757 114.903 454.899 115.568 455.175C116.233 455.451 116.837 455.856 117.345 456.366C117.854 456.876 118.256 457.481 118.531 458.147C118.805 458.813 118.945 459.526 118.943 460.246C118.943 461.698 118.367 463.091 117.34 464.118C116.314 465.145 114.922 465.722 113.47 465.722Z" fill="#485070"/>
<path d="M101.313 393.442V361.092C101.313 356.221 97.366 352.273 92.4975 352.273H20.4435C15.575 352.273 11.6283 356.221 11.6283 361.092V393.442C11.6283 398.313 15.575 402.261 20.4435 402.261H92.4975C97.366 402.261 101.313 398.313 101.313 393.442Z" fill="#485070"/>
<path d="M28.6879 394.139H23.1174V460.65H28.6879V394.139Z" fill="#485070"/>
<path d="M88.7792 394.139H83.2087V460.65H88.7792V394.139Z" fill="#485070"/>
<path d="M67.3051 462.963H61.7346V543.755H67.3051V462.963Z" fill="#485070"/>
<path d="M25.443 462.963H19.8726V543.755H25.443V462.963Z" fill="#485070"/>
<path d="M114.738 462.963H109.167V543.755H114.738V462.963Z" fill="#485070"/>
<path d="M86.1471 462.963H80.5767V543.755H86.1471V462.963Z" fill="#485070"/>
<path d="M170.456 491.315C167.309 491.984 165.136 492.137 161.404 492.708C155.973 493.474 150.528 494.101 145.069 494.575C146.461 504.397 147.854 513.035 148.119 514.776C149.511 522.3 148.759 541.15 152.115 548.297C156.196 548.799 159.733 548.13 163.563 547.823C165.582 528.917 167.253 510.012 170.456 491.315Z" fill="#CF9378"/>
<path d="M142.047 507.866C142.016 509.411 142.132 510.955 142.395 512.478C146.95 516.922 153.011 519.488 159.371 519.667C162.922 519.842 166.475 519.37 169.857 518.273C170.247 510.917 170.684 503.561 171.166 496.205C171.779 486.634 172.267 477.076 173.464 467.561C174.311 459.006 174.358 450.391 173.603 441.828C171.166 432.48 164.955 429.93 164.955 429.93C164.955 429.93 147.603 423.062 134.318 420.178C117.996 416.597 101.41 413.936 85.0053 410.425C77.1231 408.698 63.935 409.032 59.9382 417.642C55.2172 427.617 64.6174 440.895 72.1793 446.649C80.0058 452.611 89.6566 455.621 99.2656 457.725C112.861 460.64 126.755 461.931 140.654 461.57C140.209 461.57 142.047 504.411 142.047 507.866Z" fill="#66A3F2"/>
<path d="M140.654 461.653C140.654 461.653 140.654 461.653 140.724 461.584C137.702 458.561 134.833 455.37 131.811 452.361C127.299 447.889 122.912 443.263 118.428 438.763C109.529 429.791 100.575 420.874 91.8708 411.721L85.0192 410.328C77.137 408.6 63.9489 408.935 59.9521 417.545C55.2311 427.52 64.6313 440.797 72.1932 446.551C80.0197 452.514 89.6705 455.523 99.2796 457.627C112.867 460.574 126.755 461.898 140.654 461.57C140.65 461.598 140.65 461.626 140.654 461.653Z" fill="#485070"/>
<path d="M140.766 464.301C140.766 459.94 141.364 454.618 141.378 450.257" stroke="#485070" stroke-width="0.4" stroke-miterlimit="10"/>
<path d="M151.962 425.681C140.292 421.919 129.68 418.45 112.51 416.137" stroke="#485070" stroke-width="0.75" stroke-miterlimit="10"/>
<path d="M150.11 553.605H187.46V557.646H151.447C151.078 557.646 150.723 557.499 150.462 557.237C150.201 556.976 150.054 556.622 150.054 556.252V553.549L150.11 553.605Z" fill="#B3B3B3"/>
<path d="M186.945 554.706C187.077 554.516 187.194 554.316 187.293 554.107C187.642 553.063 187.647 551.935 187.306 550.889C186.965 549.842 186.296 548.934 185.399 548.297C183.535 546.996 181.427 546.086 179.202 545.622C174.605 544.213 169.914 543.133 165.164 542.39C163.897 542.209 150.291 540.997 150.361 540.356C150.152 543.783 149.929 547.21 149.72 550.638C149.471 551.982 149.471 553.361 149.72 554.706H186.945Z" fill="#485070"/>
<path d="M156.544 537.528C157.617 536.708 158.921 536.246 160.27 536.209C161.62 536.171 162.947 536.56 164.064 537.319C165.157 538.108 166.034 539.159 166.613 540.377C167.192 541.595 167.456 542.938 167.379 544.285C167.396 544.538 167.362 544.792 167.278 545.031C167.195 545.271 167.063 545.491 166.891 545.678C166.484 545.96 165.991 546.088 165.499 546.04L159.065 546.124C157.672 546.124 156.029 546.444 155.096 545.246C153.425 543.1 154.943 539.172 156.544 537.528Z" fill="#485070"/>
<path d="M170.693 543.351C170.061 543.295 169.427 543.445 168.888 543.779C168.348 544.113 167.931 544.613 167.699 545.204" stroke="#B3B3B3" stroke-width="0.75" stroke-miterlimit="10" stroke-linecap="round"/>
<path d="M171.459 546.639C171.797 546.098 172.264 545.649 172.819 545.333C173.373 545.017 173.996 544.844 174.634 544.828" stroke="#B3B3B3" stroke-width="0.75" stroke-miterlimit="10" stroke-linecap="round"/>
<path d="M176.194 547.155C176.344 546.753 176.612 546.405 176.962 546.156C177.312 545.908 177.728 545.77 178.157 545.761" stroke="#B3B3B3" stroke-width="0.75" stroke-miterlimit="10" stroke-linecap="round"/>
<path d="M108.624 486.23C103.833 486.898 99.0382 487.456 94.2383 487.901C97.873 505.79 99.5442 523.986 102.51 541.986C106.591 541.986 110.309 541.108 114.64 541.206C115.476 535.758 117.133 503.394 119.695 484.418C116.046 485.252 112.349 485.857 108.624 486.23Z" fill="#CF9378"/>
<path d="M94.8928 511.697C95.8815 515.724 97.0374 518.19 101.006 519.764C104.455 521.145 108.187 521.671 111.883 521.297C115.202 520.764 118.308 519.316 120.851 517.117C120.851 517.117 125.976 440.783 119.612 431.003C111.813 419.035 94.7675 416.583 81.468 413.657C69.8396 411.108 58.0581 409.018 46.3044 406.691C43.4356 417.572 45.5106 430.376 49.6606 440.407L49.7302 440.56C51.3865 444.426 54.0657 447.766 57.4792 450.221C60.8928 452.676 64.9112 454.153 69.1015 454.492C75.3255 455.022 81.5734 455.217 87.8183 455.078C87.7347 455.147 91.3555 497.278 94.8928 511.697Z" fill="#66A3F2"/>
<path d="M87.9297 457.878C87.9297 453.517 88.5285 448.195 88.5424 443.834" stroke="#485070" stroke-width="0.4" stroke-miterlimit="10"/>
<path d="M101.48 553.02H138.83V557.06H102.817C102.448 557.06 102.093 556.914 101.832 556.652C101.571 556.391 101.424 556.037 101.424 555.667V552.964L101.48 553.02Z" fill="#B3B3B3"/>
<path d="M138.301 554.121C138.443 553.934 138.564 553.734 138.663 553.521C139.013 552.48 139.018 551.354 138.677 550.309C138.336 549.265 137.667 548.359 136.769 547.726C134.909 546.415 132.8 545.5 130.572 545.037C125.975 543.628 121.284 542.548 116.534 541.805C115.267 541.624 101.661 540.411 101.717 539.771L101.09 550.052C100.832 551.396 100.832 552.777 101.09 554.121H138.301Z" fill="#485070"/>
<path d="M107.914 536.942C108.985 536.124 110.286 535.663 111.633 535.626C112.98 535.588 114.305 535.976 115.42 536.733C116.515 537.522 117.393 538.573 117.975 539.791C118.557 541.008 118.823 542.352 118.748 543.699C118.763 543.952 118.727 544.206 118.644 544.445C118.56 544.684 118.43 544.904 118.261 545.093C117.85 545.364 117.359 545.487 116.868 545.441L110.435 545.525C109.042 545.525 107.399 545.845 106.466 544.647C104.794 542.515 106.312 538.531 107.914 536.942Z" fill="#485070"/>
<path d="M122.049 542.794C121.417 542.74 120.785 542.891 120.245 543.225C119.706 543.559 119.289 544.057 119.055 544.647" stroke="#B3B3B3" stroke-width="0.75" stroke-miterlimit="10" stroke-linecap="round"/>
<path d="M122.829 546.054C123.167 545.513 123.634 545.064 124.188 544.748C124.742 544.432 125.366 544.259 126.004 544.243" stroke="#B3B3B3" stroke-width="0.75" stroke-miterlimit="10" stroke-linecap="round"/>
<path d="M127.55 546.57C127.706 546.168 127.977 545.822 128.328 545.574C128.68 545.327 129.097 545.188 129.527 545.176" stroke="#B3B3B3" stroke-width="0.75" stroke-miterlimit="10" stroke-linecap="round"/>
<path d="M44.7309 421.501C45.0652 423.257 45.3994 425.012 45.7197 426.768C51.7776 423.577 59.0331 424.246 65.8848 424.232C80.9375 424.189 95.7537 420.483 109.056 413.435C108.169 409.807 107.628 406.103 107.44 402.372C107.44 398.555 105.839 394.863 105.839 391.032C105.588 385.863 105.839 380.68 106.048 375.525C106.535 365.773 107.19 355.839 105.365 346.268C104.264 339.95 101.766 333.957 98.0542 328.727C96.3134 326.373 93.8764 323.322 91.2304 321.956C88.5844 320.591 84.142 320.995 80.9668 320.717C78.6552 320.421 76.3153 320.421 74.0037 320.717C71.1805 321.338 68.4949 322.471 66.0797 324.06C52.9195 331.918 51.2484 344.68 47.3491 358.431C45.3715 365.285 42.2521 371.778 40.2746 378.646C39.1795 382.48 38.6816 386.461 38.7984 390.447C38.8819 394.055 40.2606 397.273 40.9291 400.812C42.1824 407.713 43.4497 414.609 44.7309 421.501Z" fill="white"/>
<path d="M82.0391 333.228C84.5132 335.316 87.6922 336.377 90.9239 336.195C92.0434 336.197 93.1368 335.857 94.0573 335.22C94.5079 334.894 94.8463 334.436 95.0259 333.909C95.2055 333.383 95.2174 332.814 95.06 332.28" stroke="#485070" stroke-width="0.4" stroke-miterlimit="10" stroke-linecap="round"/>
<path d="M79.0032 361.997C80.459 366.691 82.9746 370.987 86.3553 374.553C89.7361 378.119 93.8914 380.859 98.4998 382.561" stroke="#485070" stroke-width="0.4" stroke-miterlimit="10" stroke-linecap="round"/>
<path d="M87.5537 369.284C89.9859 372.173 93.427 374.026 97.1767 374.466" stroke="#485070" stroke-width="0.4" stroke-miterlimit="10" stroke-linecap="round"/>
<path d="M70.717 368.713C74.1286 379.465 80.1473 389.205 88.2362 397.064" stroke="#485070" stroke-width="0.4" stroke-miterlimit="10" stroke-linecap="round"/>
<path d="M101.062 332.698C104.85 339.218 104.906 342.938 105.755 348.692C106.709 355.149 107.147 361.671 107.064 368.197C106.911 379.106 104.502 389.095 106.939 399.92" stroke="#485070" stroke-width="0.4" stroke-miterlimit="10"/>
<path d="M93.1381 318.641C93.7045 316.826 94.4951 315.09 95.4916 313.472C92.5433 313.392 89.6884 312.421 87.303 310.685C86.1218 309.821 85.0218 308.851 84.0164 307.788C83.6404 307.411 83.0834 306.464 82.5124 305.795C81.8996 312.343 79.4626 318.515 73.8643 322.263C75.902 325.652 78.8244 328.422 82.3174 330.274C85.228 331.974 92.4975 335.234 92.6646 329.327C92.6646 327.39 91.9404 325.607 92.1075 323.642C92.2627 321.942 92.6083 320.264 93.1381 318.641Z" fill="#CF9378"/>
<path d="M92.0937 324.172C92.0937 323.991 92.0937 323.823 92.0937 323.642C92.4448 320.041 93.6014 316.565 95.4778 313.472C92.5295 313.392 89.6746 312.421 87.2892 310.685C86.108 309.821 85.0079 308.851 84.0026 307.788C83.6266 307.411 83.0696 306.464 82.4986 305.795C82.4011 306.757 82.2758 307.704 82.0947 308.582C82.391 311.792 83.4539 314.883 85.194 317.596C86.9341 320.31 89.3005 322.565 92.0937 324.172Z" fill="#9C5240"/>
<path d="M49.2011 333.799C44.0206 339.734 41.8899 347.731 40.1352 355.212C37.8606 364.881 35.5814 374.555 33.2975 384.233C32.5176 387.577 31.2503 392.16 31.9884 395.588C32.9351 399.396 35.3544 402.674 38.7147 404.699C42.1545 406.761 47.3907 407.708 51.2483 405.953C55.1058 404.198 59.1862 402.47 61.874 399.224C63.9629 396.702 64.6592 393.331 65.2302 390.098C66.0657 385.668 66.8874 381.237 67.7229 376.807C71.107 358.695 74.4911 340.012 70.6614 321.984C62.3029 323.16 54.6665 327.364 49.2011 333.799Z" fill="white"/>
<path d="M70.7728 351.785C63.2388 353.749 63.9072 363.39 63.2248 369.339C62.2219 378.124 60.5506 386.82 58.2253 395.351" stroke="#485070" stroke-width="0.4" stroke-miterlimit="10"/>
<path d="M65.1187 356.745C65.9474 354.116 67.5135 351.78 69.6307 350.016" stroke="#485070" stroke-width="0.4" stroke-miterlimit="10"/>
<path d="M60.6624 392.885C64.701 393.762 68.6699 395.058 72.625 396.256C78.9196 398.165 85.2978 399.266 91.6899 400.965C93.5011 401.512 95.3712 401.839 97.2603 401.941C100.491 401.941 103.625 400.659 106.855 400.547C109.018 400.55 111.146 401.091 113.048 402.122C114.949 403.154 116.564 404.642 117.746 406.454C121.701 412.501 115.142 410.885 111.019 410.815L101.369 410.676C88.9147 410.561 76.4629 411.072 64.0604 412.208C57.0973 412.78 45.1487 414.396 38.9933 410.314C36.0131 408.321 31.0972 398.639 33.8406 395.755C34.3878 395.245 35.0386 394.86 35.7485 394.626C41.9628 392.163 48.6828 391.25 55.3287 391.965C57.1232 392.166 58.9043 392.473 60.6624 392.885Z" fill="#CF9378"/>
<path d="M166.668 424.399H83.0974C82.1668 424.399 81.4124 425.154 81.4124 426.085V426.67C81.4124 427.601 82.1668 428.356 83.0974 428.356H166.668C167.599 428.356 168.353 427.601 168.353 426.67V426.085C168.353 425.154 167.599 424.399 166.668 424.399Z" fill="#485070"/>
<path d="M177.141 428.342H102.845L109.306 385.64C109.409 384.929 109.761 384.278 110.299 383.803C110.838 383.329 111.527 383.061 112.245 383.049H180.65C181.066 383.059 181.475 383.158 181.848 383.34C182.222 383.522 182.552 383.783 182.817 384.104C183.081 384.425 183.273 384.8 183.38 385.202C183.487 385.604 183.506 386.024 183.435 386.434L177.141 428.342Z" fill="#757E96"/>
<path d="M146.127 409.756C148.85 409.756 151.057 407.548 151.057 404.824C151.057 402.101 148.85 399.892 146.127 399.892C143.404 399.892 141.197 402.101 141.197 404.824C141.197 407.548 143.404 409.756 146.127 409.756Z" fill="white"/>
<path d="M107.858 291.459C107.009 288.143 103.457 291.027 100.213 289.913C97.4273 288.951 95.2548 288.074 92.2468 288.603C89.5138 289.017 87.032 290.432 85.2837 292.574C84.8242 293.159 84.4064 293.758 84.0304 294.343C83.012 296.461 82.187 298.666 81.5654 300.933V301.072C81.709 305.268 83.106 309.325 85.5762 312.719C86.6762 314.337 88.1886 315.63 89.9565 316.465C91.7245 317.301 93.6837 317.648 95.6309 317.47C97.8542 317.215 99.911 316.166 101.424 314.517C103.07 312.658 104.371 310.521 105.268 308.205C106.73 304.681 108.791 295.109 107.858 291.459Z" fill="#CF9378"/>
<path d="M92.1912 294.705C92.1912 294.566 92.219 294.399 92.2748 294.204L93.1521 290.024C96.6476 292.629 100.435 296.349 104.961 297.854C106.653 298.393 108.469 298.396 110.162 297.862C111.854 297.328 113.341 296.284 114.417 294.872C114.793 294.356 115.119 293.806 115.392 293.228C115.569 292.73 115.773 292.241 116.005 291.766C115.351 292.102 114.601 292.202 113.882 292.047C113.163 291.892 112.521 291.492 112.064 290.916C111.197 289.729 110.533 288.406 110.1 287.001C108.802 283.773 106.609 280.983 103.778 278.962C100.939 276.971 97.4793 276.066 94.0294 276.412C91.862 276.672 89.8012 277.498 88.0551 278.809C87.1844 279.448 86.4185 280.219 85.7852 281.094C85.4927 281.498 84.2533 283.727 84.7546 284.145C84.3417 283.871 83.8574 283.725 83.362 283.725C82.8667 283.725 82.3823 283.871 81.9694 284.145C81.1329 284.717 80.4569 285.494 80.0058 286.402C77.879 290.183 77.0891 294.571 77.7637 298.857C78.1153 300.68 78.676 302.457 79.4348 304.151C80.0058 305.544 80.9389 307.202 82.6796 307.244C85.1028 307.244 84.8243 303.246 85.4649 301.156C85.7295 300.334 85.6738 299.303 86.6486 299.052C87.6234 298.801 89.2388 300.696 90.0048 299.15C90.2003 298.557 90.2003 297.917 90.0048 297.325C89.8084 296.734 89.8484 296.089 90.1162 295.527C90.1162 295.527 91.3974 295.527 91.5924 295.527C91.7663 295.471 91.9179 295.362 92.0255 295.214C92.1331 295.066 92.1911 294.888 92.1912 294.705Z" fill="#485070"/>
<path d="M86.2308 277.917C85.2972 279.191 84.7145 280.687 84.5409 282.257C84.3674 283.827 84.6092 285.415 85.242 286.862" stroke="#485070" stroke-width="0.75" stroke-miterlimit="10" stroke-linecap="round"/>
<path d="M79.574 283.337C80.3573 282.879 81.2751 282.706 82.1713 282.848C83.0675 282.99 83.8868 283.439 84.4899 284.117" stroke="#485070" stroke-width="0.75" stroke-miterlimit="10" stroke-linecap="round"/>
<path d="M98.7642 303.845C99.3641 303.845 99.8505 303.358 99.8505 302.758C99.8505 302.158 99.3641 301.671 98.7642 301.671C98.1643 301.671 97.678 302.158 97.678 302.758C97.678 303.358 98.1643 303.845 98.7642 303.845Z" fill="#485070"/>
<path d="M97.9148 299.832C98.6232 299.588 99.3928 299.588 100.101 299.832" stroke="#485070" stroke-width="0.75" stroke-miterlimit="10" stroke-linecap="round"/>
<path d="M106.702 303.873C106.702 304.161 106.588 304.437 106.384 304.641C106.18 304.845 105.904 304.959 105.616 304.959C105.328 304.959 105.052 304.845 104.848 304.641C104.644 304.437 104.53 304.161 104.53 303.873C104.53 303.584 104.644 303.308 104.848 303.104C105.052 302.9 105.328 302.786 105.616 302.786C105.904 302.786 106.18 302.9 106.384 303.104C106.588 303.308 106.702 303.584 106.702 303.873Z" fill="#485070"/>
<path d="M104.781 300.933C105.484 300.69 106.249 300.69 106.953 300.933" stroke="#485070" stroke-width="0.75" stroke-miterlimit="10" stroke-linecap="round"/>
<path d="M102.803 304.388C102.665 305.374 102.92 306.375 103.513 307.174C103.695 307.353 103.808 307.59 103.833 307.843C103.813 307.974 103.752 308.095 103.66 308.19C103.568 308.285 103.448 308.348 103.318 308.373C103.052 308.428 102.777 308.428 102.51 308.373" stroke="#485070" stroke-width="0.75" stroke-miterlimit="10" stroke-linecap="round"/>
<path d="M97.9148 310.337C98.4242 310.778 99.029 311.094 99.6816 311.261C100.334 311.428 101.017 311.441 101.675 311.298" stroke="#485070" stroke-width="0.75" stroke-miterlimit="10" stroke-linecap="round"/>
<path d="M81.2731 300.794C81.2841 301.579 81.527 302.344 81.9712 302.992C82.4155 303.64 83.0413 304.142 83.77 304.435C84.4987 304.728 85.2977 304.799 86.0666 304.639C86.8355 304.479 87.5399 304.095 88.0914 303.536C88.6429 302.976 89.0167 302.266 89.1659 301.495C89.3151 300.724 89.2331 299.925 88.93 299.2C88.627 298.476 88.1166 297.857 87.4628 297.421C86.8091 296.986 86.0413 296.753 85.256 296.753C84.7282 296.753 84.2057 296.858 83.7188 297.062C83.2319 297.266 82.7904 297.564 82.4198 297.94C82.0492 298.316 81.757 298.762 81.5601 299.252C81.3633 299.742 81.2657 300.266 81.2731 300.794Z" fill="#CF9378"/>
<path d="M84.4761 299.08C84.7679 299.04 85.0649 299.076 85.3391 299.184C85.6132 299.291 85.8552 299.467 86.0422 299.695C86.2292 299.922 86.3549 300.194 86.4074 300.484C86.4599 300.774 86.4375 301.072 86.3422 301.351C86.169 301.189 85.9507 301.084 85.7163 301.049C85.4818 301.014 85.2423 301.051 85.0294 301.155C84.8165 301.259 84.6402 301.426 84.524 301.632C84.4078 301.839 84.3571 302.076 84.3786 302.312" stroke="#485070" stroke-width="0.75" stroke-linecap="round" stroke-linejoin="round"/>
<path d="M527.063 528.569C526.952 528.068 512.733 530.548 511.16 530.798L510.979 530.938C506.063 535.117 499.838 537.402 493.724 539.603C492.756 539.873 491.87 540.38 491.148 541.08C488.363 544.34 494.253 545.733 496.342 545.915C499.741 546.019 503.139 545.687 506.453 544.925C513.304 543.713 520.281 544.103 527.063 542.432C527.189 542.432 527.314 542.406 527.429 542.356C527.544 542.305 527.647 542.23 527.731 542.137C527.815 542.044 527.878 541.933 527.917 541.814C527.956 541.694 527.968 541.567 527.955 541.442C528.325 537.131 528.025 532.788 527.063 528.569Z" fill="#485070"/>
<path d="M495.924 428.523C499.364 462.768 505.673 497.905 509.544 532.122C517.566 532.805 520.476 532.275 528.261 530.966C533.372 493.739 535.53 475.781 530.921 438.039C530.447 434.165 530.921 402.066 530.726 397.942C529.904 373.408 533.177 345.404 518.457 324.673C514.725 319.449 508.639 315.436 502.442 315.91C500.308 316.118 498.247 316.797 496.407 317.898C494.568 318.999 492.995 320.495 491.802 322.277C484.199 332.615 488.446 360.688 489.797 372.948C491.593 389.193 494.295 412.195 495.924 428.523Z" fill="#757E96"/>
<path d="M498.348 449.825C499.74 443.89 501.439 438.011 503.11 432.145C508.959 411.637 511.382 390.544 514.321 369.451C515.141 364.467 515.574 359.427 515.616 354.376C515.532 349.263 514.85 344.108 514.446 339.051C514.032 332.071 513.068 325.135 511.563 318.306C508.834 316.61 505.651 315.788 502.442 315.952C500.308 316.16 498.247 316.839 496.407 317.94C494.568 319.041 492.995 320.536 491.802 322.319C484.199 332.656 488.446 360.729 489.797 372.99C491.593 389.234 494.295 412.236 495.924 428.565C496.635 435.503 497.456 442.636 498.348 449.825Z" fill="#545D78"/>
<path d="M472.222 533.32C472.084 533.299 471.943 533.299 471.804 533.32C467.242 533.863 462.629 533.835 458.073 533.236C457.492 533.139 456.899 533.139 456.318 533.236C455.821 533.394 455.351 533.629 454.926 533.933C450.644 536.533 445.925 538.332 441 539.241C438.214 539.757 435.151 540.049 432.909 541.846C431.864 542.682 431.042 544.243 431.836 545.316C432.137 545.661 432.514 545.933 432.936 546.11C437.212 548.116 443.673 547.336 448.255 547.085C455.678 546.667 463.031 547.085 470.356 545.692C470.656 545.646 470.942 545.531 471.192 545.357C471.495 545.046 471.691 544.646 471.749 544.215C472.227 542.188 472.594 540.137 472.849 538.071C472.946 537.249 473.406 534.309 472.849 533.626C472.779 533.527 472.684 533.446 472.575 533.393C472.465 533.339 472.344 533.314 472.222 533.32Z" fill="#485070"/>
<path d="M490.382 320.619C473.503 320.34 468.337 337.964 466.331 351.52C462.079 380.146 459.104 408.939 457.405 437.899C456.555 452.263 455.427 464.37 454.954 478.804C454.452 493.572 453.645 519.207 454.285 533.836C454.273 534.132 454.356 534.425 454.522 534.671C454.645 534.787 454.789 534.878 454.947 534.937C455.104 534.997 455.272 535.025 455.441 535.02C461.63 535.686 467.868 535.775 474.074 535.284C474.367 535.284 474.655 535.207 474.91 535.062C475.174 534.867 472.793 533.933 472.891 533.668C477.639 518.998 480.898 492.778 482.388 477.452C485.494 445.409 492.136 414.201 504.099 384.581C516.048 356.536 522.802 321.134 490.382 320.619Z" fill="#757E96"/>
<path d="M497.303 401.885C504.08 385.7 509.897 369.129 514.725 352.259" stroke="#485070" stroke-width="0.75" stroke-miterlimit="10"/>
<path d="M493.696 358.584H493.863C495.409 358.835 496.955 359.071 498.501 359.267C499.643 359.406 500.785 359.517 501.927 359.629L503.055 359.726C504.002 359.81 504.963 359.88 505.84 359.921L507.469 360.005H508.737C516.025 360.241 523.319 359.727 530.503 358.472C529.431 345.529 526.604 333.06 519.084 322.5C515.365 317.261 509.266 313.249 503.069 313.736C500.937 313.939 498.877 314.615 497.039 315.714C495.201 316.813 493.631 318.307 492.443 320.089C491.853 320.906 491.353 321.784 490.953 322.709C476.289 322.374 469.813 337.156 466.54 349.626C469.875 351.57 473.397 353.171 477.055 354.404C482.469 356.281 488.038 357.68 493.696 358.584Z" fill="#545D78"/>
<path d="M501.049 228.57C501.153 226.675 501.017 224.774 500.645 222.913C503.44 223.852 506.45 223.94 509.293 223.164C510.701 222.757 512.071 222.231 513.388 221.59C513.861 221.367 514.78 220.684 515.491 220.197C513.778 226.563 513.903 233.195 517.844 238.657C514.754 241.119 511.052 242.694 507.135 243.212C503.807 243.784 495.855 244.313 497.763 238.712C498.389 236.887 499.74 235.48 500.269 233.585C500.707 231.946 500.968 230.265 501.049 228.57Z" fill="#F7B699"/>
<path d="M508.75 223.29C506.067 223.926 503.259 223.796 500.645 222.913C501.017 224.774 501.153 226.675 501.049 228.57C500.971 230.279 500.71 231.974 500.269 233.627L500.102 234.115L501.077 233.961C504.772 231.379 507.478 227.615 508.75 223.29Z" fill="#C46E58"/>
<path d="M496.746 197.961C498.696 195.175 501.021 199.089 504.433 199.187C507.414 199.257 509.725 199.187 512.357 200.733C514.767 202.076 516.593 204.265 517.482 206.877C517.71 207.568 517.901 208.27 518.053 208.981C518.261 211.299 518.261 213.63 518.053 215.947V216.101C516.456 219.978 513.735 223.287 510.241 225.602C508.638 226.743 506.759 227.433 504.8 227.6C502.84 227.766 500.871 227.404 499.1 226.55C497.115 225.524 495.559 223.825 494.713 221.757C493.819 219.44 493.348 216.982 493.32 214.498C493.181 210.737 494.588 201.054 496.746 197.961Z" fill="#F7B699"/>
<path d="M500.604 204.481C497.93 204.871 495.743 205.289 493.292 203.854C491.417 202.752 490.021 200.988 489.379 198.908C489.212 198.293 489.1 197.663 489.045 197.028C489.045 196.749 489.045 195.634 489.045 195.453C489.539 195.996 490.208 196.349 490.936 196.451C491.663 196.553 492.403 196.397 493.028 196.01C494.257 195.206 495.344 194.204 496.245 193.043C498.574 190.461 501.602 188.612 504.963 187.721C508.333 186.833 511.911 187.199 515.031 188.752C516.975 189.747 518.619 191.243 519.794 193.085C520.403 193.989 520.873 194.98 521.186 196.024C521.312 196.498 521.688 199.006 521.075 199.243C521.563 199.106 522.082 199.121 522.562 199.285C523.042 199.449 523.46 199.755 523.763 200.162C524.351 200.983 524.716 201.944 524.821 202.949C525.321 206.338 524.893 209.8 523.582 212.966C522.551 215.237 521.465 217.731 520.198 219.932C519.142 221.862 517.544 223.441 515.602 224.474C513.024 225.472 510.237 225.802 507.497 225.435C506.322 225.505 505.154 225.207 504.156 224.583C503.158 223.959 502.379 223.039 501.927 221.952C501.5 220.785 501.265 219.557 501.23 218.316C501.23 217.8 500.952 214.22 501.37 214.011C500.871 214.309 500.316 214.504 499.74 214.582C499.45 214.62 499.155 214.573 498.89 214.447C498.626 214.321 498.403 214.121 498.25 213.871C498.079 213.346 498.104 212.777 498.32 212.269C499.058 209.664 499.824 207.073 500.604 204.481Z" fill="#485070"/>
<path d="M521.73 192.834C522.157 194.351 522.179 195.954 521.793 197.482C521.407 199.01 520.626 200.41 519.529 201.542" stroke="#485070" stroke-width="0.75" stroke-miterlimit="10" stroke-linecap="round"/>
<path d="M526.075 200.232C525.503 199.527 524.704 199.044 523.815 198.863C522.926 198.683 522.002 198.817 521.2 199.243" stroke="#485070" stroke-width="0.75" stroke-miterlimit="10" stroke-linecap="round"/>
<path d="M506.912 215.947C506.639 216.687 506.152 217.329 505.514 217.792C504.875 218.255 504.114 218.518 503.326 218.548C502.538 218.577 501.759 218.372 501.088 217.959C500.417 217.545 499.883 216.942 499.555 216.224C499.227 215.507 499.119 214.709 499.244 213.93C499.37 213.151 499.724 212.428 500.262 211.85C500.799 211.273 501.495 210.868 502.263 210.687C503.03 210.507 503.834 210.558 504.573 210.834C505.559 211.204 506.359 211.949 506.798 212.907C507.236 213.866 507.277 214.959 506.912 215.947Z" fill="#F7B699"/>
<path d="M504.517 213.272C504.26 213.136 503.973 213.064 503.681 213.064C503.39 213.064 503.103 213.136 502.846 213.272C502.604 213.419 502.401 213.623 502.256 213.865C502.11 214.108 502.026 214.383 502.01 214.665C502.228 214.584 502.465 214.567 502.692 214.616C502.919 214.666 503.127 214.78 503.291 214.944C503.448 215.119 503.551 215.336 503.588 215.568C503.625 215.8 503.595 216.038 503.5 216.254" stroke="#485070" stroke-width="0.75" stroke-linecap="round" stroke-linejoin="round"/>
<path d="M451.653 261.143C451.771 260.514 452.049 259.927 452.462 259.439C452.875 258.95 453.407 258.577 454.007 258.356C455.232 257.925 457.307 257.925 457.725 256.685C457.92 256.072 458.129 255.835 457.628 255.417C457.111 255.022 456.481 254.802 455.831 254.79C454.825 254.741 453.825 254.977 452.946 255.47C452.067 255.962 451.344 256.692 450.86 257.576C450.567 258.12 450.149 258.816 449.564 258.649C449.43 258.593 449.309 258.509 449.208 258.404C449.107 258.298 449.03 258.173 448.979 258.036C448.283 256.406 449.244 254.581 450.177 253.076C450.83 251.827 451.788 250.763 452.962 249.983C454.391 249.332 455.98 249.118 457.53 249.37C460.664 249.579 463.964 249.816 466.624 251.697C467.32 252.185 468.017 252.756 468.643 253.243C470.486 254.424 472.495 255.321 474.604 255.904C473.963 258.161 473.308 260.404 472.668 262.648C472.668 262.759 472.584 262.898 472.487 262.954C472.366 263.003 472.231 263.003 472.111 262.954C468.295 262.021 463.894 261.24 460.065 260.641C457.252 260.392 454.417 260.561 451.653 261.143Z" fill="#F7B699"/>
<path d="M472.64 250.931C469.123 255.378 467.284 260.922 467.445 266.59L474.798 269.53C475.648 265.643 476.483 261.756 477.333 257.883C477.584 256.712 478.628 254.219 477.96 253.257C477.291 252.296 473.824 251.446 472.64 250.931Z" fill="white"/>
<path d="M497.916 260.14C495.888 258.889 493.775 257.781 491.593 256.824C487.805 255.124 483.837 253.731 480.035 252.407C478.586 251.846 477.102 251.381 475.592 251.014C471.414 255.431 470.022 262.926 470.509 269.196C474.868 273.027 481.246 275.284 486.051 278.293C488.686 280.084 491.484 281.623 494.406 282.891C497.34 284.173 500.613 284.457 503.723 283.699C504.533 283.514 505.296 283.16 505.96 282.661C506.625 282.162 507.177 281.528 507.581 280.801C507.963 279.837 508.124 278.799 508.054 277.764C507.919 274.224 506.926 270.77 505.16 267.7C503.394 264.63 500.907 262.035 497.916 260.14Z" fill="#545D78"/>
<path d="M426.141 284.646C425.313 283.195 424.811 281.58 424.672 279.915C424.532 278.25 424.758 276.574 425.333 275.005C425.504 274.41 425.804 273.859 426.214 273.394C426.623 272.929 427.131 272.561 427.7 272.316C428.428 272.165 429.185 272.235 429.873 272.518C430.56 272.802 431.147 273.284 431.558 273.905C432.348 275.159 432.98 276.507 433.438 277.917C434.051 279.409 434.856 280.814 435.833 282.097C436.999 283.268 437.868 284.701 438.368 286.276C438.475 286.929 438.426 287.597 438.225 288.227C438.024 288.856 437.677 289.429 437.212 289.899C433.689 293.382 427.812 287.656 426.141 284.646Z" fill="#F7B699"/>
<path d="M465.51 282.529L444.384 292.783L416.42 267.398L437.56 257.144L465.51 282.529Z" fill="#F4AE2D"/>
<path d="M462.056 281.47L443.91 290.275L419.748 268.346L437.908 259.541L462.056 281.47Z" fill="white"/>
<path d="M440.665 264.18L425.583 271.494L424.107 270.157L439.189 262.843L440.665 264.18Z" fill="#C8DDF7"/>
<path d="M448.367 271.174L433.285 278.488L431.808 277.151L446.89 269.837L448.367 271.174Z" fill="#C8DDF7"/>
<path d="M450.915 273.501L435.833 280.815L434.371 279.478L449.453 272.163L450.915 273.501Z" fill="#C8DDF7"/>
<path d="M453.478 275.813L438.396 283.128L436.919 281.79L452.001 274.476L453.478 275.813Z" fill="#C8DDF7"/>
<path d="M456.026 278.126L440.944 285.44L439.468 284.117L454.55 276.802L456.026 278.126Z" fill="#C8DDF7"/>
<path d="M458.575 280.453L443.493 287.767L442.016 286.43L457.112 279.115L458.575 280.453Z" fill="#C8DDF7"/>
<path d="M437.003 261.603L424.316 267.761L418.927 262.857L431.613 256.713L437.003 261.603Z" fill="#485070"/>
<path d="M428.299 282.334C428.089 282.578 427.898 282.839 427.728 283.114C426.127 285.677 429.218 288.074 431.196 289.453C435.652 292.602 441.111 294.106 446.306 295.611C449.23 296.475 457.697 294.385 455.358 289.787C453.756 286.639 449.035 284.841 445.93 283.992C442.699 283.392 439.941 282.041 438.73 278.781C438.201 277.388 437.978 275.772 437.504 274.295C437.42 273.92 437.232 273.577 436.961 273.306C436.828 273.168 436.651 273.081 436.461 273.058C436.271 273.035 436.079 273.078 435.917 273.18C435.76 273.332 435.649 273.525 435.596 273.737C434.691 276.259 436.307 278.126 433.201 279.603C432.17 280.091 431.042 280.369 430.04 280.926C429.38 281.288 428.791 281.764 428.299 282.334Z" fill="#F7B699"/>
<path d="M443.869 279.589C440.851 284.391 439.618 290.102 440.387 295.722L448.019 297.84L449.272 285.984C449.397 284.8 450.163 282.222 449.411 281.33C448.659 280.439 445.108 280.035 443.869 279.589Z" fill="white"/>
<path d="M496.147 233.557C497.792 232.384 499.767 231.765 501.787 231.788L517.273 230.395C518.248 233.85 519.227 237.305 520.212 240.76C520.212 240.607 503.5 241.276 501.871 241.22C500.241 241.164 494.755 241.722 494.058 240.147C493.362 238.573 494.866 234.714 496.147 233.557Z" fill="white"/>
<path d="M530.085 319.686C530.085 314.113 530.406 308.679 530.754 303.19C531.213 296.043 531.756 288.896 531.84 281.735C532.067 272.824 531.475 263.912 530.071 255.11C529.7 252.918 529.236 250.759 528.679 248.632C528.567 248.2 528.456 247.74 528.331 247.239C526.673 243.282 523.554 238.044 519.39 235.717C518.699 235.668 518.006 235.668 517.315 235.717C512.524 236.033 507.762 236.557 503.027 237.291C499.768 237.793 497.456 238.211 495.061 240.705C488.947 247.085 483.21 261.352 481.608 270.115C480.09 278.474 480.689 278.976 479.812 287.433C478.781 297.492 477.319 307.495 475.425 317.442C473.824 325.802 471.442 334.913 464.493 339.845C476.024 344.68 487.694 349.598 500.047 351.492C512.399 353.387 525.699 352.133 536.255 345.362C531.255 337.783 530.057 328.797 530.085 319.686Z" fill="#757E96"/>
<path d="M501.565 263.024C501.142 262.068 500.48 261.238 499.643 260.613C498.688 260.04 497.576 259.787 496.468 259.889C491.635 260.098 487.805 264.069 485.229 268.137C482.653 272.205 480.647 276.858 476.971 280.007C470.551 285.482 455.079 281.01 447.893 279.408C442.42 284.772 441.835 290.958 444.676 298.174C454.313 302.354 474.59 312.469 485.062 307.453C488.648 305.564 491.641 302.719 493.71 299.233C494.995 297.234 496.167 295.164 497.22 293.033C499.791 288.434 501.744 283.516 503.027 278.405C504.321 273.262 503.804 267.83 501.565 263.024Z" fill="#757E96"/>
<path d="M505.854 245.609C504.222 244.006 502.1 242.997 499.828 242.744C497.555 242.492 495.263 243.01 493.32 244.215C491.05 245.609 489.894 248.576 488.725 250.903C487.294 253.758 486.074 256.715 485.076 259.75C484.045 262.884 483.252 266.103 482.291 269.251C480.703 274.434 478.642 279.464 477.458 284.744C476.275 290.024 476.066 295.694 477.987 300.724C480.773 307.927 490.284 304.095 494.504 300.097C498.125 296.656 499.865 291.738 501.467 286.987C503.068 282.236 504.726 277.471 506.341 272.707C508.052 268.05 509.138 263.187 509.572 258.245C509.795 253.564 508.959 248.924 505.854 245.609Z" fill="#757E96"/>
<path d="M480.23 275.479C482.491 264.914 486.436 254.781 491.914 245.469" stroke="#485070" stroke-width="0.75" stroke-miterlimit="10"/>
<path d="M509.112 266.451L502.887 283.17C501.397 287.182 499.991 292.309 497.164 295.625C494.337 298.941 491.719 302.521 488.265 305.238C484.974 308.024 480.748 309.458 476.442 309.25" stroke="#485070" stroke-width="0.75" stroke-miterlimit="10"/>
<path d="M511.382 267.942C509.497 269.007 507.948 270.581 506.912 272.484" stroke="#485070" stroke-width="0.75" stroke-miterlimit="10"/>
<path d="M446.319 265.49L443.827 266.883L445.094 264.347L460.12 248.785C460.198 248.705 460.291 248.642 460.394 248.598C460.497 248.555 460.607 248.532 460.719 248.532C460.831 248.532 460.941 248.555 461.044 248.598C461.147 248.642 461.24 248.705 461.318 248.785C461.476 248.944 461.565 249.16 461.565 249.384C461.565 249.609 461.476 249.824 461.318 249.983L446.319 265.49Z" fill="#485070"/>
</g>
<defs>
<clipPath id="clip0_254_2528">
<rect width="602" height="560" fill="white"/>
</clipPath>
</defs>
</svg>
