<svg width="64" height="64" viewBox="0 0 64 64" fill="none" xmlns="http://www.w3.org/2000/svg">
<rect width="64" height="64" rx="8" fill="#3E0AD0"/>
<path d="M24.1569 30.0392H17.8824C14.6336 30.0392 12 27.4056 12 24.1569V17.8824C12 14.6336 14.6336 12 17.8824 12H24.1569C27.4056 12 30.0392 14.6336 30.0392 17.8824V24.1569C30.0392 27.4056 27.4056 30.0392 24.1569 30.0392ZM17.8824 14.3529C15.9331 14.3529 14.3529 15.9331 14.3529 17.8824V24.1569C14.3529 26.1061 15.9331 27.6863 17.8824 27.6863H24.1569C26.1061 27.6863 27.6863 26.1061 27.6863 24.1569V17.8824C27.6863 15.9331 26.1061 14.3529 24.1569 14.3529H17.8824Z" fill="white"/>
<path d="M24.1569 51.9999H17.8824C14.6336 51.9999 12 49.3663 12 46.1176V39.843C12 36.5943 14.6336 33.9607 17.8824 33.9607H24.1569C27.4056 33.9607 30.0392 36.5943 30.0392 39.843V46.1176C30.0392 49.3663 27.4056 51.9999 24.1569 51.9999ZM17.8824 36.3136C15.9331 36.3136 14.3529 37.8938 14.3529 39.843V46.1176C14.3529 48.0668 15.9331 49.647 17.8824 49.647H24.1569C26.1061 49.647 27.6863 48.0668 27.6863 46.1176V39.843C27.6863 37.8938 26.1061 36.3136 24.1569 36.3136H17.8824Z" fill="white"/>
<path d="M46.1177 51.9999H39.8431C36.5944 51.9999 33.9608 49.3663 33.9608 46.1176V39.843C33.9608 36.5943 36.5944 33.9607 39.8431 33.9607H46.1177C49.3664 33.9607 52 36.5943 52 39.843V46.1176C52 49.3663 49.3664 51.9999 46.1177 51.9999ZM39.8431 36.3136C37.8939 36.3136 36.3137 37.8938 36.3137 39.843V46.1176C36.3137 48.0668 37.8939 49.647 39.8431 49.647H46.1177C48.0669 49.647 49.6471 48.0668 49.6471 46.1176V39.843C49.6471 37.8938 48.0669 36.3136 46.1177 36.3136H39.8431Z" fill="white"/>
<path d="M46.1177 30.0392H39.8431C36.5944 30.0392 33.9608 27.4056 33.9608 24.1569V17.8824C33.9608 14.6336 36.5944 12 39.8431 12H46.1177C49.3664 12 52 14.6336 52 17.8824V24.1569C52 27.4056 49.3664 30.0392 46.1177 30.0392ZM39.8431 14.3529C37.8939 14.3529 36.3137 15.9331 36.3137 17.8824V24.1569C36.3137 26.1061 37.8939 27.6863 39.8431 27.6863H46.1177C48.0669 27.6863 49.6471 26.1061 49.6471 24.1569V17.8824C49.6471 15.9331 48.0669 14.3529 46.1177 14.3529H39.8431Z" fill="white"/>
</svg>
