<svg width="64" height="64" viewBox="0 0 64 64" fill="none" xmlns="http://www.w3.org/2000/svg">
<rect width="64" height="64" rx="8" fill="#0AC0D1"/>
<path d="M51.1507 22.351L43.2997 12.3938C43.1027 12.1455 42.8116 12 42.4949 12H21.8784C21.5616 12 21.2705 12.1455 21.0736 12.3938L13.2226 22.351C13.0771 22.5308 13 22.7534 13 22.9846V50.9726C13 51.5377 13.4623 52 14.0274 52H50.3373C50.9024 52 51.3647 51.5377 51.3647 50.9726V22.9846C51.3733 22.7534 51.2962 22.5308 51.1507 22.351ZM48.3596 22.1284H33.214V14.0548H41.9983L48.3596 22.1284ZM22.375 14.0548H31.1592V22.1284H16.0137L22.375 14.0548ZM15.0548 49.9452V24.1832H49.3099V49.9452H15.0548Z" fill="white"/>
<path d="M37.0582 32.4538L30.1747 39.3374L27.3151 36.4778C26.9127 36.0754 26.262 36.0754 25.8596 36.4778C25.4572 36.8802 25.4572 37.5309 25.8596 37.9333L29.4469 41.5206C29.6438 41.7175 29.9093 41.8202 30.1747 41.8202C30.4401 41.8202 30.6969 41.7175 30.9024 41.5206L38.5051 33.9179C38.9075 33.5155 38.9075 32.8648 38.5051 32.4624C38.1113 32.0514 37.4606 32.0514 37.0582 32.4538Z" fill="white"/>
</svg>
