<svg width="62" height="64" viewBox="0 0 62 64" fill="none" xmlns="http://www.w3.org/2000/svg">
<path d="M54.9547 32.5665V31.4335L60.5986 22.8854C61.1204 22.0951 61.1508 21.078 60.6773 20.2579L55.7606 11.742C55.2872 10.9219 54.3909 10.4389 53.4457 10.4965L43.2211 11.1103L42.2397 10.5436L37.6588 1.38188C37.2355 0.535 36.3697 0 35.4228 0H25.5895C24.6425 0 23.777 0.535 23.3533 1.382L18.7726 10.5437L17.7912 11.1104L7.56647 10.4966C6.62022 10.4391 5.72509 10.9221 5.25159 11.7421L0.334968 20.258C-0.138532 21.0781 -0.108032 22.0952 0.413718 22.8855L6.05759 31.4336V32.5666L0.413718 41.1147C-0.108032 41.905 -0.138532 42.9221 0.334968 43.7422L5.25159 52.2581C5.72509 53.0783 6.62109 53.5611 7.56647 53.5036L17.7912 52.8899L18.7726 53.4565L23.3533 62.6183C23.777 63.465 24.6426 64 25.5896 64H35.423C36.3699 64 37.2356 63.465 37.6591 62.618L42.24 53.4562L43.2213 52.8896L53.446 53.5034C54.3909 53.5599 55.2873 53.0779 55.7608 52.2579L60.6776 43.742C61.1511 42.9219 61.1206 41.9047 60.5989 41.1145L54.9547 32.5665ZM52.2031 48.4199C42.7299 47.9825 42.507 47.5288 41.3715 48.1842L39.0896 49.5018C37.9547 50.1569 38.2327 50.5829 33.8778 59.0001H27.1347C22.7822 50.5876 23.058 50.157 21.923 49.5018L19.6411 48.1842C18.5058 47.5289 18.2736 47.9829 8.80934 48.4199L5.43772 42.5801C10.547 34.6045 11.0577 34.6285 11.0577 33.3174V30.6826C11.0577 29.3717 10.5483 29.3976 5.43772 21.4199L8.80934 15.5801C18.2781 16.0174 18.5062 16.4711 19.6411 15.8158L21.923 14.4983C23.0582 13.8429 22.7811 13.4146 27.1347 4.99988H33.8778C38.2303 13.4124 37.9546 13.843 39.0896 14.4983L41.3715 15.8158C42.5063 16.471 42.7297 16.0175 52.2031 15.5801L55.5747 21.4199C50.4655 29.3955 49.9547 29.3715 49.9547 30.6826V33.3174C49.9547 34.6283 50.4641 34.6024 55.5747 42.5801L52.2031 48.4199ZM30.5062 19.6666C23.7056 19.6666 18.1728 25.1994 18.1728 32C18.1728 38.8006 23.7056 44.3334 30.5062 44.3334C37.3068 44.3334 42.8396 38.8006 42.8396 32C42.8396 25.1994 37.3068 19.6666 30.5062 19.6666ZM30.5062 39.3334C26.4626 39.3334 23.1728 36.0436 23.1728 32C23.1728 27.9564 26.4626 24.6666 30.5062 24.6666C34.5498 24.6666 37.8396 27.9564 37.8396 32C37.8396 36.0436 34.5498 39.3334 30.5062 39.3334Z" fill="#EB5A4D"/>
</svg>
