<svg width="64" height="64" viewBox="0 0 64 64" fill="none" xmlns="http://www.w3.org/2000/svg">
<path d="M58.375 15.125H56.5V13.25C56.5 10.1484 53.9766 7.625 50.875 7.625H9.375C6.27338 7.625 3.75 10.1484 3.75 13.25V45.125H1.875C0.8395 45.125 0 45.9645 0 47V50.75C0 53.8516 2.52338 56.375 5.625 56.375H58.375C61.4766 56.375 64 53.8516 64 50.75V20.75C64 17.6484 61.4766 15.125 58.375 15.125ZM7.5 13.25C7.5 12.2161 8.34113 11.375 9.375 11.375H50.875C51.9089 11.375 52.75 12.2161 52.75 13.25V15.125H43.375C40.2734 15.125 37.75 17.6484 37.75 20.75V45.125H7.5V13.25ZM3.75 50.75V48.875H37.75V50.75C37.75 51.4072 37.8644 52.0381 38.0725 52.625H5.625C4.59113 52.625 3.75 51.7839 3.75 50.75ZM60.25 50.75C60.25 51.7839 59.4089 52.625 58.375 52.625H43.375C42.3411 52.625 41.5 51.7839 41.5 50.75V20.75C41.5 19.7161 42.3411 18.875 43.375 18.875H58.375C59.4089 18.875 60.25 19.7161 60.25 20.75V50.75Z" fill="#EB5A4D"/>
<path d="M52.75 45.125H49C47.9645 45.125 47.125 45.9645 47.125 47C47.125 48.0355 47.9645 48.875 49 48.875H52.75C53.7855 48.875 54.625 48.0355 54.625 47C54.625 45.9645 53.7855 45.125 52.75 45.125Z" fill="#EB5A4D"/>
<path d="M50.875 26.375C51.9105 26.375 52.75 25.5355 52.75 24.5C52.75 23.4645 51.9105 22.625 50.875 22.625C49.8395 22.625 49 23.4645 49 24.5C49 25.5355 49.8395 26.375 50.875 26.375Z" fill="#EB5A4D"/>
</svg>
