<svg width="64" height="64" viewBox="0 0 64 64" fill="none" xmlns="http://www.w3.org/2000/svg">
<path d="M32 4C37.5228 4 42.1841 8.47715 41.9923 14.3958C48.9302 17.9333 53.548 24.9217 53.9686 32.8193C57.5165 34.3534 60 37.8867 60 42C60 47.5228 55.5228 52 50 52C48.5176 52 47.1104 51.6774 45.845 51.0986C41.9672 54.243 37.1184 56 32 56C26.8824 56 22.0339 54.2437 18.1555 51.0987C16.891 51.6771 15.4832 52 14 52C8.47715 52 4 47.5228 4 42C4 37.8867 6.48345 34.3534 10.0327 32.8179C10.4524 24.9181 15.0738 17.9313 22.008 14.3948C21.8514 8.45268 26.4772 4 32 4V4ZM40.9833 18.3971L40.9577 18.4501C39.3203 21.7397 35.9241 24 32 24C28.0554 24 24.6443 21.7161 23.0168 18.3986C18.0879 21.2363 14.746 26.2728 14.1102 32.0027C19.5837 32.0611 24 36.5148 24 42C24 44.5391 23.0537 46.8571 21.4945 48.6208C24.5179 50.7969 28.1633 52 32 52C35.837 52 39.4825 50.7966 42.5062 48.6181C40.9456 46.8554 40 44.5381 40 42C40 36.6225 44.2446 32.2364 49.8897 32.0026C49.2544 26.2755 45.9153 21.2388 40.9833 18.3971V18.3971ZM14 36C10.6863 36 8 38.6863 8 42C8 45.3137 10.6863 48 14 48C17.3137 48 20 45.3137 20 42C20 38.6863 17.3137 36 14 36ZM50 36C46.6863 36 44 38.6863 44 42C44 45.3137 46.6863 48 50 48C53.3137 48 56 45.3137 56 42C56 38.6863 53.3137 36 50 36ZM32 8C28.6863 8 26 10.6863 26 14C26 17.3137 28.6863 20 32 20C35.3137 20 38 17.3137 38 14C38 10.6863 35.3137 8 32 8Z" fill="#EB5A4D"/>
</svg>
