<svg width="64" height="64" viewBox="0 0 64 64" fill="none" xmlns="http://www.w3.org/2000/svg">
<rect width="64" height="64" rx="8" fill="#0A3ED1"/>
<path d="M46.1329 17.863C42.3559 14.086 37.3364 12.0042 31.9959 12.0042C26.6554 12.0042 21.6359 14.086 17.8589 17.863C14.0819 21.64 12 26.6596 12 32C12 37.3405 14.0819 42.36 17.8589 46.137C21.6359 49.914 26.6554 51.9959 31.9959 51.9959C35.0981 51.9959 37.9288 51.4199 40.1753 50.3419C42.3065 49.3133 43.8535 47.8404 44.5365 46.2029C45.3512 44.2362 44.8904 42.1872 43.2775 40.5744L43.2199 40.5168C43.2446 40.4839 43.2775 40.4592 43.3022 40.4345C44.4542 39.2249 44.4542 37.6367 43.2857 36.4683L40.4386 33.6211C39.879 33.0451 39.2043 32.7324 38.4884 32.7324C37.7725 32.7324 37.0895 33.0369 36.5135 33.6129L35.0323 35.094C34.9582 35.0529 34.8924 35.02 34.8184 34.9871C34.6373 34.8966 34.4727 34.8143 34.3329 34.7238C32.827 33.7692 31.461 32.5184 30.1526 30.9138C29.5766 30.1897 29.1817 29.5725 28.8854 28.9636C29.2557 28.618 29.6013 28.2642 29.9387 27.9186C30.0786 27.7705 30.2267 27.6306 30.3748 27.4824C31.5845 26.2728 31.5845 24.7094 30.3748 23.4997L28.9677 22.0926C28.8031 21.928 28.6468 21.7717 28.4904 21.6071C28.1777 21.2862 27.8568 20.957 27.5112 20.6361C26.9517 20.0848 26.2851 19.7968 25.5775 19.7968C24.8698 19.7968 24.195 20.0848 23.619 20.6361C23.6108 20.6443 23.6108 20.6443 23.6026 20.6526L21.8334 22.4218C21.1257 23.1294 20.7143 24.0017 20.632 25.0056C20.5085 26.5691 20.9611 28.0173 21.315 28.9636C22.1625 31.2512 23.4297 33.3742 25.3141 35.6454C27.6017 38.3773 30.3584 40.5415 33.51 42.0638C34.7196 42.6398 36.3407 43.3146 38.1675 43.438C38.2827 43.4462 38.3979 43.4462 38.5131 43.4462C39.7885 43.4462 40.8665 42.9854 41.7058 42.072C41.7141 42.0638 41.7305 42.0473 41.7387 42.0391C41.7634 42.0062 41.7963 41.9733 41.8293 41.9404L41.8786 41.9897C42.9319 43.043 43.2199 44.2444 42.7097 45.4705C41.7634 47.717 38.0852 50.021 31.9959 50.021C22.0555 50.021 13.9749 41.9404 13.9749 32C13.9749 22.0597 22.0555 13.9791 31.9959 13.9791C41.9362 13.9791 50.0169 22.0597 50.0169 32C50.0169 33.6376 49.7947 35.2504 49.3668 36.8056C49.2187 37.3323 49.5314 37.8754 50.058 38.0235C50.5847 38.1716 51.1278 37.8589 51.2759 37.3323C51.7531 35.6042 52 33.8104 52 32C51.9918 26.6596 49.9099 21.64 46.1329 17.863ZM40.2411 40.7307C39.7721 41.2327 39.2454 41.4549 38.5131 41.4549C38.439 41.4549 38.365 41.4549 38.2909 41.4466C36.8097 41.3479 35.4108 40.7637 34.3658 40.2617C31.4775 38.8628 28.943 36.8797 26.8365 34.3617C25.1002 32.2716 23.9399 30.3378 23.1664 28.2642C22.7056 27.0134 22.5328 26.0589 22.5986 25.1537C22.648 24.6188 22.8455 24.1827 23.2323 23.8042L25.0014 22.0432C25.1413 21.9116 25.3553 21.7552 25.5857 21.7552C25.8161 21.7552 26.0136 21.9033 26.137 22.035C26.1452 22.0432 26.1535 22.0515 26.1617 22.0597C26.4744 22.3477 26.7706 22.6522 27.0833 22.9731C27.2479 23.1377 27.4125 23.3105 27.577 23.475L28.9842 24.8822C29.4203 25.3183 29.4203 25.6392 28.9842 26.0753C28.836 26.2234 28.6879 26.3716 28.5398 26.5197C28.1037 26.9558 27.7005 27.3755 27.2561 27.7704C27.2397 27.7787 27.2314 27.7951 27.215 27.8116C26.5978 28.4288 26.8118 29.0706 26.8776 29.2845C26.8858 29.3092 26.8941 29.3257 26.9023 29.3504C27.2808 30.2638 27.8074 31.1196 28.6139 32.1399L28.6221 32.1481C30.0704 33.9338 31.5927 35.3162 33.2796 36.386C33.5018 36.5259 33.7239 36.6411 33.9379 36.748C34.1189 36.8385 34.2835 36.9208 34.4234 37.0113C34.4481 37.0278 34.481 37.0443 34.5139 37.0607C34.7278 37.1677 34.9418 37.2171 35.1557 37.2171C35.5178 37.2171 35.8552 37.0689 36.1432 36.7727L37.9124 35.0035C38.0523 34.8636 38.258 34.6991 38.4884 34.6991C38.7023 34.6991 38.8998 34.8554 39.0233 34.9871C39.0315 34.9953 39.0315 34.9953 39.0397 35.0035L41.8869 37.8507C42.2901 38.2539 42.2901 38.6242 41.8704 39.0603L41.8622 39.0685C41.6729 39.2743 41.4672 39.4717 41.245 39.6857C40.9159 40.0066 40.5703 40.344 40.2411 40.7307Z" fill="white"/>
</svg>
