<svg width="64" height="64" viewBox="0 0 64 64" fill="none" xmlns="http://www.w3.org/2000/svg">
<path d="M52.1445 0H20.5666C17.0621 0 14.2111 2.69163 14.2111 6V8H9.84313C7.44825 8 5.5 9.94825 5.5 12.3431V59.6569C5.5 62.0518 7.44825 64 9.84313 64H45.4458C47.8406 64 49.7889 62.0518 49.7889 59.6569V56H52.1445C55.6489 56 58.5 53.3084 58.5 50V6C58.5 2.69163 55.6489 0 52.1445 0ZM45.7889 59.6569C45.7889 59.8461 45.635 60 45.4458 60H9.84313C9.65388 60 9.5 59.8461 9.5 59.6569V12.3431C9.5 12.1539 9.65388 12 9.84313 12H45.4458C45.635 12 45.7889 12.1539 45.7889 12.3431V59.6569ZM54.5 50C54.5 51.1027 53.4433 52 52.1445 52H49.7889V12.3431C49.7889 9.94825 47.8406 8 45.4458 8H18.2111V6C18.2111 4.89725 19.2679 4 20.5666 4H52.1445C53.4433 4 54.5 4.89725 54.5 6V50Z" fill="#EB5A4D"/>
<path d="M37.5 27H18.5C17.3955 27 16.5 26.1045 16.5 25C16.5 23.8955 17.3955 23 18.5 23H37.5C38.6045 23 39.5 23.8955 39.5 25C39.5 26.1045 38.6045 27 37.5 27Z" fill="#EB5A4D"/>
<path d="M37.5 35H18.5C17.3955 35 16.5 34.1045 16.5 33C16.5 31.8955 17.3955 31 18.5 31H37.5C38.6045 31 39.5 31.8955 39.5 33C39.5 34.1045 38.6045 35 37.5 35Z" fill="#EB5A4D"/>
<path d="M37.5 43H18.5C17.3955 43 16.5 42.1045 16.5 41C16.5 39.8955 17.3955 39 18.5 39H37.5C38.6045 39 39.5 39.8955 39.5 41C39.5 42.1045 38.6045 43 37.5 43Z" fill="#EB5A4D"/>
</svg>
