<svg width="64" height="64" viewBox="0 0 64 64" fill="none" xmlns="http://www.w3.org/2000/svg">
<rect width="64" height="64" rx="8" fill="#0A3ED1"/>
<path d="M46.8071 17.3012H43.4336V13.9277C43.4337 12.8674 42.5661 12 41.5064 12H16.9277C15.8674 12 15 12.8674 15 13.9277V44.771C15 45.8313 15.8674 46.6988 16.9277 46.6988H20.3012V50.0723C20.3012 51.1325 21.1683 52 22.229 52H38.614C39.6738 52 41.1736 51.4053 41.9451 50.6791L47.3302 45.6102C48.1027 44.8839 48.734 43.4217 48.734 42.3615L48.7349 19.229C48.7349 18.1687 47.8674 17.3012 46.8071 17.3012ZM20.3011 19.229V45.253H16.9277C16.6665 45.253 16.4458 45.0323 16.4458 44.7711V13.9277C16.4458 13.6666 16.6665 13.4459 16.9277 13.4459H41.5064C41.7671 13.4459 41.9883 13.6666 41.9883 13.9277V17.3012H22.2288C21.1681 17.3012 20.3011 18.1687 20.3011 19.229ZM46.3392 44.5575L40.9542 49.626C40.8439 49.7297 40.7002 49.8313 40.5416 49.9281V45.4939C40.5416 45.1628 40.6751 44.8649 40.8953 44.6433C41.1175 44.4231 41.4153 44.2892 41.7464 44.2892H46.5682C46.4934 44.3907 46.4168 44.4842 46.3392 44.5575ZM47.2881 42.3613C47.2881 42.5045 47.262 42.6703 47.2225 42.8432H41.7464C40.2838 42.8461 39.0987 44.0312 39.0957 45.4938V50.4957C38.9237 50.5305 38.7579 50.554 38.6139 50.554H22.2288V50.5541C21.9671 50.5541 21.7469 50.3334 21.7469 50.0722V19.2289C21.7469 18.9677 21.9672 18.747 22.2288 18.747H46.8071C47.0682 18.747 47.2889 18.9677 47.2889 19.2289L47.2881 42.3613Z" fill="white"/>
<path d="M41.5064 24.0481H27.5305C27.131 24.0481 26.8076 24.3715 26.8076 24.771C26.8076 25.1705 27.1311 25.4939 27.5305 25.4939H41.5064C41.9054 25.4939 42.2293 25.1705 42.2293 24.771C42.2293 24.3715 41.9054 24.0481 41.5064 24.0481Z" fill="white"/>
<path d="M41.5064 33.6868H27.5305C27.131 33.6868 26.8076 34.0101 26.8076 34.4097C26.8076 34.8092 27.1311 35.1325 27.5305 35.1325H41.5064C41.9054 35.1325 42.2293 34.8092 42.2293 34.4097C42.2293 34.01 41.9054 33.6868 41.5064 33.6868Z" fill="white"/>
<path d="M35.2413 38.5059H27.5305C27.131 38.5059 26.8076 38.8292 26.8076 39.2287C26.8076 39.6283 27.131 39.9516 27.5305 39.9516H35.2413C35.6404 39.9516 35.9637 39.6283 35.9637 39.2287C35.9637 38.8292 35.6404 38.5059 35.2413 38.5059Z" fill="white"/>
<path d="M41.5064 28.8674H27.5305C27.131 28.8674 26.8076 29.1908 26.8076 29.5903C26.8076 29.9899 27.1311 30.3132 27.5305 30.3132H41.5064C41.9054 30.3132 42.2293 29.9899 42.2293 29.5903C42.2293 29.1908 41.9054 28.8674 41.5064 28.8674Z" fill="white"/>
</svg>
