<svg width="64" height="64" viewBox="0 0 64 64" fill="none" xmlns="http://www.w3.org/2000/svg">
<rect width="64" height="64" rx="8" fill="#0A3ED1"/>
<path d="M51.6209 49.8238L41.2935 39.6615C43.9979 36.7233 45.6596 32.8374 45.6596 28.5614C45.6583 19.4142 38.124 12 28.8293 12C19.5347 12 12.0004 19.4142 12.0004 28.5614C12.0004 37.7085 19.5347 45.1227 28.8293 45.1227C32.8453 45.1227 36.5286 43.7337 39.4218 41.4244L49.7893 51.6267C50.2944 52.1244 51.1145 52.1244 51.6197 51.6267C52.126 51.1292 52.126 50.3215 51.6209 49.8238ZM28.8293 42.5747C20.965 42.5747 14.5898 36.3007 14.5898 28.5614C14.5898 20.822 20.965 14.5481 28.8293 14.5481C36.6937 14.5481 43.0689 20.822 43.0689 28.5614C43.0689 36.3007 36.6937 42.5747 28.8293 42.5747Z" fill="white"/>
</svg>
