<svg width="64" height="64" viewBox="0 0 64 64" fill="none" xmlns="http://www.w3.org/2000/svg">
<g clip-path="url(#clip0_624_51)">
<path d="M62.8134 52.9822L51.2601 41.7712C50.5116 41.0448 49.5238 40.6556 48.4765 40.6691C48.1291 40.6743 47.7898 40.7251 47.4645 40.8168L42.2488 35.7557C46.3766 29.512 47.2114 21.5752 44.4791 14.6106L46.2689 11.8217C46.7213 11.9312 47.1929 11.9907 47.6784 11.9907C50.984 11.9907 53.6734 9.30133 53.6734 5.99571C53.6734 2.69021 50.984 0.00095803 47.6784 0.00095803C44.3729 0.00095803 41.6836 2.69021 41.6836 5.99571C41.6836 7.36371 42.1451 8.62521 42.9193 9.63521L42.3644 10.5C41.9216 9.81858 41.4395 9.15371 40.9158 8.50921C37.0348 3.73408 31.5266 0.756208 25.4059 0.123833C19.2849 -0.508417 13.2845 1.28058 8.50938 5.16146C3.73413 9.04221 0.756006 14.5505 0.123756 20.6712C-0.441369 26.1417 0.929256 31.5156 3.99738 36.0051C1.67163 36.8301 0.00100617 39.0511 0.00100617 41.6561C0.00100617 44.9617 2.69026 47.6511 5.99576 47.6511C8.78213 47.6511 11.1305 45.7401 11.7995 43.16C14.499 44.6685 17.5025 45.6258 20.671 45.9532C21.4775 46.0366 22.2816 46.0778 23.0815 46.0778C27.5489 46.0777 31.8724 44.7891 35.6111 42.3441L40.7801 47.3072C40.5586 47.8136 40.4455 48.3662 40.454 48.9365C40.4698 49.9831 40.8908 50.9595 41.6391 51.6856L53.1926 62.8968C53.9515 63.633 54.9346 63.9993 55.9168 63.9993C56.9385 63.9993 57.9591 63.6027 58.7251 62.8135L62.8964 58.5147C64.3988 56.9666 64.3615 54.485 62.8134 52.9822V52.9822ZM47.6783 4.00096C48.7784 4.00096 49.6734 4.89583 49.6734 5.99583C49.6734 7.09596 48.7784 7.99096 47.6783 7.99096C46.5783 7.99096 45.6834 7.09596 45.6834 5.99583C45.6834 4.89583 46.5783 4.00096 47.6783 4.00096ZM44.3028 43.3222L43.3875 44.2655L38.788 39.8492C39.118 39.5405 39.4379 39.2245 39.7459 38.9005L44.3028 43.3222ZM4.10251 21.0822C4.62501 16.0242 7.08588 11.4725 11.032 8.26546C14.4583 5.48071 18.6474 3.99958 23.0026 3.99958C23.6633 3.99958 24.3285 4.03371 24.9946 4.10258C30.0526 4.62521 34.6044 7.08608 37.8115 11.0321C38.6455 12.0583 39.3544 13.146 39.9409 14.2765L32.923 25.2121C32.327 25.013 31.6904 24.9035 31.0284 24.9035C30.3081 24.9035 29.6173 25.0313 28.977 25.2652L25.0431 21.0375C25.435 20.2411 25.656 19.3461 25.656 18.4002C25.656 15.0947 22.9666 12.4055 19.661 12.4055C16.3555 12.4055 13.6663 15.0947 13.6663 18.4002C13.6663 19.8173 14.1616 21.1203 14.9868 22.1476L7.54501 34.0986C4.84038 30.3206 3.62088 25.7438 4.10251 21.0822V21.0822ZM31.0285 28.9032C32.1285 28.9032 33.0235 29.7981 33.0235 30.8981C33.0235 31.9982 32.1285 32.8932 31.0285 32.8932C29.9285 32.8932 29.0336 31.9982 29.0336 30.8981C29.0335 29.7981 29.9285 28.9032 31.0285 28.9032ZM17.6663 18.4001C17.6663 17.3001 18.5611 16.4052 19.6611 16.4052C20.7613 16.4052 21.6563 17.3001 21.6563 18.4001C21.6563 19.5001 20.7613 20.3951 19.6611 20.3951C18.561 20.3952 17.6663 19.5002 17.6663 18.4001ZM5.99588 43.6512C4.89588 43.6512 4.00101 42.7562 4.00101 41.6561C4.00101 40.5561 4.89588 39.6612 5.99588 39.6612C7.09588 39.6612 7.99088 40.5561 7.99088 41.6561C7.99088 42.7562 7.09588 43.6512 5.99588 43.6512ZM23.0741 42.0775C22.4135 42.0775 21.7484 42.0433 21.0821 41.9745C17.0248 41.5553 13.2938 39.8877 10.3208 37.2078L18.3851 24.257C18.7965 24.3465 19.2231 24.395 19.661 24.395C20.562 24.395 21.4165 24.194 22.184 23.8363L25.8883 27.8172C25.3463 28.7182 25.0338 29.7722 25.0338 30.8981C25.0338 34.2037 27.723 36.8931 31.0285 36.8931C34.3341 36.8931 37.0234 34.2037 37.0234 30.8981C37.0234 29.7175 36.6789 28.6165 36.0871 27.6875L41.6451 19.0266C43.0953 25.8062 40.7839 33.1472 35.0448 37.8115C31.6186 40.5962 27.4295 42.0776 23.0741 42.0775V42.0775ZM55.9156 59.9652L44.4875 48.8757L48.537 44.7023L59.9651 55.7918L55.9156 59.9652Z" fill="#EB5A4D"/>
</g>
<defs>
<clipPath id="clip0_624_51">
<rect width="64" height="64" fill="white"/>
</clipPath>
</defs>
</svg>
