<svg width="64" height="64" viewBox="0 0 64 64" fill="none" xmlns="http://www.w3.org/2000/svg">
<g clip-path="url(#clip0_253_2349)">
<path d="M61.5 14.8335C62.8809 14.8335 64 13.7144 64 12.3335V2.5C64 1.13916 62.8931 0 61.5 0H51.6665C50.2861 0 49.1665 1.11914 49.1665 2.5C49.1665 3.88086 50.2861 5 51.6665 5H55.4644L49.1255 11.3389C44.1216 4.36426 36.0913 0 27.0835 0C12.1147 0 0 12.1133 0 27.0835C0 42.0513 12.1133 54.167 27.0835 54.167C33.478 54.167 39.5327 51.9644 44.3853 47.9209L59.7324 63.2681C60.7085 64.2441 62.2915 64.2441 63.2676 63.2681C64.2442 62.2915 64.2442 60.7085 63.2676 59.7324L47.9209 44.3853C54.8218 36.104 55.8799 24.8857 51.7236 15.812L59 8.53564V12.333C59 13.7139 60.1192 14.8335 61.5 14.8335ZM27.0835 5C34.7788 5 41.5664 8.95752 45.521 14.9434L32 28.4644L23.9346 20.3989C22.958 19.4229 21.3755 19.4229 20.3989 20.3989L6.28662 34.5112C1.15479 20.1855 11.8272 5 27.0835 5ZM27.0835 49.1665C19.3877 49.1665 12.6006 45.209 8.646 39.2231L22.167 25.7021L30.2324 33.7676C31.2085 34.7441 32.7915 34.7441 33.7676 33.7676L47.8799 19.6553C53.0122 33.981 42.3399 49.1665 27.0835 49.1665Z" fill="#EB5A4D"/>
</g>
<defs>
<clipPath id="clip0_253_2349">
<rect width="64" height="64" fill="white"/>
</clipPath>
</defs>
</svg>
