<svg width="683" height="367" viewBox="0 0 683 367" fill="none" xmlns="http://www.w3.org/2000/svg">
<g clip-path="url(#clip0_238_1523)">
<path d="M609.258 125.532C582.399 102.605 550.02 -35.6656 439.095 36.3511C381.786 73.5584 285.152 4.40965 205.168 28.2913C131.71 50.2263 124.628 122.495 131.737 146.043C146.094 193.615 101.412 200.69 59.9674 221.127C-5.05424 253.186 42.7558 365.852 104.182 366.391C165.608 366.929 537.688 365.316 537.688 365.316C537.688 365.316 626.912 365.543 664.015 316.262C703.943 263.231 678.631 184.748 609.258 125.532Z" fill="#D9E9FE"/>
<path d="M496.074 297.567H648.987V40.4631H496.074V297.567Z" fill="#AED3FF"/>
<path d="M644.192 40.4631H491.282V297.567H644.192V40.4631Z" fill="#739AF0"/>
<path d="M634.144 54.8276H501.696V144.38H634.144V54.8276Z" fill="#F3F9FF"/>
<path d="M631.86 228.419H560.776V276.234H631.86V228.419Z" fill="#F3F9FF"/>
<path d="M507.155 100.54C507.155 100.54 529.77 97.7216 543.589 110.462C557.407 123.203 583.151 111.591 593.516 110.462C611.547 108.499 625.663 114.399 629.852 120.884V140.342H507.155V100.54Z" fill="#FB7369"/>
<path d="M525.634 69.2222H524.686V99.6053H525.634V69.2222Z" fill="#A6C7F9"/>
<path d="M562.822 82.258H561.874V112.641H562.822V82.258Z" fill="#A6C7F9"/>
<path d="M601.193 75.3847H600.245V105.768H601.193V75.3847Z" fill="#A6C7F9"/>
<path d="M536.212 73.881H528.948C528.739 73.8803 528.538 73.7968 528.39 73.6488C528.243 73.5007 528.159 73.3002 528.158 73.0909C528.159 72.8815 528.243 72.681 528.39 72.533C528.538 72.3849 528.739 72.3015 528.948 72.3007H536.212C536.421 72.3015 536.622 72.3849 536.77 72.533C536.918 72.681 537.001 72.8815 537.002 73.0909C537.001 73.3002 536.918 73.5007 536.77 73.6488C536.622 73.7968 536.421 73.8803 536.212 73.881Z" fill="#A6C7F9"/>
<path d="M536.212 76.7271H528.948C528.739 76.7264 528.538 76.6429 528.39 76.4949C528.243 76.3469 528.159 76.1463 528.158 75.937C528.159 75.7277 528.243 75.5271 528.39 75.3791C528.538 75.231 528.739 75.1476 528.948 75.1469H536.212C536.421 75.1476 536.622 75.231 536.77 75.3791C536.918 75.5271 537.001 75.7277 537.002 75.937C537.001 76.1463 536.918 76.3469 536.77 76.4949C536.622 76.6429 536.421 76.7264 536.212 76.7271Z" fill="#A6C7F9"/>
<path d="M572.848 89.3692H565.584C565.375 89.3685 565.174 89.285 565.026 89.137C564.879 88.989 564.795 88.7884 564.794 88.5791C564.795 88.3697 564.879 88.1692 565.026 88.0211C565.174 87.8731 565.375 87.7896 565.584 87.7889H572.848C573.057 87.7896 573.258 87.8731 573.406 88.0211C573.554 88.1692 573.637 88.3697 573.638 88.5791C573.637 88.7884 573.554 88.989 573.406 89.137C573.258 89.285 573.057 89.3685 572.848 89.3692Z" fill="#A6C7F9"/>
<path d="M572.848 92.1552H565.584C565.375 92.1544 565.174 92.071 565.026 91.9229C564.879 91.7749 564.795 91.5744 564.794 91.365C564.795 91.1557 564.879 90.9551 565.026 90.8071C565.174 90.6591 565.375 90.5756 565.584 90.5749H572.848C573.057 90.5756 573.258 90.6591 573.406 90.8071C573.554 90.9551 573.637 91.1557 573.638 91.365C573.637 91.5744 573.554 91.7749 573.406 91.9229C573.258 92.071 573.057 92.1544 572.848 92.1552Z" fill="#A6C7F9"/>
<path d="M611.853 77.9109H604.589C604.38 77.9102 604.179 77.8267 604.031 77.6787C603.883 77.5307 603.8 77.3301 603.799 77.1208C603.8 76.9115 603.883 76.7109 604.031 76.5629C604.179 76.4149 604.38 76.3314 604.589 76.3307H611.853C612.062 76.3314 612.263 76.4149 612.411 76.5629C612.559 76.7109 612.642 76.9115 612.643 77.1208C612.642 77.3301 612.559 77.5307 612.411 77.6787C612.263 77.8267 612.062 77.9102 611.853 77.9109Z" fill="#A6C7F9"/>
<path d="M611.853 80.6969H604.589C604.38 80.6962 604.179 80.6127 604.031 80.4647C603.883 80.3167 603.8 80.1161 603.799 79.9068C603.8 79.6974 603.883 79.4969 604.031 79.3489C604.179 79.2008 604.38 79.1174 604.589 79.1166H611.853C612.062 79.1174 612.263 79.2008 612.411 79.3489C612.559 79.4969 612.642 79.6974 612.643 79.9068C612.642 80.1161 612.559 80.3167 612.411 80.4647C612.263 80.6127 612.062 80.6962 611.853 80.6969Z" fill="#A6C7F9"/>
<path d="M634.018 169.408C635.175 162.273 630.333 155.55 623.204 154.392C616.074 153.234 609.357 158.079 608.199 165.214C607.042 172.349 611.884 179.071 619.013 180.23C626.143 181.388 632.86 176.543 634.018 169.408Z" fill="#F3F9FF"/>
<path d="M633.034 167.286C633.034 169.611 632.357 171.885 631.087 173.832C629.817 175.779 628.009 177.314 625.882 178.249C623.755 179.185 621.402 179.482 619.11 179.103C616.818 178.723 614.686 177.685 612.973 176.114L621.066 167.286V155.308C624.24 155.309 627.284 156.571 629.528 158.817C631.772 161.063 633.034 164.109 633.034 167.286Z" fill="#FB7369"/>
<path d="M616.506 165.175H612.209C612.113 165.175 612.022 165.138 611.954 165.071C611.887 165.003 611.849 164.912 611.848 164.817C611.848 164.721 611.886 164.63 611.953 164.562C612.021 164.494 612.113 164.456 612.209 164.456H616.506C616.602 164.456 616.693 164.494 616.761 164.562C616.829 164.63 616.867 164.721 616.867 164.817C616.866 164.912 616.827 165.003 616.76 165.071C616.692 165.138 616.601 165.175 616.506 165.175Z" fill="#A6C7F9"/>
<path d="M575.518 167.286C575.518 164.697 576.285 162.167 577.722 160.015C579.159 157.862 581.201 156.185 583.591 155.194C585.981 154.204 588.61 153.945 591.147 154.45C593.684 154.955 596.014 156.201 597.843 158.031C599.672 159.862 600.918 162.194 601.422 164.733C601.927 167.271 601.668 169.903 600.678 172.294C599.688 174.686 598.012 176.73 595.861 178.168C593.711 179.606 591.182 180.374 588.596 180.374C585.127 180.374 581.801 178.995 579.348 176.54C576.895 174.086 575.518 170.757 575.518 167.286Z" fill="#F3F9FF"/>
<path d="M588.596 167.286L595.95 176.737C593.853 178.372 591.271 179.261 588.612 179.265C585.954 179.268 583.37 178.386 581.268 176.757C579.166 175.127 577.666 172.844 577.004 170.268C576.343 167.691 576.557 164.967 577.614 162.525C578.671 160.084 580.51 158.064 582.841 156.785C585.172 155.506 587.862 155.039 590.487 155.46C593.113 155.88 595.523 157.163 597.339 159.106C599.155 161.05 600.272 163.543 600.515 166.192L588.596 167.286Z" fill="#E57970"/>
<path d="M597.813 170.258H594.808C594.713 170.258 594.622 170.22 594.554 170.153C594.487 170.086 594.448 169.995 594.448 169.9C594.448 169.852 594.457 169.805 594.475 169.762C594.493 169.718 594.52 169.678 594.553 169.644C594.587 169.611 594.627 169.584 594.67 169.566C594.714 169.548 594.761 169.539 594.808 169.539H597.813C597.909 169.539 598 169.578 598.067 169.645C598.134 169.713 598.171 169.804 598.171 169.9C598.171 169.995 598.134 170.086 598.067 170.153C597.999 170.22 597.908 170.258 597.813 170.258Z" fill="#A6C7F9"/>
<path d="M607.987 203.339C607.987 200.751 608.754 198.221 610.191 196.068C611.628 193.916 613.671 192.239 616.061 191.248C618.45 190.257 621.08 189.998 623.617 190.503C626.154 191.008 628.484 192.255 630.313 194.085C632.142 195.915 633.388 198.247 633.892 200.786C634.397 203.325 634.138 205.956 633.148 208.348C632.158 210.739 630.482 212.783 628.331 214.221C626.181 215.66 623.652 216.427 621.065 216.427C617.597 216.427 614.27 215.048 611.818 212.594C609.365 210.139 607.987 206.81 607.987 203.339Z" fill="#F3F9FF"/>
<path d="M633.034 203.339C633.034 205.664 632.357 207.939 631.087 209.886C629.817 211.832 628.009 213.367 625.882 214.303C623.755 215.239 621.402 215.535 619.11 215.156C616.818 214.777 614.686 213.739 612.973 212.168L621.066 203.339V191.362C624.24 191.362 627.284 192.625 629.528 194.871C631.772 197.117 633.034 200.163 633.034 203.339Z" fill="#FB7369"/>
<path d="M616.506 201.223H612.209C612.113 201.223 612.022 201.184 611.954 201.117C611.887 201.049 611.849 200.958 611.848 200.862C611.848 200.767 611.886 200.675 611.953 200.607C612.021 200.54 612.113 200.502 612.209 200.502H616.506C616.602 200.502 616.693 200.54 616.761 200.607C616.829 200.675 616.867 200.767 616.867 200.862C616.866 200.958 616.828 201.049 616.76 201.117C616.693 201.184 616.601 201.223 616.506 201.223Z" fill="#A6C7F9"/>
<path d="M575.518 203.339C575.518 200.751 576.285 198.221 577.722 196.068C579.159 193.916 581.201 192.239 583.591 191.248C585.981 190.257 588.61 189.998 591.147 190.503C593.684 191.008 596.014 192.255 597.843 194.085C599.672 195.915 600.918 198.247 601.422 200.786C601.927 203.325 601.668 205.956 600.678 208.348C599.688 210.739 598.012 212.783 595.861 214.221C593.711 215.66 591.182 216.427 588.596 216.427C585.127 216.427 581.801 215.048 579.348 212.594C576.895 210.139 575.518 206.81 575.518 203.339Z" fill="#F3F9FF"/>
<path d="M600.516 202.246C600.272 199.597 599.155 197.105 597.339 195.162C595.524 193.22 593.114 191.937 590.489 191.517C587.865 191.097 585.175 191.563 582.845 192.842C580.515 194.122 578.676 196.141 577.619 198.581C576.563 201.022 576.348 203.745 577.01 206.321C577.671 208.897 579.17 211.18 581.272 212.809C583.373 214.438 585.956 215.32 588.614 215.317C591.272 215.313 593.853 214.425 595.95 212.791L588.596 203.339L600.516 202.246Z" fill="#FB7369"/>
<path d="M597.813 206.295H594.808C594.713 206.294 594.622 206.256 594.554 206.188C594.487 206.121 594.448 206.029 594.448 205.934C594.448 205.887 594.457 205.84 594.475 205.796C594.493 205.752 594.52 205.712 594.553 205.679C594.587 205.645 594.627 205.619 594.67 205.601C594.714 205.582 594.761 205.573 594.808 205.573H597.813C597.909 205.574 598 205.612 598.067 205.68C598.134 205.747 598.171 205.839 598.171 205.934C598.171 206.029 598.134 206.121 598.067 206.188C598 206.256 597.909 206.294 597.813 206.295Z" fill="#A6C7F9"/>
<path d="M628.795 272.893H563.549V234.31H564.36V272.081H628.795V272.893Z" fill="#A6C7F9"/>
<path d="M583.946 258.938C575.958 252.576 567.464 258.938 567.464 258.938V269.817H627.174V241.7C610.949 242.11 591.932 265.3 583.946 258.938Z" fill="#A6C7F9"/>
<path d="M568.147 237.241H595.972C596.153 237.241 596.327 237.169 596.455 237.041C596.583 236.913 596.655 236.739 596.655 236.558C596.655 236.376 596.583 236.203 596.455 236.074C596.327 235.946 596.153 235.874 595.972 235.874H568.147C567.966 235.874 567.792 235.946 567.664 236.074C567.536 236.203 567.464 236.376 567.464 236.558C567.464 236.739 567.536 236.913 567.664 237.041C567.792 237.169 567.966 237.241 568.147 237.241Z" fill="#A6C7F9"/>
<path d="M568.147 240.596H595.972C596.143 240.581 596.301 240.502 596.417 240.375C596.533 240.249 596.597 240.084 596.597 239.912C596.597 239.741 596.533 239.576 596.417 239.449C596.301 239.323 596.143 239.244 595.972 239.229H568.147C567.976 239.244 567.817 239.323 567.702 239.449C567.586 239.576 567.522 239.741 567.522 239.912C567.522 240.084 567.586 240.249 567.702 240.375C567.817 240.502 567.976 240.581 568.147 240.596Z" fill="#A6C7F9"/>
<path d="M586.446 242.384H568.024C567.715 242.384 567.464 242.635 567.464 242.944V243.19C567.464 243.5 567.715 243.751 568.024 243.751H586.446C586.755 243.751 587.006 243.5 587.006 243.19V242.944C587.006 242.635 586.755 242.384 586.446 242.384Z" fill="#A6C7F9"/>
<path d="M465.981 0.5H256.759V316.262H465.981V0.5Z" fill="#739AF0"/>
<path d="M445.425 18.1617H276.976V206.057H445.425V18.1617Z" fill="#F3F9FF"/>
<path d="M280.554 266.088C280.554 260.091 282.33 254.23 285.659 249.244C288.987 244.258 293.719 240.371 299.254 238.076C304.79 235.781 310.881 235.18 316.758 236.35C322.635 237.519 328.033 240.407 332.271 244.646C336.508 248.886 339.393 254.288 340.562 260.169C341.732 266.051 341.132 272.146 338.839 277.686C336.546 283.226 332.663 287.962 327.681 291.293C322.699 294.624 316.842 296.403 310.85 296.403C302.815 296.403 295.11 293.209 289.429 287.524C283.747 281.839 280.555 274.128 280.554 266.088Z" fill="#F3F9FF"/>
<path d="M336.451 266.088C336.451 260.306 334.498 254.694 330.908 250.164C327.318 245.634 322.302 242.452 316.677 241.135C311.051 239.818 305.146 240.444 299.921 242.91C294.695 245.377 290.457 249.539 287.894 254.721C285.332 259.903 284.595 265.8 285.805 271.453C287.015 277.107 290.099 282.185 294.558 285.862C299.016 289.54 304.586 291.6 310.362 291.709C316.139 291.818 321.782 289.968 326.376 286.462L310.844 266.088L334.774 275.228C335.887 272.309 336.455 269.211 336.451 266.088Z" fill="#FB7369"/>
<path d="M383.772 266.088C383.772 260.091 385.548 254.23 388.877 249.244C392.205 244.258 396.936 240.371 402.472 238.076C408.008 235.781 414.099 235.18 419.976 236.35C425.853 237.519 431.251 240.407 435.488 244.646C439.725 248.886 442.611 254.288 443.78 260.169C444.949 266.051 444.35 272.146 442.057 277.686C439.764 283.226 435.881 287.962 430.899 291.293C425.917 294.624 420.059 296.403 414.067 296.403C406.033 296.403 398.328 293.209 392.646 287.524C386.965 281.839 383.773 274.128 383.772 266.088Z" fill="#F3F9FF"/>
<path d="M414.067 240.459C409.02 240.46 404.085 241.953 399.883 244.751C395.682 247.55 392.399 251.528 390.45 256.187C388.5 260.846 387.969 265.977 388.924 270.937C389.879 275.897 392.277 280.464 395.818 284.064L414.067 266.088L437.997 275.228C439.474 271.346 439.987 267.164 439.491 263.041C438.996 258.918 437.508 254.976 435.154 251.556C432.8 248.136 429.651 245.339 425.978 243.406C422.305 241.473 418.217 240.462 414.067 240.459Z" fill="#FB7369"/>
<path d="M410.325 253.077H399.424C399.218 253.077 399.02 253.16 398.874 253.306C398.728 253.452 398.646 253.649 398.645 253.856C398.646 254.062 398.728 254.26 398.874 254.406C399.02 254.552 399.218 254.634 399.424 254.635H410.325C410.531 254.634 410.729 254.552 410.874 254.406C411.02 254.26 411.102 254.062 411.103 253.856C411.102 253.649 411.02 253.452 410.874 253.306C410.729 253.16 410.531 253.077 410.325 253.077Z" fill="#A6C7F9"/>
<path d="M410.325 255.543H399.424C399.217 255.543 399.019 255.625 398.873 255.771C398.727 255.917 398.645 256.115 398.645 256.322C398.645 256.529 398.727 256.727 398.873 256.873C399.019 257.019 399.217 257.101 399.424 257.101H410.325C410.531 257.101 410.729 257.019 410.875 256.873C411.021 256.727 411.103 256.529 411.103 256.322C411.103 256.115 411.021 255.917 410.875 255.771C410.729 255.625 410.531 255.543 410.325 255.543Z" fill="#A6C7F9"/>
<path d="M403.932 258.02H399.424C399.217 258.02 399.019 258.102 398.873 258.248C398.727 258.394 398.645 258.592 398.645 258.799C398.645 259.006 398.727 259.204 398.873 259.35C399.019 259.496 399.217 259.578 399.424 259.578H403.932C404.138 259.578 404.336 259.496 404.482 259.35C404.628 259.204 404.71 259.006 404.71 258.799C404.71 258.592 404.628 258.394 404.482 258.248C404.336 258.102 404.138 258.02 403.932 258.02Z" fill="#A6C7F9"/>
<path d="M306.899 253.077H295.996C295.79 253.077 295.592 253.16 295.447 253.306C295.302 253.452 295.22 253.65 295.22 253.856C295.22 254.062 295.302 254.26 295.447 254.406C295.592 254.552 295.79 254.634 295.996 254.635H306.899C307.106 254.634 307.303 254.552 307.449 254.406C307.595 254.26 307.677 254.062 307.678 253.856C307.677 253.649 307.595 253.452 307.449 253.306C307.303 253.16 307.106 253.077 306.899 253.077Z" fill="#A6C7F9"/>
<path d="M306.899 255.543H295.996C295.789 255.543 295.591 255.625 295.445 255.771C295.299 255.917 295.217 256.115 295.217 256.322C295.217 256.529 295.299 256.727 295.445 256.873C295.591 257.019 295.789 257.101 295.996 257.101H306.899C307.106 257.101 307.304 257.019 307.45 256.873C307.596 256.727 307.678 256.529 307.678 256.322C307.678 256.115 307.596 255.917 307.45 255.771C307.304 255.625 307.106 255.543 306.899 255.543Z" fill="#A6C7F9"/>
<path d="M300.498 258.02H295.996C295.789 258.02 295.591 258.102 295.445 258.248C295.299 258.394 295.217 258.592 295.217 258.799C295.217 259.006 295.299 259.204 295.445 259.35C295.591 259.496 295.789 259.578 295.996 259.578H300.498C300.705 259.578 300.903 259.496 301.049 259.35C301.195 259.204 301.277 259.006 301.277 258.799C301.277 258.592 301.195 258.394 301.049 258.248C300.903 258.102 300.705 258.02 300.498 258.02Z" fill="#A6C7F9"/>
<path d="M309.749 85.3119H291.974V196.122H309.749V85.3119Z" fill="#A6C7F9"/>
<path d="M338.869 54.4257H321.095V196.124H338.869V54.4257Z" fill="#A6C7F9"/>
<path d="M370.645 112.111H352.871V196.124H370.645V112.111Z" fill="#A6C7F9"/>
<path d="M401.566 73.3424H383.791V196.124H401.566V73.3424Z" fill="#A6C7F9"/>
<path d="M432.645 128.553H414.871V196.122H432.645V128.553Z" fill="#A6C7F9"/>
<path d="M400.722 57.3676H385.668C385.255 57.3676 384.859 57.5317 384.567 57.824C384.275 58.1163 384.111 58.5126 384.111 58.9259C384.111 59.3392 384.275 59.7356 384.567 60.0279C384.859 60.3201 385.255 60.4843 385.668 60.4843H400.722C401.135 60.4843 401.531 60.3201 401.823 60.0279C402.115 59.7356 402.279 59.3392 402.279 58.9259C402.279 58.5126 402.115 58.1163 401.823 57.824C401.531 57.5317 401.135 57.3676 400.722 57.3676Z" fill="#A6C7F9"/>
<path d="M389.097 63.0379H385.668C385.255 63.0379 384.859 63.2021 384.567 63.4943C384.275 63.7866 384.111 64.183 384.111 64.5963C384.111 65.0096 384.275 65.406 384.567 65.6982C384.859 65.9905 385.255 66.1547 385.668 66.1547H389.097C389.51 66.1547 389.906 65.9905 390.198 65.6982C390.49 65.406 390.654 65.0096 390.654 64.5963C390.654 64.183 390.49 63.7866 390.198 63.4943C389.906 63.2021 389.51 63.0379 389.097 63.0379Z" fill="#A6C7F9"/>
<path d="M338.691 33.2344H323.638C323.434 33.2344 323.231 33.2747 323.042 33.353C322.853 33.4313 322.682 33.5461 322.537 33.6908C322.392 33.8355 322.278 34.0073 322.199 34.1964C322.121 34.3855 322.081 34.5881 322.081 34.7928C322.081 34.9974 322.121 35.2001 322.199 35.3891C322.278 35.5782 322.392 35.75 322.537 35.8947C322.682 36.0394 322.853 36.1542 323.042 36.2325C323.231 36.3109 323.434 36.3511 323.638 36.3511H338.691C338.896 36.3511 339.098 36.3109 339.287 36.2325C339.476 36.1542 339.648 36.0394 339.793 35.8947C339.937 35.75 340.052 35.5782 340.13 35.3891C340.208 35.2001 340.249 34.9974 340.249 34.7928C340.249 34.5881 340.208 34.3855 340.13 34.1964C340.052 34.0073 339.937 33.8355 339.793 33.6908C339.648 33.5461 339.476 33.4313 339.287 33.353C339.098 33.2747 338.896 33.2344 338.691 33.2344Z" fill="#A6C7F9"/>
<path d="M327.067 38.9047H323.638C323.226 38.9062 322.83 39.0708 322.539 39.3628C322.247 39.6547 322.082 40.0502 322.081 40.4631C322.082 40.876 322.247 41.2715 322.539 41.5635C322.83 41.8554 323.226 42.0201 323.638 42.0215H327.067C327.479 42.0201 327.875 41.8554 328.166 41.5635C328.458 41.2715 328.623 40.876 328.624 40.4631C328.623 40.05 328.459 39.6541 328.167 39.362C327.875 39.0699 327.48 38.9054 327.067 38.9047Z" fill="#A6C7F9"/>
<path d="M369.284 95.5699H354.231C353.818 95.5699 353.422 95.7341 353.13 96.0264C352.838 96.3186 352.674 96.715 352.674 97.1283C352.674 97.5416 352.838 97.938 353.13 98.2303C353.422 98.5225 353.818 98.6867 354.231 98.6867H369.284C369.697 98.6867 370.093 98.5225 370.386 98.2303C370.678 97.938 370.842 97.5416 370.842 97.1283C370.842 96.715 370.678 96.3186 370.386 96.0264C370.093 95.7341 369.697 95.5699 369.284 95.5699Z" fill="#A6C7F9"/>
<path d="M357.66 101.24H354.231C353.819 101.242 353.423 101.406 353.132 101.698C352.84 101.99 352.675 102.386 352.674 102.799C352.675 103.212 352.84 103.607 353.132 103.899C353.423 104.191 353.819 104.356 354.231 104.357H357.66C358.073 104.356 358.468 104.192 358.76 103.9C359.052 103.608 359.216 103.212 359.217 102.799C359.216 102.386 359.051 101.99 358.759 101.698C358.468 101.406 358.072 101.242 357.66 101.24Z" fill="#A6C7F9"/>
<path d="M431.285 112.108H416.226C415.813 112.108 415.417 112.272 415.125 112.564C414.833 112.857 414.668 113.253 414.668 113.666C414.668 114.08 414.833 114.476 415.125 114.768C415.417 115.061 415.813 115.225 416.226 115.225H431.279C431.692 115.225 432.088 115.061 432.38 114.768C432.672 114.476 432.836 114.08 432.836 113.666C432.836 113.253 432.672 112.857 432.38 112.564C432.088 112.272 431.692 112.108 431.279 112.108H431.285Z" fill="#A6C7F9"/>
<path d="M419.66 117.778H416.226C415.813 117.778 415.417 117.943 415.125 118.235C414.833 118.527 414.668 118.923 414.668 119.337C414.668 119.75 414.833 120.146 415.125 120.439C415.417 120.731 415.813 120.895 416.226 120.895H419.654C420.067 120.895 420.463 120.731 420.756 120.439C421.048 120.146 421.212 119.75 421.212 119.337C421.212 118.923 421.048 118.527 420.756 118.235C420.463 117.943 420.067 117.778 419.654 117.778H419.66Z" fill="#A6C7F9"/>
<path d="M228.526 120.193H75.6135V206.341H228.526V120.193Z" fill="#AED3FF"/>
<path d="M233.498 120.193H80.5857V206.341H233.498V120.193Z" fill="#739AF0"/>
<path d="M141.955 180.883C152.752 170.078 152.752 152.56 141.955 141.755C131.158 130.949 113.652 130.949 102.855 141.755C92.058 152.56 92.058 170.078 102.855 180.883C113.652 191.688 131.158 191.688 141.955 180.883Z" fill="#F3F9FF"/>
<path d="M216.309 145.862H170.507C169.709 145.864 168.945 146.181 168.379 146.745C167.814 147.308 167.494 148.071 167.488 148.87C167.495 149.668 167.815 150.431 168.38 150.994C168.945 151.557 169.709 151.874 170.507 151.877H216.309C217.106 151.874 217.87 151.557 218.436 150.994C219.001 150.431 219.321 149.668 219.328 148.87C219.321 148.072 219.001 147.308 218.436 146.745C217.87 146.182 217.106 145.865 216.309 145.862Z" fill="#F3F9FF"/>
<path d="M216.309 158.299H170.507C169.709 158.301 168.945 158.618 168.379 159.182C167.814 159.745 167.494 160.508 167.488 161.307C167.494 162.105 167.814 162.868 168.379 163.432C168.945 163.995 169.709 164.312 170.507 164.314H216.309C217.106 164.311 217.87 163.994 218.436 163.431C219.001 162.868 219.321 162.105 219.328 161.307C219.322 160.508 219.002 159.745 218.436 159.182C217.871 158.618 217.106 158.301 216.309 158.299Z" fill="#F3F9FF"/>
<path d="M216.309 170.736H170.507C169.707 170.736 168.939 171.054 168.373 171.621C167.807 172.187 167.489 172.955 167.489 173.756C167.489 174.557 167.807 175.325 168.373 175.891C168.939 176.458 169.707 176.776 170.507 176.776H216.309C217.109 176.776 217.877 176.458 218.442 175.891C219.008 175.325 219.326 174.557 219.326 173.756C219.326 172.955 219.008 172.187 218.442 171.621C217.877 171.054 217.109 170.736 216.309 170.736Z" fill="#F3F9FF"/>
<path d="M97.0925 160.918H122.407V135.585C119.083 135.585 115.791 136.24 112.72 137.513C109.648 138.787 106.858 140.653 104.507 143.005C102.156 145.357 100.292 148.15 99.0195 151.224C97.7473 154.297 97.0925 157.592 97.0925 160.918Z" fill="#3A4ACE"/>
<path d="M147.719 161.733H97.0925C97.0933 168.452 99.7606 174.895 104.508 179.646C109.255 184.397 115.694 187.066 122.407 187.067C129.121 187.066 135.559 184.396 140.306 179.646C145.052 174.895 147.719 168.451 147.719 161.733Z" fill="#3A4ACE"/>
<path d="M118.033 147.894H104.297C103.92 147.894 103.559 148.043 103.292 148.31C103.026 148.577 102.876 148.938 102.876 149.315C102.876 149.692 103.026 150.054 103.292 150.32C103.559 150.587 103.92 150.737 104.297 150.737H118.033C118.41 150.737 118.772 150.587 119.038 150.32C119.304 150.054 119.454 149.692 119.454 149.315C119.454 148.938 119.304 148.577 119.038 148.31C118.772 148.043 118.41 147.894 118.033 147.894Z" fill="#6D89D0"/>
<path d="M107.425 153.069H104.297C103.92 153.069 103.559 153.219 103.292 153.485C103.026 153.752 102.876 154.114 102.876 154.491C102.876 154.868 103.026 155.229 103.292 155.496C103.559 155.763 103.92 155.912 104.297 155.912H107.425C107.802 155.912 108.163 155.763 108.43 155.496C108.696 155.229 108.846 154.868 108.846 154.491C108.846 154.114 108.696 153.752 108.43 153.485C108.163 153.219 107.802 153.069 107.425 153.069Z" fill="#6D89D0"/>
<path d="M138.43 167.926H124.691C124.314 167.926 123.953 168.075 123.687 168.342C123.42 168.609 123.271 168.97 123.271 169.347C123.271 169.724 123.42 170.086 123.687 170.353C123.953 170.619 124.314 170.769 124.691 170.769H138.43C138.807 170.769 139.168 170.619 139.435 170.353C139.701 170.086 139.851 169.724 139.851 169.347C139.851 168.97 139.701 168.609 139.435 168.342C139.168 168.075 138.807 167.926 138.43 167.926Z" fill="#A6C7F9"/>
<path d="M127.822 173.101H124.691C124.315 173.103 123.954 173.253 123.688 173.519C123.422 173.785 123.272 174.146 123.271 174.523C123.272 174.899 123.422 175.26 123.688 175.527C123.954 175.793 124.315 175.943 124.691 175.945H127.822C128.198 175.943 128.559 175.793 128.825 175.527C129.091 175.26 129.241 174.899 129.243 174.523C129.241 174.146 129.091 173.785 128.825 173.519C128.559 173.253 128.198 173.103 127.822 173.101Z" fill="#A6C7F9"/>
<path d="M64.844 221.767V309.87H217.757V221.767H64.844Z" fill="#AED3FF"/>
<path d="M69.8081 221.767V309.87H222.721V221.767H69.8081Z" fill="#739AF0"/>
<path d="M136.434 275.401C143.204 261.705 137.597 245.109 123.911 238.334C110.224 231.559 93.6407 237.17 86.8704 250.866C80.1002 264.563 85.7069 281.158 99.3934 287.934C113.08 294.709 129.663 289.098 136.434 275.401Z" fill="#F3F9FF"/>
<path d="M159.735 253.681H205.537C206.337 253.681 207.104 253.363 207.67 252.796C208.236 252.23 208.554 251.462 208.554 250.661C208.554 249.86 208.236 249.092 207.67 248.526C207.104 247.96 206.337 247.641 205.537 247.641H159.735C158.934 247.641 158.167 247.96 157.601 248.526C157.035 249.092 156.717 249.86 156.717 250.661C156.717 251.462 157.035 252.23 157.601 252.796C158.167 253.363 158.934 253.681 159.735 253.681Z" fill="#F3F9FF"/>
<path d="M205.537 260.078H159.735C158.934 260.078 158.167 260.397 157.601 260.963C157.035 261.529 156.717 262.297 156.717 263.098C156.717 263.899 157.035 264.667 157.601 265.233C158.167 265.8 158.934 266.118 159.735 266.118H205.537C206.337 266.118 207.104 265.8 207.67 265.233C208.236 264.667 208.554 263.899 208.554 263.098C208.554 262.297 208.236 261.529 207.67 260.963C207.104 260.397 206.337 260.078 205.537 260.078Z" fill="#F3F9FF"/>
<path d="M205.537 272.51H159.734C158.939 272.516 158.179 272.835 157.617 273.398C157.054 273.961 156.736 274.722 156.729 275.517C156.736 276.313 157.054 277.074 157.617 277.637C158.179 278.199 158.939 278.518 159.734 278.525H205.537C206.334 278.522 207.098 278.205 207.663 277.642C208.228 277.079 208.549 276.315 208.555 275.517C208.55 274.719 208.229 273.956 207.664 273.392C207.099 272.829 206.334 272.512 205.537 272.51Z" fill="#F3F9FF"/>
<path d="M111.635 263.548L86.323 263.225C86.323 263.332 86.323 263.441 86.323 263.548C86.323 268.087 87.5416 272.542 89.8513 276.448C92.1609 280.355 95.4769 283.568 99.4523 285.753C103.428 287.938 107.917 289.014 112.45 288.868C116.983 288.722 121.394 287.361 125.221 284.925L111.635 263.548Z" fill="#3A4ACE"/>
<path d="M112.567 271.526H98.8274C98.0428 271.526 97.4067 272.162 97.4067 272.947C97.4067 273.733 98.0428 274.369 98.8274 274.369H112.567C113.351 274.369 113.987 273.733 113.987 272.947C113.987 272.162 113.351 271.526 112.567 271.526Z" fill="#A6C7F9"/>
<path d="M101.958 276.698H98.83C98.638 276.69 98.4463 276.721 98.2664 276.788C98.0866 276.856 97.9223 276.96 97.7835 277.092C97.6446 277.225 97.5341 277.385 97.4587 277.562C97.3832 277.739 97.3442 277.929 97.3442 278.122C97.3442 278.314 97.3832 278.504 97.4587 278.681C97.5341 278.858 97.6446 279.018 97.7835 279.151C97.9223 279.284 98.0866 279.387 98.2664 279.455C98.4463 279.522 98.638 279.553 98.83 279.545H101.958C102.324 279.529 102.67 279.372 102.924 279.106C103.178 278.841 103.319 278.489 103.319 278.122C103.319 277.755 103.178 277.402 102.924 277.137C102.67 276.872 102.324 276.715 101.958 276.698Z" fill="#A6C7F9"/>
<path d="M217.757 26.238H64.844V106.074H217.757V26.238Z" fill="#AED3FF"/>
<path d="M222.729 26.238H69.8162V106.074H222.729V26.238Z" fill="#739AF0"/>
<path d="M120.075 93.6632C134.616 88.9996 142.626 73.4225 137.966 58.8708C133.306 44.3191 117.74 36.3033 103.199 40.9669C88.6584 45.6305 80.6484 61.2076 85.3086 75.7593C89.9688 90.311 105.534 98.3269 120.075 93.6632Z" fill="#F3F9FF"/>
<path d="M111.635 41.9969C106.008 41.9915 100.54 43.8624 96.0936 47.3141C91.6476 50.7658 88.4776 55.6015 87.0843 61.0573C85.6909 66.5131 86.1537 72.278 88.3995 77.4412C90.6453 82.6044 94.5462 86.8716 99.4857 89.5688C103.543 82.053 111.635 67.3412 111.635 67.3412L123.62 89.6563C128.586 86.9843 132.518 82.7299 134.793 77.5677C137.068 72.4055 137.557 66.6309 136.18 61.1596C134.804 55.6882 131.642 50.8332 127.196 47.3644C122.749 43.8955 117.273 42.0113 111.635 42.0106V41.9969Z" fill="#3A4ACE"/>
<path d="M205.537 51.8722H159.737C158.07 51.8722 156.719 53.2241 156.719 54.8919C156.719 56.5596 158.07 57.9116 159.737 57.9116H205.537C207.204 57.9116 208.555 56.5596 208.555 54.8919C208.555 53.2241 207.204 51.8722 205.537 51.8722Z" fill="#F3F9FF"/>
<path d="M205.537 64.3092H159.735C158.934 64.3092 158.167 64.6274 157.601 65.1937C157.035 65.76 156.717 66.5281 156.717 67.3289C156.717 68.1298 157.035 68.8979 157.601 69.4642C158.167 70.0305 158.934 70.3486 159.735 70.3486H205.537C206.337 70.3486 207.104 70.0305 207.67 69.4642C208.236 68.8979 208.554 68.1298 208.554 67.3289C208.554 66.5281 208.236 65.76 207.67 65.1937C207.104 64.6274 206.337 64.3092 205.537 64.3092Z" fill="#F3F9FF"/>
<path d="M205.537 76.7545H159.735C158.934 76.7545 158.166 77.0727 157.6 77.6393C157.034 78.2059 156.716 78.9743 156.716 79.7755C156.716 80.5768 157.034 81.3452 157.6 81.9118C158.166 82.4783 158.934 82.7966 159.735 82.7966H205.537C206.337 82.7966 207.105 82.4783 207.671 81.9118C208.237 81.3452 208.556 80.5768 208.556 79.7755C208.556 78.9743 208.237 78.2059 207.671 77.6393C207.105 77.0727 206.337 76.7545 205.537 76.7545Z" fill="#F3F9FF"/>
<path d="M112.567 55.2295H98.83C98.4637 55.2456 98.1176 55.4026 97.8641 55.6677C97.6105 55.9328 97.469 56.2856 97.469 56.6526C97.469 57.0196 97.6105 57.3724 97.8641 57.6375C98.1176 57.9026 98.4637 58.0596 98.83 58.0756H112.567C112.759 58.0841 112.95 58.0535 113.13 57.9858C113.31 57.9181 113.474 57.8146 113.613 57.6816C113.752 57.5487 113.862 57.3889 113.938 57.2121C114.013 57.0352 114.052 56.8449 114.052 56.6526C114.052 56.4603 114.013 56.27 113.938 56.0931C113.862 55.9162 113.752 55.7565 113.613 55.6236C113.474 55.4906 113.31 55.3871 113.13 55.3194C112.95 55.2517 112.759 55.2211 112.567 55.2295Z" fill="#6D89D0"/>
<path d="M101.958 60.405H98.8301C98.4537 60.4065 98.0932 60.5567 97.8271 60.823C97.561 61.0893 97.4109 61.4501 97.4094 61.8267C97.4101 62.2038 97.5599 62.5653 97.8261 62.8322C98.0923 63.0991 98.4532 63.2497 98.8301 63.2511H101.958C102.335 63.2497 102.696 63.0991 102.962 62.8322C103.228 62.5653 103.378 62.2038 103.379 61.8267C103.377 61.4501 103.227 61.0893 102.961 60.823C102.695 60.5567 102.335 60.4065 101.958 60.405Z" fill="#6D89D0"/>
<path d="M258.196 164.114C258.196 164.114 276.033 182.542 276.888 189.489C277.743 196.436 268.403 207.306 268.403 207.306L258.196 164.114Z" fill="#F2564B"/>
<path d="M250.571 355.271C250.571 355.271 249.962 365.067 248.068 365.207C247.817 365.226 238.463 365.226 238.463 365.226L226.524 365.158C226.524 365.158 226.603 362.279 230.092 361.669C233.58 361.059 239.424 358.607 241.539 353.989C243.763 349.134 250.571 355.271 250.571 355.271Z" fill="#163560"/>
<path d="M277.167 355.271C277.167 355.271 276.56 365.067 274.667 365.207C274.416 365.226 265.061 365.226 265.061 365.226L253.084 365.185C253.084 365.185 253.199 362.279 256.69 361.669C260.182 361.059 266.02 358.607 268.135 353.989C270.356 349.134 277.167 355.271 277.167 355.271Z" fill="#163560"/>
<path d="M237.345 250.222C237.345 250.222 240.468 270.211 252.117 305.69C263.766 341.169 265.356 356.543 265.356 356.543C267.504 356.832 269.667 356.984 271.834 356.999C273.94 356.999 277.844 356.179 277.844 356.179C277.844 356.179 277.951 317.403 272.583 299.56C267.214 281.718 271.43 235.245 271.43 235.245L237.345 250.222Z" fill="#163560"/>
<path d="M231.269 236.339C231.269 236.339 230.827 266.46 236.037 303.44C241.247 340.42 239.479 356.122 239.479 356.122C239.479 356.122 243.766 356.89 245.271 356.942C246.883 356.996 251.951 356.54 251.951 356.54C251.951 356.54 259.403 319.543 257.267 301.039C255.131 282.536 267.468 237.515 267.468 237.515L231.269 236.339Z" fill="#1C468A"/>
<path d="M255.409 165.856L249.527 170.214L241.025 168.423C241.143 167.65 241.703 164.432 242.214 161.52C242.246 161.348 242.276 161.175 242.306 161.009C242.744 158.532 243.126 156.402 243.126 156.402L251.068 152.44L254.027 150.964C254.027 151.016 253.797 153.714 253.754 154.108C253.207 161.104 255.409 165.856 255.409 165.856Z" fill="#FC9490"/>
<path d="M241.621 163.655C241.807 163.576 253.185 160.216 254.42 160.626C255.655 161.036 256.404 163.423 256.404 163.423L237.791 167.636C237.791 167.636 239.241 164.656 241.621 163.655Z" fill="#F2564B"/>
<path d="M272.249 240.057C270.321 248.864 238.222 249.9 229.947 241.914C229.005 241.003 228.961 236.765 229.313 231.049C230.01 219.886 232.239 203.088 232.318 194.508C232.402 190.398 232.859 186.304 233.684 182.277C234.666 177.299 236.027 172.405 237.755 167.636C237.755 167.636 253.434 162.564 256.368 163.428C270.523 167.581 274.189 231.254 272.249 240.057Z" fill="#FB7369"/>
<path d="M229.324 231.049C230.021 219.886 232.25 203.088 232.329 194.509C232.412 190.398 232.87 186.304 233.695 182.277L243.126 180.612C243.126 180.612 252.357 218.303 229.324 231.049Z" fill="#F2564B"/>
<path d="M234.433 215.487C234.433 215.487 235.075 217.023 233.725 218.057C232.376 219.09 231.499 220.763 231.813 221.985C232.127 223.207 235.091 225.201 236.108 224.881C237.124 224.561 239.225 222.948 239.001 222.303C238.777 221.657 240.405 216.646 237.908 214.716C235.411 212.785 234.433 215.487 234.433 215.487Z" fill="#FC9490"/>
<path d="M244.978 165.378C244.978 165.378 235.78 167.1 228.452 177.908C221.125 188.715 216.301 196.753 217.65 200.649C219 204.545 231.31 218.054 233.43 218.054C235.55 218.054 238.973 216.512 239.167 213.037C239.167 213.037 230.501 200.042 232.209 198.096C232.938 197.275 243.459 188.718 244.959 192.578C247.445 198.965 244.978 165.378 244.978 165.378Z" fill="#FB7369"/>
<path d="M253.166 154.231C251.423 157.572 244.924 160.459 242.214 161.52C242.246 161.348 242.276 161.175 242.306 161.009C242.744 158.532 243.126 156.402 243.126 156.402L251.068 152.44C252.816 152.413 253.885 152.858 253.166 154.231Z" fill="#FCA56B"/>
<path d="M240.558 156.588C240.558 156.588 252.306 160.257 254.491 152.897C256.677 145.537 259.641 141.053 252.226 138.407C244.812 135.76 242.522 138.133 241.2 140.411C239.878 142.688 237.553 155.437 240.558 156.588Z" fill="#FC9490"/>
<path d="M241.651 139.686C241.651 139.686 242.399 148.252 244.17 147.888C245.94 147.524 247.546 147.24 247.287 149.821C247.027 152.402 244.571 155.385 250.019 155.836C255.467 156.287 263.316 142.215 261.818 139.549C257.51 131.856 235.408 130.303 241.651 139.686Z" fill="#163560"/>
<path d="M30.03 338.725L33.6089 353.809L38.9691 353.779L39.1658 338.725H30.03Z" fill="#FC9490"/>
<path d="M75.1191 339.368L85.3013 353.809L89.2682 348.71L83.1403 337.383L75.1191 339.368Z" fill="#FC9490"/>
<path d="M48.646 140.525C46.7964 139.473 44.578 139.358 43.029 139.451C43.3693 139.166 43.7764 138.972 44.212 138.888C43.2503 138.743 41.103 139.708 41.103 139.708C27.7162 134.549 25.6234 154.261 25.9048 158.846C26.1862 163.431 21.408 164.921 14.4468 168.53C1.16657 175.417 0 184.636 0 184.636C0.103816 184.696 0.210381 184.767 0.325125 184.844C0.986269 183.728 2.34133 181.629 3.48603 181.314C3.44232 181.415 2.12004 184.201 1.64467 185.798C5.56236 188.781 12.8923 195.392 18.0012 200.075C17.9793 199.159 18.0148 197.86 18.3481 197.174L18.9792 200.977C21.7112 203.49 23.599 205.261 23.599 205.261C23.2602 201.56 40.3243 182.022 49.2279 176.18C51.3944 172.986 52.1648 167.346 52.2331 166.9C51.8588 171.373 51.0966 173.883 50.4109 175.294C57.9403 168.344 53.5499 143.314 48.646 140.525Z" fill="#163560"/>
<path d="M48.7006 176.456C48.7443 176.475 44.4032 178.733 41.1357 177.839C38.0622 177 36.0542 173.014 36.0979 173.003C37.3983 172.746 37.7726 170.955 37.7371 163.264L38.3272 163.382L48.2252 165.337C48.2252 165.337 48.0012 168.451 47.9957 171.387C47.9875 173.856 48.1378 176.193 48.7006 176.456Z" fill="#FC9490"/>
<path d="M37.5159 143.754C37.5159 143.754 42.3952 138.56 48.5203 143.481C48.5203 143.486 44.9469 142.871 37.5159 143.754Z" fill="#E37970"/>
<path d="M48.2253 165.337C48.2253 165.337 48.0012 168.451 47.9958 171.387C42.4608 171.231 39.5266 166.176 38.3354 163.376L48.2253 165.337Z" fill="#FF8585"/>
<path d="M37.3138 162.305C37.3138 162.305 34.4124 157.717 33.7157 153.794C33.2185 150.994 34.6446 140.616 45.0672 142.111C47.1656 142.402 49.1719 143.161 50.9383 144.331C53.2031 145.862 56.4678 149.162 52.8152 158.22L51.8671 161.279L37.3138 162.305Z" fill="#163560"/>
<path d="M87.6535 344.751L82.4081 344.909L76.7337 345.084C76.7337 345.084 63.6201 330.477 56.271 307.062C56.0989 306.516 55.9186 305.969 55.7246 305.422C51.7004 293.666 43.3569 278.938 38.9583 265.596C38.2589 263.469 37.6306 261.47 37.0678 259.581C36.8875 258.974 36.7099 258.378 36.5433 257.793C33.3031 246.526 32.366 239.13 31.5 231.226L63.2486 231.481C63.2486 231.481 68.3765 285.431 87.6535 344.751Z" fill="#FB7369"/>
<path d="M58.8064 213.206C58.7271 228.326 61.0248 234.805 61.0248 234.805C61.0248 234.805 47.4303 241.717 31.2733 236.629C31.0848 236.569 17.8865 233.556 17.8865 233.556C18.1597 232.946 20.5611 222.756 20.8234 222.196C24.2356 214.863 26.8338 211.651 27.2299 209.395C27.9812 205.19 27.9976 200.835 27.6233 196.731C26.983 189.986 25.6706 183.322 23.7056 176.839C28.1069 175.835 32.3442 174.121 36.9258 172.401C37.9804 173.716 41.0866 175.042 43.8815 174.979C47.0998 174.908 48.1051 173.547 47.9795 172.013C51.4081 173.927 54.1347 175.74 54.1347 175.74C57.0497 180.806 62.959 185.727 63.3879 193.511C63.5245 195.411 58.8091 212.785 58.8064 213.206Z" fill="#E7F1FD"/>
<path d="M31.5027 214.893C30.1148 216.859 27.4539 228.807 20.8479 230.308C24.2602 221.794 26.8583 218.059 27.2544 215.443C28.0057 210.554 28.0221 205.497 27.6479 200.728C29.8635 196.841 31.5163 194.167 31.5163 194.167C31.6912 193.538 35.0379 183.179 36.1116 192.439C37.1853 201.699 33.0545 212.695 31.5027 214.893Z" fill="#F2564B"/>
<path d="M50.0749 168.12C50.0749 168.12 36.9777 168.336 36.9613 160.172C36.9449 152.008 35.2565 146.537 43.6164 146.056C51.9764 145.575 53.6074 148.686 54.2712 151.41C54.9351 154.133 53.4817 167.855 50.0749 168.12Z" fill="#FC9490"/>
<path d="M53.8914 146.871C51.8697 144.41 50.3398 144.957 49.4846 145.687C46.6543 141.455 37.707 147.576 37.707 147.576C37.1284 151.146 35.3271 154.404 32.6118 156.79C32.6118 156.79 34.9996 158.266 40.5018 156.85C44.8321 155.735 47.9739 149.567 49.1186 146.989C49.8972 147.68 51.5391 149.282 52.0336 150.849C52.6838 152.93 52.9789 157.208 54.2192 157.063C54.2356 157.063 56.9266 150.554 53.8914 146.871Z" fill="#163560"/>
<path d="M33.4287 352.964C33.6498 355.051 33.4167 357.16 32.7457 359.148C32.7457 359.148 31.8687 363.148 35.8055 363.222C39.7423 363.296 40.7231 362.927 40.2614 360.471C39.7997 358.016 38.9692 353.776 38.9692 353.776L33.4287 352.964Z" fill="#FC9490"/>
<path d="M40.6356 365.193H32.4888C32.0435 363.102 32.762 359.159 32.762 359.159C37.2206 363.424 40.01 359.053 40.01 359.053C40.7176 360.868 40.6356 365.193 40.6356 365.193Z" fill="#C45446"/>
<path d="M98.7672 361.059C98.7672 361.059 91.5083 352.811 89.279 348.707L83.8833 351.477L95.9478 362.815L98.77 362.443L98.7672 361.059Z" fill="#FC9490"/>
<path d="M103.207 365.171H93.1366C92.2487 364.373 91.4045 362.76 90.369 360.649C89.7735 359.438 88.4566 358.771 87.0906 358.405V365.171H85.0088L83.08 357.975C81.7933 355.564 82.7604 353.355 83.662 351.449C84.7138 351.449 87.76 352.207 93.1256 358.372C94.8878 360.398 96.8329 361.106 98.7672 361.059C98.7921 361.077 98.8186 361.091 98.8464 361.103C101.887 362.503 102.884 364.225 103.207 365.171Z" fill="#C45446"/>
<path d="M102.718 181.67C102.718 181.67 94.1229 186.481 91.0522 187.868C89.9594 188.36 87.9814 189.281 85.9597 190.227C84.7385 190.796 83.5009 191.375 82.4354 191.867C81.5567 192.279 80.5672 192.391 79.6187 192.186C78.6703 191.982 77.8151 191.471 77.1845 190.733C72.5401 185.292 60.4811 173.509 48.0395 172.027L47.9986 172.008H47.9822L48.0505 172.142C48.7499 173.883 55.5717 190.935 55.782 194.533C56.0061 198.322 56.6727 256.527 56.6727 256.527C56.6727 256.527 56.2274 259.204 61.3526 258.088C66.4778 256.973 67.8165 255.86 67.8165 255.86C67.8165 255.86 62.8989 219.954 64.2485 207.468C64.5217 205.007 64.2758 202.273 63.7267 199.419C71.3053 204.012 80.2389 206.054 80.2389 206.054C80.2389 206.054 83.5692 204.6 88.7491 201.39C90.9347 200.039 93.4426 197.888 95.9233 195.61C98.9285 192.86 104.078 186.219 104.078 186.219L102.718 181.67Z" fill="#E37970"/>
<path d="M82.408 344.909L76.7337 345.084C76.7337 345.084 63.6201 330.477 56.271 307.062C56.0989 306.516 55.9186 305.969 55.7246 305.422C51.7003 293.666 43.3568 278.938 38.9583 265.596C38.2589 263.469 37.6306 261.47 37.0678 259.581C36.8875 258.974 36.7099 258.378 36.5432 257.793L41.2204 254.239C41.2204 254.239 55.2547 276.986 59.6013 298.393C63.3797 316.973 78.4958 339.346 82.408 344.909Z" fill="#F2564B"/>
<path d="M41.7095 300.372C41.7914 310.781 41.2642 334.714 39.9091 344.622H34.8822C32.1038 344.622 30.7186 344.584 30.7186 344.584C27.32 327.36 24.9022 313.102 23.1401 300.818C21.6976 290.738 20.408 282.098 19.4245 274.659C18.4328 267.17 17.7416 260.901 17.493 255.606C17.4548 254.771 17.4274 253.96 17.411 253.172C17.3947 252.382 17.3919 251.611 17.411 250.865L44.8431 248.188C44.4852 266.43 41.6685 294.322 41.7095 300.372Z" fill="#FB7369"/>
<path d="M34.8821 344.622C32.1037 344.622 30.7185 344.584 30.7185 344.584C27.3199 327.36 24.9021 313.102 23.14 300.818C21.6975 290.738 20.4079 282.098 19.4244 274.659C18.4327 267.17 17.7415 260.901 17.4929 255.606L27.5603 261.53C27.5603 261.53 21.1347 263.799 23.5853 280.972C26.0359 298.144 31.4698 342.192 34.8821 344.622Z" fill="#F2564B"/>
<path d="M36.1772 255.436C36.1772 255.436 34.2457 262.424 27.5605 261.533C20.8753 260.642 11.3679 256.625 11.3679 256.625C11.3679 256.625 14.2256 247.603 17.7772 235.724C22.0774 221.357 27.402 202.834 29.91 191.159C30.5124 188.531 30.9685 185.871 31.276 183.192L36.9367 172.418C36.9367 172.418 45.0917 191.009 45.5371 195.681C45.9824 200.354 36.1772 255.436 36.1772 255.436Z" fill="#E37970"/>
<path d="M60.0521 200.901C56.8366 201.322 55.6017 203.033 55.2056 205.343C54.9485 206.536 54.4733 207.67 53.804 208.69C50.5994 208.862 42.9662 209.278 36.5542 209.682L36.0242 218.1C42.5607 217.249 48.9921 215.725 55.2165 213.554C55.7875 213.455 56.5032 213.1 57.4021 212.367C62.0191 208.583 64.6391 202.251 64.6473 201.338C64.6555 200.425 63.2704 200.477 60.0521 200.901Z" fill="#FC9490"/>
<path d="M35.882 205.486C35.5815 213.067 33.8003 227.784 17.9055 235.664L17.7771 235.724C22.0773 221.357 27.4019 202.834 29.9099 191.159C32.8304 195.515 36.0432 201.311 35.882 205.486Z" fill="#C45446"/>
<path d="M36.9367 172.409C36.9367 172.409 23.3395 173.375 20.072 180.661C16.8045 187.947 15.7637 212.178 19.9218 219.314C19.9218 219.314 25.659 220.955 35.7674 219.041L36.1417 218.97C36.1417 218.97 39.3736 211.041 36.4777 209.491C36.4777 209.491 27.9347 209.937 28.8281 207.112C29.7214 204.288 36.9367 172.409 36.9367 172.409Z" fill="#E37970"/>
<path d="M111.936 175.953C104.622 175.012 102.775 181.67 102.775 181.67L104.141 186.244C106.395 186.555 108.368 185.97 110.187 183.362C112.007 180.754 112.504 181.76 113.662 179.808C115.228 177.194 112.774 176.215 111.936 175.953Z" fill="#FC9490"/>
<path d="M91.0522 187.868C89.9594 188.36 87.9814 189.281 85.9597 190.227C87.0525 192.141 88.3939 195.64 88.7545 201.415C91.4087 199.684 93.8802 197.688 96.1309 195.457C99.9858 191.671 104.073 186.244 104.073 186.244L102.707 181.67C102.707 181.67 94.1229 186.481 91.0522 187.868Z" fill="#FC9490"/>
<path d="M479.1 240.908C479.1 240.908 473.909 242.244 470.593 241.249C467.276 240.254 461.596 241.889 460.678 243.095C459.76 244.3 460.099 244.782 461.735 245.197C463.372 245.613 469.164 248.087 472.972 246.657C476.78 245.227 481.747 245.173 481.747 245.173L479.1 240.908Z" fill="#FC9490"/>
<path d="M524.058 195.684C524.058 195.684 518.214 237.241 508.537 240.968C503.764 242.805 482.662 246.969 476.423 247.387C476.423 247.387 474.893 246.146 475.264 241.099C475.264 241.099 497.372 232.976 500.513 228.561C505.185 221.999 497.609 201.704 503.475 195.531C509.34 189.358 519.222 186.703 524.058 195.684Z" fill="#1C468A"/>
<path d="M523.32 355.832V346.769H537.578C537.764 346.769 537.942 346.695 538.073 346.564C538.204 346.432 538.278 346.254 538.278 346.069V344.617C538.278 344.431 538.204 344.253 538.073 344.122C537.942 343.991 537.764 343.917 537.578 343.917H523.32V292.334C523.319 291.637 523.041 290.969 522.549 290.475C522.056 289.982 521.389 289.704 520.692 289.702H517.856C517.159 289.704 516.492 289.982 515.999 290.475C515.507 290.969 515.229 291.637 515.228 292.334V343.917H500.972C500.787 343.917 500.608 343.991 500.477 344.122C500.345 344.253 500.271 344.431 500.27 344.617V346.069C500.271 346.255 500.345 346.433 500.477 346.564C500.608 346.695 500.787 346.769 500.972 346.769H515.228V355.832C504.912 356.611 496.65 360.327 494.331 365.128H544.206C541.898 360.327 533.625 356.611 523.32 355.832Z" fill="#3A4ACE"/>
<path d="M522.088 283.252C520.374 286.104 518.466 288.834 516.378 291.424C510.094 299.353 503.264 305.914 502.071 312.085C501.805 313.43 501.44 314.753 500.978 316.044C500.481 317.46 499.866 318.95 499.156 320.489C496.492 326.283 492.506 332.773 488.528 338.673C481.649 348.874 475.179 357.387 475.179 357.387L463.317 356.882C463.793 355.692 468.967 341.607 475.884 324.393C478.696 317.408 481.684 309.974 484.567 302.795C484.952 301.838 485.334 300.881 485.717 299.94C486.597 297.753 487.465 295.585 488.312 293.483L499.986 264.453C499.986 264.453 525.962 254.61 528.672 260.986C530.874 266.26 529.057 271.416 522.088 283.252Z" fill="#163560"/>
<path d="M474.797 355.228C474.797 355.228 474.19 365.024 472.297 365.166C472.046 365.182 462.692 365.182 462.692 365.182L450.753 365.114C450.753 365.114 450.829 362.235 454.321 361.625C457.812 361.016 463.65 358.563 465.765 353.948C467.989 349.09 474.797 355.228 474.797 355.228Z" fill="#163560"/>
<path d="M502.267 327.242C502.267 327.242 510.518 332.549 509.717 334.271C509.611 334.501 505.051 342.673 505.051 342.673L499.169 353.062C499.169 353.062 496.71 351.591 497.866 348.245C499.022 344.899 499.743 338.597 496.746 334.498C493.593 330.198 502.267 327.242 502.267 327.242Z" fill="#163560"/>
<path d="M491.102 259.791C491.102 259.791 458.498 280.116 454.859 293.775C451.22 307.434 498.229 336.568 498.229 336.568C498.229 336.568 503.387 332.016 504.297 328.678C504.297 328.678 483.048 303.202 478.436 297.491C475.606 293.983 520.293 285.349 525.752 276.852C531.21 268.354 529.257 261.202 529.257 261.202L491.102 259.791Z" fill="#1C468A"/>
<path d="M552.634 285.89H485.905C484.565 285.89 483.479 286.977 483.479 288.318V301.674C483.479 303.015 484.565 304.102 485.905 304.102H552.634C553.974 304.102 555.06 303.015 555.06 301.674V288.318C555.06 286.977 553.974 285.89 552.634 285.89Z" fill="#FB7369"/>
<path d="M506.179 188.576C504.262 189.761 502.579 191.288 501.213 193.081C509.023 195.102 521.976 187.859 521.976 187.859C521.976 187.859 516.949 184.477 515.086 177.049C514.993 176.675 514.905 176.292 514.832 175.898C514.572 174.557 514.43 173.196 514.408 171.83L510.818 175.048L504.849 180.374C505.022 182.402 505.315 184.417 505.729 186.41C505.86 187.088 506.007 187.805 506.179 188.576Z" fill="#FC9490"/>
<path d="M530.205 225.441C529.087 240.5 530.967 263.392 529.699 267.359C528.606 270.782 515.714 268.756 510.731 267.613C508.887 267.19 506.655 266.585 504.346 265.872C497.912 263.879 490.902 261.033 490.14 258.919C490.111 258.84 490.087 258.759 490.069 258.676C490.006 258.383 490.011 258.081 490.083 257.79C490.334 256.713 491.301 255.545 491.413 252.869C491.541 249.889 491.522 246.384 491.634 242.611C491.634 242.187 491.634 241.722 491.692 241.301V241.145C491.692 241.066 491.692 240.987 491.692 240.905C491.801 236.7 492.02 232.276 492.274 227.894C492.438 225.138 492.623 222.426 492.839 219.798C493.399 213.051 494.156 207.052 495.159 203.26C496.798 197.078 500.399 193.046 503.682 190.09L506.057 188.053C508.707 188.633 511.84 188.248 514.673 186.905C517.739 185.448 518.799 184.404 519.318 184.797C526.432 190.276 531.516 207.03 530.205 225.441Z" fill="#3A4ACE"/>
<path d="M504.385 265.902C497.951 263.909 490.94 261.063 490.178 258.949C490.151 258.869 490.128 258.788 490.11 258.706C490.11 258.411 490.11 258.115 490.124 257.82C490.375 256.743 491.339 255.575 491.454 252.899C491.582 249.919 491.563 246.414 491.675 242.641C491.675 242.217 491.675 241.752 491.733 241.331V241.175C491.733 241.096 491.733 241.017 491.733 240.935L516.047 229.906C516.047 229.906 517.452 249.517 504.385 265.902Z" fill="#1C468A"/>
<path d="M504.849 180.374C505.022 182.402 505.316 184.417 505.729 186.41C511.556 184.529 514.198 179.261 515.08 177.027C515.332 176.398 515.441 176.007 515.441 176.007L514.826 175.876L510.813 175.026L504.849 180.374Z" fill="#FF8585"/>
<path d="M502.488 180.327C502.488 180.327 515.288 181.771 516.067 173.782C516.845 165.793 519.017 160.596 510.876 159.335C502.734 158.075 500.849 160.976 499.948 163.573C499.046 166.17 499.18 179.745 502.488 180.327Z" fill="#FC9490"/>
<path d="M516.009 174.331C516.009 174.331 515.19 163.726 503.549 162.627C495.568 161.875 500.016 154.999 500.866 153.903C500.866 153.903 506.98 154.742 513.247 155.778C526.405 157.955 517.31 172.68 516.009 174.331Z" fill="#3A4ACE"/>
<path d="M444.531 221.887L443.412 222.251L452.944 251.61L454.064 251.246L444.531 221.887Z" fill="#4A75CB"/>
<path d="M485.228 249.12L452.864 249.81L452.905 251.747L485.27 251.058L485.228 249.12Z" fill="#4A75CB"/>
<path d="M481.777 247.3C481.777 247.3 476.756 249.213 473.36 248.574C469.964 247.934 464.486 250.214 463.708 251.505C462.929 252.795 463.317 253.243 464.989 253.479C466.661 253.714 472.691 255.529 476.319 253.686C479.947 251.844 484.875 251.245 484.875 251.245L481.777 247.3Z" fill="#FC9490"/>
<path d="M521.479 197.396C521.479 197.396 520.249 239.349 511.043 244.114C506.499 246.468 485.987 252.934 479.829 254.039C479.829 254.039 478.174 252.973 477.985 247.912C477.985 247.912 499.063 237.4 501.699 232.662C505.62 225.613 495.855 206.292 501.005 199.509C506.155 192.726 515.671 188.997 521.479 197.396Z" fill="#3A4ACE"/>
<path d="M663.119 366.465H6.89294C6.72339 366.465 6.56081 366.397 6.44092 366.277C6.32103 366.157 6.25366 365.994 6.25366 365.825C6.25366 365.655 6.32094 365.492 6.44075 365.371C6.56057 365.251 6.72314 365.183 6.89294 365.182H663.119C663.289 365.184 663.451 365.252 663.571 365.372C663.69 365.492 663.758 365.655 663.759 365.825C663.758 365.994 663.69 366.156 663.571 366.276C663.451 366.396 663.289 366.464 663.119 366.465Z" fill="#202F4E"/>
</g>
<defs>
<clipPath id="clip0_238_1523">
<rect width="683" height="366" fill="white" transform="translate(0 0.5)"/>
</clipPath>
</defs>
</svg>
