<svg width="64" height="64" viewBox="0 0 64 64" fill="none" xmlns="http://www.w3.org/2000/svg">
<path d="M62.125 4H56.375V1.875C56.375 0.8395 55.5355 0 54.5 0C53.4645 0 52.625 0.8395 52.625 1.875V4H45.125V1.875C45.125 0.8395 44.2855 0 43.25 0C42.2145 0 41.375 0.8395 41.375 1.875V4H33.875V1.875C33.875 0.8395 33.0355 0 32 0C30.9645 0 30.125 0.8395 30.125 1.875V4H22.625V1.875C22.625 0.8395 21.7855 0 20.75 0C19.7145 0 18.875 0.8395 18.875 1.875V4H11.375V1.875C11.375 0.8395 10.5355 0 9.5 0C8.4645 0 7.625 0.8395 7.625 1.875V4H1.875C0.8395 4 0 4.8395 0 5.875V62.125C0 63.1605 0.8395 64 1.875 64H62.125C63.1605 64 64 63.1605 64 62.125V5.875C64 4.8395 63.1605 4 62.125 4ZM7.625 7.75V9.625C7.625 10.6605 8.4645 11.5 9.5 11.5C10.5355 11.5 11.375 10.6605 11.375 9.625V7.75H18.875V9.625C18.875 10.6605 19.7145 11.5 20.75 11.5C21.7855 11.5 22.625 10.6605 22.625 9.625V7.75H30.125V9.625C30.125 10.6605 30.9645 11.5 32 11.5C33.0355 11.5 33.875 10.6605 33.875 9.625V7.75H41.375V9.625C41.375 10.6605 42.2145 11.5 43.25 11.5C44.2855 11.5 45.125 10.6605 45.125 9.625V7.75H52.625V9.625C52.625 10.6605 53.4645 11.5 54.5 11.5C55.5355 11.5 56.375 10.6605 56.375 9.625V7.75H60.25V15.25H3.75V7.75H7.625ZM3.75 60.25V19H60.25V60.25H3.75Z" fill="#EB5A4D"/>
<path d="M20.75 26.5H13.25C12.2145 26.5 11.375 27.3395 11.375 28.375V35.875C11.375 36.9105 12.2145 37.75 13.25 37.75H20.75C21.7855 37.75 22.625 36.9105 22.625 35.875V28.375C22.625 27.3395 21.7855 26.5 20.75 26.5ZM18.875 34H15.125V30.25H18.875V34Z" fill="#EB5A4D"/>
<path d="M50.75 26.5H43.25C42.2145 26.5 41.375 27.3395 41.375 28.375V35.875C41.375 36.9105 42.2145 37.75 43.25 37.75H50.75C51.7855 37.75 52.625 36.9105 52.625 35.875V28.375C52.625 27.3395 51.7855 26.5 50.75 26.5ZM48.875 34H45.125V30.25H48.875V34Z" fill="#EB5A4D"/>
<path d="M35.75 41.375H28.25C27.2145 41.375 26.375 42.2145 26.375 43.25V50.75C26.375 51.7855 27.2145 52.625 28.25 52.625H35.75C36.7855 52.625 37.625 51.7855 37.625 50.75V43.25C37.625 42.2145 36.7855 41.375 35.75 41.375ZM33.875 48.875H30.125V45.125H33.875V48.875Z" fill="#EB5A4D"/>
<path d="M35.75 26.5H28.25C27.2145 26.5 26.375 27.3395 26.375 28.375V35.875C26.375 36.9105 27.2145 37.75 28.25 37.75H35.75C36.7855 37.75 37.625 36.9105 37.625 35.875V28.375C37.625 27.3395 36.7855 26.5 35.75 26.5ZM33.875 34H30.125V30.25H33.875V34Z" fill="#EB5A4D"/>
<path d="M50.75 41.375H43.25C42.2145 41.375 41.375 42.2145 41.375 43.25V50.75C41.375 51.7855 42.2145 52.625 43.25 52.625H50.75C51.7855 52.625 52.625 51.7855 52.625 50.75V43.25C52.625 42.2145 51.7855 41.375 50.75 41.375ZM48.875 48.875H45.125V45.125H48.875V48.875Z" fill="#EB5A4D"/>
<path d="M21.9328 43.1451C21.1293 42.4919 19.9484 42.6139 19.2952 43.4171L15.4829 48.1063L14.4389 47.2501C13.6382 46.5933 12.4568 46.7104 11.8002 47.511C11.1436 48.3118 11.2604 49.4931 12.0612 50.1497L14.5612 52.1997C15.3659 52.8597 16.5514 52.7366 17.2049 51.9328L22.2049 45.7827C22.8582 44.9792 22.7363 43.7984 21.9328 43.1451Z" fill="#EB5A4D"/>
</svg>
