<svg width="64" height="64" viewBox="0 0 64 64" fill="none" xmlns="http://www.w3.org/2000/svg">
<rect width="64" height="64" rx="8" fill="#0A3ED1"/>
<path d="M32 12C20.9868 12 12 20.9882 12 32C12 43.0133 20.9882 52 32 52C43.0132 52 52 43.0118 52 32C52 20.9867 43.0118 12 32 12ZM32 49.6562C22.2643 49.6562 14.3438 41.7357 14.3438 32C14.3438 22.2643 22.2643 14.3438 32 14.3438C41.7357 14.3438 49.6562 22.2643 49.6562 32C49.6562 41.7357 41.7357 49.6562 32 49.6562Z" fill="white"/>
<path d="M32 19.1094C30.0615 19.1094 28.4844 20.6865 28.4844 22.625C28.4844 24.5635 30.0615 26.1406 32 26.1406C33.9385 26.1406 35.5156 24.5635 35.5156 22.625C35.5156 20.6865 33.9385 19.1094 32 19.1094ZM32 23.7969C31.3538 23.7969 30.8281 23.2712 30.8281 22.625C30.8281 21.9788 31.3538 21.4531 32 21.4531C32.6462 21.4531 33.1719 21.9788 33.1719 22.625C33.1719 23.2712 32.6462 23.7969 32 23.7969Z" fill="white"/>
<path d="M32 28.4844C30.0615 28.4844 28.4844 30.0615 28.4844 32V41.375C28.4844 43.3135 30.0615 44.8906 32 44.8906C33.9385 44.8906 35.5156 43.3135 35.5156 41.375V32C35.5156 30.0615 33.9385 28.4844 32 28.4844ZM33.1719 41.375C33.1719 42.0212 32.6462 42.5469 32 42.5469C31.3538 42.5469 30.8281 42.0212 30.8281 41.375V32C30.8281 31.3538 31.3538 30.8281 32 30.8281C32.6462 30.8281 33.1719 31.3538 33.1719 32V41.375Z" fill="white"/>
</svg>
