<svg width="64" height="64" viewBox="0 0 64 64" fill="none" xmlns="http://www.w3.org/2000/svg">
<path d="M49.545 39.8496C45.8131 39.8496 42.4722 41.552 40.2555 44.2206L25.8357 36.0335C26.2841 34.7716 26.5306 33.4148 26.5306 32.0008C26.5306 30.5871 26.2841 29.2303 25.8357 27.9685L40.2544 19.7795C42.4708 22.4488 45.8123 24.1518 49.5444 24.1518C56.2014 24.1518 61.6174 18.7339 61.6174 12.0741C61.6179 5.41624 56.202 0 49.545 0C42.8871 0 37.4706 5.41624 37.4706 12.0738C37.4706 13.4878 37.7168 14.8449 38.1655 16.107L23.746 24.2963C21.5295 21.6283 18.1889 19.9265 14.4579 19.9265C7.7992 19.9265 2.38184 25.3427 2.38184 32.0006C2.38184 38.6581 7.7992 44.0744 14.4579 44.0744C18.1889 44.0744 21.5292 42.3725 23.7457 39.7048L38.1655 47.8921C37.7168 49.1543 37.4703 50.5117 37.4703 51.9259C37.4703 58.5835 42.8869 63.9997 49.5447 63.9997C56.2017 63.9997 61.6177 58.5832 61.6177 51.9259C61.6179 45.2672 56.202 39.8496 49.545 39.8496ZM49.545 4.22505C53.8723 4.22505 57.3929 7.74593 57.3929 12.0738C57.3929 16.4039 53.8723 19.9265 49.545 19.9265C45.2168 19.9265 41.6957 16.4039 41.6957 12.0738C41.6957 7.74593 45.2168 4.22505 49.545 4.22505ZM14.4582 39.8496C10.1292 39.8496 6.60717 36.3284 6.60717 32.0008C6.60717 27.6727 10.1292 24.1518 14.4582 24.1518C18.7855 24.1518 22.3058 27.6727 22.3058 32.0008C22.3058 36.3284 18.7852 39.8496 14.4582 39.8496ZM49.545 59.775C45.2168 59.775 41.6957 56.2538 41.6957 51.9262C41.6957 47.5969 45.2168 44.0746 49.545 44.0746C53.8723 44.0746 57.3929 47.5969 57.3929 51.9262C57.3929 56.2538 53.8723 59.775 49.545 59.775Z" fill="#EB5A4D"/>
</svg>
