<svg width="64" height="64" viewBox="0 0 64 64" fill="none" xmlns="http://www.w3.org/2000/svg">
<path d="M37.625 28.25C37.625 25.1484 35.1016 22.625 32 22.625C28.8984 22.625 26.375 25.1484 26.375 28.25C26.375 31.3516 28.8984 33.875 32 33.875C35.1016 33.875 37.625 31.3516 37.625 28.25ZM32 30.125C30.9661 30.125 30.125 29.2839 30.125 28.25C30.125 27.2161 30.9661 26.375 32 26.375C33.0339 26.375 33.875 27.2161 33.875 28.25C33.875 29.2839 33.0339 30.125 32 30.125Z" fill="#EB5A4D"/>
<path d="M54.625 45.25C52.717 45.25 50.9412 45.8242 49.4589 46.8071L45.1786 42.527C47.4902 39.639 48.875 35.9784 48.875 32C48.875 28.0216 47.4902 24.361 45.1786 21.473L49.4589 17.1929C50.9412 18.1758 52.717 18.75 54.625 18.75C59.7944 18.75 64 14.5444 64 9.375C64 4.20563 59.7944 0 54.625 0C49.4556 0 45.25 4.20563 45.25 9.375C45.25 11.283 45.8242 13.0588 46.8073 14.5411L42.527 18.8214C39.639 16.5098 35.9784 15.125 32 15.125C28.0216 15.125 24.361 16.5098 21.473 18.8214L17.1928 14.5411C18.1758 13.0588 18.75 11.283 18.75 9.375C18.75 4.20563 14.5444 0 9.375 0C4.20563 0 0 4.20563 0 9.375C0 14.5444 4.20563 18.75 9.375 18.75C11.283 18.75 13.0588 18.1758 14.5411 17.1929L18.8214 21.473C16.5098 24.361 15.125 28.0216 15.125 32C15.125 35.9784 16.5098 39.639 18.8214 42.527L14.5411 46.8071C13.0588 45.8242 11.283 45.25 9.375 45.25C4.20563 45.25 0 49.4556 0 54.625C0 59.7944 4.20563 64 9.375 64C14.5444 64 18.75 59.7944 18.75 54.625C18.75 52.717 18.1758 50.9412 17.1928 49.4588L21.473 45.1786C24.361 47.4902 28.0216 48.875 32 48.875C35.9784 48.875 39.639 47.4902 42.527 45.1786L46.8073 49.4588C45.8242 50.9412 45.25 52.717 45.25 54.625C45.25 59.7944 49.4556 64 54.625 64C59.7944 64 64 59.7944 64 54.625C64 49.4556 59.7944 45.25 54.625 45.25ZM54.625 3.75C57.7266 3.75 60.25 6.27338 60.25 9.375C60.25 12.4766 57.7266 15 54.625 15C51.5234 15 49 12.4766 49 9.375C49 6.27338 51.5234 3.75 54.625 3.75ZM45.125 32C45.125 35.6646 43.6147 38.9825 41.1847 41.366C40.3102 37.0964 36.5243 33.875 32 33.875C27.4757 33.875 23.6898 37.0964 22.8153 41.366C20.3853 38.9825 18.875 35.6646 18.875 32C18.875 24.7629 24.7629 18.875 32 18.875C39.2371 18.875 45.125 24.7629 45.125 32ZM9.375 15C6.27338 15 3.75 12.4766 3.75 9.375C3.75 6.27338 6.27338 3.75 9.375 3.75C12.4766 3.75 15 6.27338 15 9.375C15 12.4766 12.4766 15 9.375 15ZM9.375 60.25C6.27338 60.25 3.75 57.7266 3.75 54.625C3.75 51.5234 6.27338 49 9.375 49C12.4766 49 15 51.5234 15 54.625C15 57.7266 12.4766 60.25 9.375 60.25ZM26.375 43.8569V43.25C26.375 40.1484 28.8984 37.625 32 37.625C35.1016 37.625 37.625 40.1484 37.625 43.25V43.8569C35.9191 44.6694 34.0119 45.125 32 45.125C29.9881 45.125 28.0809 44.6694 26.375 43.8569ZM54.625 60.25C51.5234 60.25 49 57.7266 49 54.625C49 51.5234 51.5234 49 54.625 49C57.7266 49 60.25 51.5234 60.25 54.625C60.25 57.7266 57.7266 60.25 54.625 60.25Z" fill="#EB5A4D"/>
</svg>
