<svg width="64" height="64" viewBox="0 0 64 64" fill="none" xmlns="http://www.w3.org/2000/svg">
<rect width="64" height="64" rx="8" fill="#3E0AD0"/>
<path d="M44.6389 14.8423H43.0498V12.9081C43.0498 12.4065 42.6433 12 42.1417 12C41.6405 12 41.2337 12.4065 41.2337 12.9081V14.8512H22.9001V12.9081C22.9001 12.4065 22.4936 12 21.9921 12C21.4905 12 21.084 12.4065 21.084 12.9081V14.8512H19.5403C17.0332 14.8522 15.0011 16.8844 15 19.3915V47.4597C15.0011 49.9668 17.0332 51.9989 19.5403 52H44.63C47.1371 51.9989 49.1693 49.9668 49.1703 47.4597V19.3826C49.1703 16.8787 47.1432 14.8473 44.6389 14.8423ZM47.3631 47.4505C47.3588 48.9534 46.1418 50.1704 44.6389 50.1747H19.5403C18.0377 50.1704 16.8204 48.9534 16.8161 47.4505V19.3826C16.8204 17.8797 18.0377 16.6627 19.5403 16.6584H21.084V18.0659C21.084 18.5675 21.4905 18.974 21.9921 18.974C22.4936 18.974 22.9001 18.5675 22.9001 18.0659V16.6584H41.2337V18.0659C41.2337 18.5675 41.6405 18.974 42.1417 18.974C42.6433 18.974 43.0498 18.5675 43.0498 18.0659V16.6584H44.6389C46.1418 16.6627 47.3588 17.8797 47.3631 19.3826V47.4505Z" fill="white"/>
<path d="M26.5504 31.2508L23.1998 34.4471L21.6561 32.9034C21.3025 32.5498 20.7293 32.5498 20.3756 32.9034C20.022 33.2571 20.022 33.8303 20.3756 34.184L22.5461 36.3541C22.7164 36.5258 22.9491 36.6208 23.1906 36.6176C23.4251 36.6198 23.6507 36.5282 23.8174 36.3633L27.8036 32.5494C28.0395 32.3263 28.1378 31.994 28.0604 31.6786C27.9831 31.3633 27.7423 31.1136 27.4301 31.0253C27.1176 30.9366 26.7817 31.0228 26.5504 31.2508Z" fill="white"/>
<path d="M43.1679 32.9034H32.7252C32.2237 32.9034 31.8172 33.3099 31.8172 33.8115C31.8172 34.3131 32.2237 34.7196 32.7252 34.7196H43.1679C43.6695 34.7196 44.076 34.3131 44.076 33.8115C44.076 33.3099 43.6695 32.9034 43.1679 32.9034Z" fill="white"/>
<path d="M26.5504 22.1703L23.1998 25.3666L21.6561 23.8229C21.3025 23.4692 20.7293 23.4692 20.3756 23.8229C20.022 24.1765 20.022 24.7497 20.3756 25.1034L22.5461 27.2735C22.7164 27.4452 22.9491 27.5402 23.1906 27.5371C23.4251 27.5392 23.6507 27.4477 23.8174 27.2827L27.8036 23.4689C28.0395 23.2458 28.1378 22.9134 28.0604 22.5981C27.9831 22.2827 27.7423 22.033 27.4301 21.9447C27.1176 21.856 26.7817 21.9422 26.5504 22.1703Z" fill="white"/>
<path d="M43.1679 23.8229H32.7252C32.2237 23.8229 31.8172 24.2294 31.8172 24.7309C31.8172 25.2325 32.2237 25.639 32.7252 25.639H43.1679C43.6695 25.639 44.076 25.2325 44.076 24.7309C44.076 24.2294 43.6695 23.8229 43.1679 23.8229Z" fill="white"/>
<path d="M26.5504 40.3314L23.1998 43.5277L21.6561 41.984C21.3025 41.6304 20.7293 41.6304 20.3756 41.984C20.022 42.3377 20.022 42.9109 20.3756 43.2645L22.5461 45.4346C22.7164 45.6063 22.9491 45.7014 23.1906 45.6982C23.4251 45.7003 23.6507 45.6088 23.8174 45.4439L27.8036 41.63C28.0395 41.4069 28.1378 41.0745 28.0604 40.7592C27.9831 40.4439 27.7423 40.1941 27.4301 40.1058C27.1176 40.0171 26.7817 40.1033 26.5504 40.3314Z" fill="white"/>
<path d="M43.1679 41.984H32.7252C32.2237 41.984 31.8172 42.3905 31.8172 42.8921C31.8172 43.3936 32.2237 43.8001 32.7252 43.8001H43.1679C43.6695 43.8001 44.076 43.3936 44.076 42.8921C44.076 42.3905 43.6695 41.984 43.1679 41.984Z" fill="white"/>
</svg>
