<svg width="64" height="64" viewBox="0 0 64 64" fill="none" xmlns="http://www.w3.org/2000/svg">
<rect width="64" height="64" rx="8" fill="#0A3ED1"/>
<path d="M44.6389 14.8423H43.0498V12.9081C43.0498 12.4065 42.6433 12 42.1417 12C41.6405 12 41.2337 12.4065 41.2337 12.9081V14.8512H22.9001V12.9081C22.9001 12.4065 22.4936 12 21.9921 12C21.4905 12 21.084 12.4065 21.084 12.9081V14.8512H19.5403C17.0332 14.8522 15.0011 16.8844 15 19.3915V47.4597C15.0011 49.9668 17.0332 51.9989 19.5403 52H44.63C47.1371 51.9989 49.1693 49.9668 49.1703 47.4597V19.3826C49.1703 16.8787 47.1432 14.8473 44.6389 14.8423ZM47.3631 47.4505C47.3588 48.9534 46.1418 50.1704 44.6389 50.1747H19.5403C18.0377 50.1704 16.8204 48.9534 16.8161 47.4505V19.3826C16.8204 17.8797 18.0377 16.6627 19.5403 16.6584H21.084V18.0659C21.084 18.5675 21.4905 18.974 21.9921 18.974C22.4936 18.974 22.9001 18.5675 22.9001 18.0659V16.6584H41.2337V18.0659C41.2337 18.5675 41.6405 18.974 42.1417 18.974C42.6433 18.974 43.0498 18.5675 43.0498 18.0659V16.6584H44.6389C46.1418 16.6627 47.3588 17.8797 47.3631 19.3826V47.4505Z" fill="white"/>
<path d="M26.5504 31.2508L23.1998 34.4471L21.6561 32.9034C21.3024 32.5498 20.7292 32.5498 20.3756 32.9034C20.0219 33.2571 20.0219 33.8303 20.3756 34.184L22.5461 36.3541C22.7163 36.5258 22.949 36.6208 23.1906 36.6176C23.425 36.6198 23.6506 36.5282 23.8173 36.3633L27.8036 32.5494C28.0395 32.3263 28.1377 31.994 28.0604 31.6786C27.9831 31.3633 27.7422 31.1136 27.4301 31.0253C27.1176 30.9366 26.7817 31.0228 26.5504 31.2508Z" fill="white"/>
<path d="M43.1679 32.9036H32.7252C32.2236 32.9036 31.8171 33.3101 31.8171 33.8116C31.8171 34.3132 32.2236 34.7197 32.7252 34.7197H43.1679C43.6694 34.7197 44.0759 34.3132 44.0759 33.8116C44.0759 33.3101 43.6694 32.9036 43.1679 32.9036Z" fill="white"/>
<path d="M26.5504 22.1703L23.1998 25.3666L21.6561 23.8229C21.3024 23.4692 20.7292 23.4692 20.3756 23.8229C20.0219 24.1765 20.0219 24.7497 20.3756 25.1034L22.5461 27.2735C22.7163 27.4452 22.949 27.5402 23.1906 27.5371C23.425 27.5392 23.6506 27.4477 23.8173 27.2827L27.8036 23.4689C28.0395 23.2458 28.1377 22.9134 28.0604 22.5981C27.9831 22.2827 27.7422 22.033 27.4301 21.9447C27.1176 21.856 26.7817 21.9422 26.5504 22.1703Z" fill="white"/>
<path d="M43.1679 23.823H32.7252C32.2236 23.823 31.8171 24.2295 31.8171 24.7311C31.8171 25.2326 32.2236 25.6391 32.7252 25.6391H43.1679C43.6694 25.6391 44.0759 25.2326 44.0759 24.7311C44.0759 24.2295 43.6694 23.823 43.1679 23.823Z" fill="white"/>
<path d="M26.5504 40.3314L23.1998 43.5277L21.6561 41.984C21.3024 41.6304 20.7292 41.6304 20.3756 41.984C20.0219 42.3377 20.0219 42.9109 20.3756 43.2645L22.5461 45.4346C22.7163 45.6063 22.949 45.7014 23.1906 45.6982C23.425 45.7003 23.6506 45.6088 23.8173 45.4439L27.8036 41.63C28.0395 41.4069 28.1377 41.0745 28.0604 40.7592C27.9831 40.4439 27.7422 40.1941 27.4301 40.1058C27.1176 40.0171 26.7817 40.1033 26.5504 40.3314Z" fill="white"/>
<path d="M43.1679 41.9841H32.7252C32.2236 41.9841 31.8171 42.3906 31.8171 42.8922C31.8171 43.3938 32.2236 43.8003 32.7252 43.8003H43.1679C43.6694 43.8003 44.0759 43.3938 44.0759 42.8922C44.0759 42.3906 43.6694 41.9841 43.1679 41.9841Z" fill="white"/>
</svg>
