<svg width="64" height="64" viewBox="0 0 64 64" fill="none" xmlns="http://www.w3.org/2000/svg">
<rect width="64" height="64" rx="8" fill="#0A3ED1"/>
<path d="M41.0883 52.0001C40.8083 52.0001 40.5217 51.9651 40.2384 51.8901L14.4667 44.9884C12.7 44.5017 11.6467 42.6717 12.11 40.9051L15.3617 28.7851C15.4817 28.3401 15.9383 28.0817 16.3817 28.1951C16.8267 28.3134 17.09 28.7717 16.9717 29.2151L13.7217 41.3317C13.49 42.2151 14.02 43.1351 14.905 43.3801L40.6667 50.2784C41.5517 50.5117 42.465 49.9851 42.695 49.1051L43.9967 44.2817C44.1167 43.8367 44.5734 43.5717 45.0184 43.6934C45.4634 43.8134 45.725 44.2717 45.6067 44.7151L44.3067 49.5317C43.915 51.0151 42.565 52.0001 41.0883 52.0001Z" fill="white"/>
<path d="M48.6667 42H22C20.1617 42 18.6667 40.505 18.6667 38.6667V18.6667C18.6667 16.8284 20.1617 15.3334 22 15.3334H48.6667C50.505 15.3334 52 16.8284 52 18.6667V38.6667C52 40.505 50.505 42 48.6667 42ZM22 17C21.0817 17 20.3333 17.7484 20.3333 18.6667V38.6667C20.3333 39.585 21.0817 40.3334 22 40.3334H48.6667C49.585 40.3334 50.3334 39.585 50.3334 38.6667V18.6667C50.3334 17.7484 49.585 17 48.6667 17H22Z" fill="white"/>
<path d="M27 27C25.1617 27 23.6667 25.505 23.6667 23.6667C23.6667 21.8284 25.1617 20.3334 27 20.3334C28.8383 20.3334 30.3333 21.8284 30.3333 23.6667C30.3333 25.505 28.8383 27 27 27ZM27 22C26.0817 22 25.3333 22.7484 25.3333 23.6667C25.3333 24.585 26.0817 25.3334 27 25.3334C27.9183 25.3334 28.6667 24.585 28.6667 23.6667C28.6667 22.7484 27.9183 22 27 22Z" fill="white"/>
<path d="M19.6167 40.2167C19.4033 40.2167 19.19 40.135 19.0267 39.9734C18.7017 39.6484 18.7017 39.12 19.0267 38.795L26.8983 30.9234C27.8417 29.98 29.49 29.98 30.4333 30.9234L32.7767 33.2667L39.2634 25.4834C39.735 24.9184 40.4284 24.59 41.1667 24.5834H41.185C41.915 24.5834 42.6067 24.9 43.0834 25.455L51.8 35.625C52.1 35.9734 52.06 36.5 51.71 36.8C51.3617 37.1 50.8367 37.0617 50.535 36.71L41.8184 26.54C41.6567 26.3534 41.4334 26.25 41.185 26.25C41.0117 26.235 40.7067 26.355 40.545 26.55L33.4734 35.035C33.3234 35.215 33.105 35.3234 32.87 35.3334C32.6334 35.35 32.4084 35.2567 32.2434 35.09L29.255 32.1017C28.94 31.7884 28.3917 31.7884 28.0767 32.1017L20.205 39.9734C20.0433 40.135 19.83 40.2167 19.6167 40.2167Z" fill="white"/>
</svg>
