<svg width="64" height="64" viewBox="0 0 64 64" fill="none" xmlns="http://www.w3.org/2000/svg">
<rect width="64" height="64" rx="8" fill="#0A3ED1"/>
<path d="M27.4751 42.0543H18.3348C17.835 42.0543 17.4299 42.4595 17.4299 42.9593C17.4299 43.4591 17.835 43.8643 18.3348 43.8643H27.4751C27.9749 43.8643 28.3801 43.4591 28.3801 42.9593C28.3801 42.4595 27.9749 42.0543 27.4751 42.0543Z" fill="white"/>
<path d="M41.1403 42.0543H32C31.5002 42.0543 31.095 42.4595 31.095 42.9593C31.095 43.4591 31.5002 43.8643 32 43.8643H41.1403C41.64 43.8643 42.0453 43.4591 42.0453 42.9593C42.0453 42.4595 41.64 42.0543 41.1403 42.0543Z" fill="white"/>
<path d="M41.1403 19.4299H18.3348C17.835 19.4299 17.4299 19.8351 17.4299 20.3349C17.4299 20.8347 17.835 21.2399 18.3348 21.2399H41.1403C41.64 21.2399 42.0452 20.8347 42.0452 20.3349C42.0452 19.8351 41.64 19.4299 41.1403 19.4299Z" fill="white"/>
<path d="M41.1403 23.9547H32C31.5002 23.9547 31.095 24.3599 31.095 24.8597C31.095 25.3595 31.5002 25.7647 32 25.7647H41.1403C41.64 25.7647 42.0453 25.3595 42.0453 24.8597C42.0453 24.3599 41.64 23.9547 41.1403 23.9547Z" fill="white"/>
<path d="M41.1403 28.4796H32C31.5002 28.4796 31.095 28.8848 31.095 29.3846C31.095 29.8844 31.5002 30.2896 32 30.2896H41.1403C41.64 30.2896 42.0453 29.8844 42.0453 29.3846C42.0453 28.8848 41.64 28.4796 41.1403 28.4796Z" fill="white"/>
<path d="M41.1403 33.0045H32C31.5002 33.0045 31.095 33.4097 31.095 33.9095C31.095 34.4093 31.5002 34.8145 32 34.8145H41.1403C41.64 34.8145 42.0453 34.4093 42.0453 33.9095C42.0453 33.4097 41.64 33.0045 41.1403 33.0045Z" fill="white"/>
<path d="M41.1403 37.5294H32C31.5002 37.5294 31.095 37.9346 31.095 38.4344C31.095 38.9342 31.5002 39.3394 32 39.3394H41.1403C41.64 39.3394 42.0453 38.9342 42.0453 38.4344C42.0453 37.9346 41.64 37.5294 41.1403 37.5294Z" fill="white"/>
<path d="M27.4751 37.5294H18.3348C17.835 37.5294 17.4299 37.9346 17.4299 38.4344C17.4299 38.9342 17.835 39.3394 18.3348 39.3394H27.4751C27.9749 39.3394 28.3801 38.9342 28.3801 38.4344C28.3801 37.9346 27.9749 37.5294 27.4751 37.5294Z" fill="white"/>
<path d="M27.4751 23.9547H18.3348C17.835 23.9547 17.4299 24.3599 17.4299 24.8597V34C17.4299 34.4998 17.835 34.9049 18.3348 34.9049H27.4751C27.9749 34.9049 28.3801 34.4998 28.3801 34V24.8597C28.3801 24.3599 27.9749 23.9547 27.4751 23.9547ZM26.5701 33.095H19.2398V25.7647H26.5701V33.095Z" fill="white"/>
<path d="M50.19 18.5249H47.4751V15.81C47.4751 14.8119 46.6632 14 45.6652 14H13.81C12.8119 14 12 14.8119 12 15.81V44.7692C12 47.2643 14.0299 49.2941 16.5249 49.2941H47.4751C49.9701 49.2941 52 47.2643 52 44.7692V20.3348C52 19.3368 51.1881 18.5249 50.19 18.5249ZM50.19 44.7692C50.19 46.2663 48.9721 47.4842 47.4751 47.4842H16.5249C15.0279 47.4842 13.81 46.2663 13.81 44.7692V15.81H45.6652V43.4118C45.6652 44.6593 46.6801 45.6742 47.9276 45.6742C48.4273 45.6742 48.8326 45.2691 48.8326 44.7692C48.8326 44.2694 48.4273 43.8643 47.9276 43.8643C47.6781 43.8643 47.4751 43.6613 47.4751 43.4118V20.3348H50.19V44.7692Z" fill="white"/>
</svg>
