<svg width="64" height="64" viewBox="0 0 64 64" fill="none" xmlns="http://www.w3.org/2000/svg">
<path d="M48.0254 2H15.9746C13.9989 2.00193 12.1047 2.78755 10.7076 4.18448C9.31051 5.5814 8.52465 7.47551 8.52246 9.45118V49.4297C8.52465 51.4053 9.31051 53.2995 10.7076 54.6964C12.1047 56.0933 13.9989 56.8789 15.9746 56.8809H25.9648C26.4953 56.8809 27.004 56.6701 27.3791 56.2951C27.7541 55.92 27.9648 55.4113 27.9648 54.8809C27.9648 54.3504 27.7541 53.8417 27.3791 53.4666C27.004 53.0916 26.4953 52.8809 25.9648 52.8809H15.9746C15.0595 52.8798 14.1822 52.5159 13.535 51.869C12.8879 51.222 12.5237 50.3448 12.5225 49.4297V9.45118C12.5237 8.5361 12.8879 7.65887 13.535 7.0119C14.1822 6.36492 15.0595 6.00102 15.9746 6H48.0254C48.9405 6.00102 49.8178 6.36492 50.465 7.0119C51.1121 7.65887 51.4763 8.5361 51.4775 9.45118V38.17C51.4775 38.7004 51.6882 39.2091 52.0633 39.5842C52.4384 39.9593 52.9471 40.17 53.4775 40.17C54.008 40.17 54.5167 39.9593 54.8917 39.5842C55.2668 39.2091 55.4775 38.7004 55.4775 38.17V9.45118C55.4753 7.47551 54.6895 5.5814 53.2924 4.18448C51.8953 2.78755 50.0011 2.00193 48.0254 2Z" fill="#EB5A4D"/>
<path d="M20.1234 11.009C19.5843 11.009 19.0573 11.1689 18.6091 11.4684C18.1609 11.7679 17.8115 12.1936 17.6052 12.6917C17.3989 13.1898 17.3449 13.7378 17.4501 14.2666C17.5553 14.7953 17.8149 15.281 18.1961 15.6622C18.5773 16.0434 19.063 16.303 19.5917 16.4082C20.1205 16.5134 20.6685 16.4594 21.1666 16.2531C21.6647 16.0468 22.0904 15.6974 22.3899 15.2492C22.6894 14.801 22.8493 14.274 22.8493 13.7349C22.8493 13.3769 22.7788 13.0224 22.6418 12.6917C22.5048 12.361 22.304 12.0605 22.0509 11.8074C21.7978 11.5543 21.4973 11.3535 21.1666 11.2165C20.8359 11.0795 20.4814 11.009 20.1234 11.009Z" fill="#EB5A4D"/>
<path d="M29.7607 15.7344H46.8604C47.3908 15.7344 47.8995 15.5237 48.2746 15.1486C48.6497 14.7735 48.8604 14.2648 48.8604 13.7344C48.8604 13.2039 48.6497 12.6952 48.2746 12.3202C47.8995 11.9451 47.3908 11.7344 46.8604 11.7344H29.7607C29.2303 11.7344 28.7216 11.9451 28.3465 12.3202C27.9715 12.6952 27.7607 13.2039 27.7607 13.7344C27.7607 14.2648 27.9715 14.7735 28.3465 15.1486C28.7216 15.5237 29.2303 15.7344 29.7607 15.7344Z" fill="#EB5A4D"/>
<path d="M20.1234 20.9387C19.5843 20.9387 19.0573 21.0986 18.6091 21.3981C18.1608 21.6976 17.8115 22.1234 17.6052 22.6214C17.3989 23.1195 17.3449 23.6676 17.4501 24.1963C17.5553 24.7251 17.8149 25.2108 18.1961 25.592C18.5773 25.9732 19.063 26.2328 19.5918 26.3379C20.1205 26.4431 20.6686 26.3891 21.1667 26.1828C21.6647 25.9764 22.0904 25.6271 22.3899 25.1788C22.6894 24.7305 22.8493 24.2035 22.8493 23.6644C22.8493 23.3065 22.7788 22.952 22.6418 22.6213C22.5048 22.2906 22.304 21.9901 22.0509 21.737C21.7978 21.4839 21.4973 21.2831 21.1666 21.1462C20.8359 21.0092 20.4814 20.9387 20.1234 20.9387Z" fill="#EB5A4D"/>
<path d="M29.7607 25.6639H46.8604C47.3908 25.6639 47.8995 25.4532 48.2746 25.0782C48.6497 24.7031 48.8604 24.1944 48.8604 23.6639C48.8604 23.1335 48.6497 22.6248 48.2746 22.2497C47.8995 21.8747 47.3908 21.6639 46.8604 21.6639H29.7607C29.2303 21.6639 28.7216 21.8747 28.3465 22.2497C27.9715 22.6248 27.7607 23.1335 27.7607 23.6639C27.7607 24.1944 27.9715 24.7031 28.3465 25.0782C28.7216 25.4532 29.2303 25.6639 29.7607 25.6639Z" fill="#EB5A4D"/>
<path d="M20.1234 30.8683C19.5843 30.8683 19.0573 31.0282 18.6091 31.3277C18.1608 31.6272 17.8115 32.0529 17.6052 32.551C17.3989 33.0491 17.3449 33.5971 17.4501 34.1259C17.5553 34.6546 17.8149 35.1403 18.1961 35.5215C18.5773 35.9027 19.063 36.1623 19.5918 36.2675C20.1205 36.3727 20.6686 36.3187 21.1666 36.1124C21.6647 35.906 22.0904 35.5567 22.3899 35.1084C22.6894 34.6601 22.8493 34.1331 22.8493 33.594C22.8493 33.2361 22.7788 32.8816 22.6418 32.5509C22.5048 32.2202 22.304 31.9197 22.0509 31.6666C21.7978 31.4135 21.4973 31.2127 21.1666 31.0757C20.8359 30.9388 20.4814 30.8683 20.1234 30.8683Z" fill="#EB5A4D"/>
<path d="M29.7607 35.5938H46.8604C47.3908 35.5938 47.8995 35.383 48.2746 35.008C48.6497 34.6329 48.8604 34.1242 48.8604 33.5938C48.8604 33.0633 48.6497 32.5546 48.2746 32.1795C47.8995 31.8045 47.3908 31.5938 46.8604 31.5938H29.7607C29.2303 31.5938 28.7216 31.8045 28.3465 32.1795C27.9715 32.5546 27.7607 33.0633 27.7607 33.5938C27.7607 34.1242 27.9715 34.6329 28.3465 35.008C28.7216 35.383 29.2303 35.5938 29.7607 35.5938Z" fill="#EB5A4D"/>
<path d="M44.0754 41.3427C44.0018 40.8843 43.7673 40.4671 43.4139 40.166C43.0606 39.8648 42.6115 39.6994 42.1473 39.6995C41.683 39.6995 41.2339 39.8649 40.8806 40.1661C40.5273 40.4673 40.2929 40.8845 40.2194 41.3429C38.3078 41.7797 36.6007 42.8514 35.3767 44.3832C34.1526 45.9151 33.4838 47.8165 33.4795 49.7773V54.1113C32.9199 54.5523 32.4672 55.1141 32.1554 55.7547C31.8436 56.3953 31.6806 57.0981 31.6787 57.8106C31.6786 58.0732 31.7303 58.3333 31.8308 58.576C31.9313 58.8187 32.0786 59.0392 32.2643 59.2249C32.4501 59.4107 32.6706 59.558 32.9133 59.6585C33.1559 59.7589 33.416 59.8106 33.6787 59.8106H40.1475V60C40.1475 60.5304 40.3582 61.0391 40.7332 61.4142C41.1083 61.7893 41.617 62 42.1475 62C42.6779 62 43.1866 61.7893 43.5617 61.4142C43.9367 61.0391 44.1475 60.5304 44.1475 60V59.8105H50.6172C50.8798 59.8106 51.1399 59.7589 51.3826 59.6584C51.6253 59.558 51.8458 59.4106 52.0316 59.2249C52.2173 59.0392 52.3646 58.8187 52.4651 58.576C52.5656 58.3333 52.6173 58.0732 52.6172 57.8105C52.6155 57.0978 52.4527 56.3946 52.1408 55.7536C51.829 55.1127 51.3762 54.5506 50.8164 54.1094V49.7774C50.812 47.8164 50.1431 45.9147 48.9188 44.3828C47.6945 42.8509 45.9872 41.7792 44.0754 41.3427ZM37.4014 55.8105C37.4531 55.6302 37.4794 55.4435 37.4795 55.2559V49.7773C37.4821 48.5409 37.975 47.3559 38.8503 46.4825C39.7255 45.6091 40.9115 45.1185 42.1479 45.1185C43.3844 45.1185 44.5704 45.6091 45.4456 46.4825C46.3209 47.3559 46.8138 48.5409 46.8164 49.7773V55.2559C46.8165 55.4435 46.8428 55.6302 46.8945 55.8105H37.4014Z" fill="#EB5A4D"/>
</svg>
