<svg width="64" height="64" viewBox="0 0 64 64" fill="none" xmlns="http://www.w3.org/2000/svg">
<rect width="64" height="64" rx="8" fill="#0A3ED1"/>
<path d="M50.8088 21.4301C50.8088 21.2782 50.775 21.1262 50.7075 20.9827C50.5724 20.6957 50.3107 20.5015 50.0236 20.4424L32.8265 12.1013C32.5479 11.9662 32.2187 11.9662 31.9401 12.1013L14.5741 20.5184C14.2364 20.6788 14.0169 21.0165 14 21.3964V21.4048C14 21.4133 14 21.4217 14 21.4386V42.5614C14 42.9498 14.2195 43.3043 14.5741 43.4732L31.9401 51.8903C31.9485 51.8903 31.9485 51.8903 31.9569 51.8987C31.9823 51.9071 32.0076 51.9156 32.0329 51.9325C32.0414 51.9325 32.0498 51.9409 32.0667 51.9409C32.092 51.9493 32.1173 51.9578 32.1427 51.9662C32.1511 51.9662 32.1596 51.9747 32.168 51.9747C32.1933 51.9831 32.2271 51.9831 32.2524 51.9916C32.2609 51.9916 32.2693 51.9916 32.2777 51.9916C32.3115 51.9916 32.3537 52 32.3875 52C32.4213 52 32.4635 52 32.4972 51.9916C32.5057 51.9916 32.5141 51.9916 32.5226 51.9916C32.5479 51.9916 32.5817 51.9831 32.607 51.9747C32.6154 51.9747 32.6239 51.9662 32.6323 51.9662C32.6577 51.9578 32.683 51.9493 32.7083 51.9409C32.7167 51.9409 32.7252 51.9325 32.7421 51.9325C32.7674 51.924 32.7927 51.9156 32.8181 51.8987C32.8265 51.8987 32.8265 51.8987 32.8349 51.8903L50.2516 43.4479C50.5977 43.279 50.8256 42.9244 50.8256 42.5361V21.4555C50.8088 21.447 50.8088 21.4386 50.8088 21.4301ZM32.3791 14.1359L47.4403 21.4386L41.8936 24.1317L26.8324 16.829L32.3791 14.1359ZM32.3791 28.7412L17.3179 21.4386L24.5108 17.9519L39.572 25.2545L32.3791 28.7412ZM16.0262 23.068L31.366 30.5057V49.3575L16.0262 41.9198V23.068ZM33.3921 49.3575V30.5057L40.5935 27.0106V31.9409C40.5935 32.4981 41.0494 32.954 41.6066 32.954C42.1638 32.954 42.6197 32.4981 42.6197 31.9409V26.0228L48.7826 23.0342V41.886L33.3921 49.3575Z" fill="white"/>
</svg>
