<svg width="488" height="405" viewBox="0 0 488 405" fill="none" xmlns="http://www.w3.org/2000/svg">
<g clip-path="url(#clip0_50_1310)">
<path d="M41.1703 325.583C40.216 322.499 39.2618 319.301 38.3302 316.081L40.6023 315.378C41.5111 318.576 42.4654 321.75 43.4197 324.835L41.1703 325.583ZM445.671 321.592L443.331 321.297C443.717 318.009 444.08 314.698 444.421 311.455L446.762 311.727C446.443 314.992 446.057 318.303 445.671 321.592ZM35.74 306.511C34.9221 303.336 34.1041 300.093 33.3543 296.873L35.6491 296.283C36.3989 299.481 37.1942 302.701 38.0121 305.876L35.74 306.511ZM447.739 301.839L445.398 301.613C445.694 298.302 445.966 294.991 446.216 291.748L448.556 291.952C448.329 295.195 448.034 298.529 447.739 301.839ZM31.1958 287.167C30.5142 283.924 29.8553 280.636 29.2645 277.416L31.5821 276.939C32.1728 280.137 32.809 283.403 33.4906 286.623L31.1958 287.167ZM449.238 282.019L446.875 281.86C447.08 278.572 447.261 275.239 447.398 271.973L449.761 272.086C449.624 275.352 449.443 278.708 449.238 282.019ZM27.5832 267.596C27.0606 264.308 26.5835 260.997 26.1291 257.754L28.4693 257.414C28.901 260.634 29.3782 263.922 29.9007 267.188L27.5832 267.596ZM450.124 262.154L447.761 262.086C447.852 258.775 447.92 255.441 447.943 252.175L450.306 252.198C450.283 255.464 450.215 258.82 450.124 262.154ZM24.9476 247.889C24.6068 244.578 24.2887 241.245 24.0387 237.979L26.379 237.775C26.6289 241.018 26.9243 244.329 27.2878 247.617L24.9476 247.889ZM447.966 242.288C447.943 238.977 447.875 235.643 447.784 232.401L450.147 232.332C450.238 235.598 450.306 238.954 450.329 242.288H447.966ZM23.4253 228.024C23.2662 224.69 23.1753 221.334 23.1072 218.068L25.4702 218.023C25.5156 221.266 25.6292 224.599 25.7655 227.888L23.4253 228.024ZM447.398 222.49C447.239 219.179 447.034 215.868 446.807 212.626L449.17 212.444C449.397 215.71 449.602 219.043 449.761 222.377L447.398 222.49ZM25.4929 208.135L23.1299 208.09C23.1981 204.734 23.3117 201.4 23.5162 198.135L25.8791 198.271C25.6746 201.514 25.561 204.824 25.4929 208.135ZM445.989 202.761C445.671 199.45 445.307 196.139 444.921 192.941L447.261 192.624C447.648 195.867 448.011 199.178 448.329 202.511L445.989 202.761ZM26.6062 188.429L24.2659 188.179C24.584 184.845 24.9703 181.512 25.4247 178.269L27.765 178.632C27.3105 181.852 26.9243 185.14 26.6062 188.429ZM443.626 183.145C443.126 179.856 442.604 176.568 442.036 173.393L444.353 172.94C444.921 176.137 445.466 179.448 445.966 182.759L443.626 183.145ZM164.636 182.804C161.364 182.26 158.978 180.695 155.706 178.02L157.206 176.115C160.092 178.473 162.159 179.879 164.908 180.355L164.636 182.804ZM172.815 176.931L170.725 175.82C171.816 173.62 172.77 170.536 173.565 166.703L175.86 167.225C174.997 171.33 173.997 174.504 172.815 176.931ZM148.777 170.944C146.891 168.767 144.891 166.25 142.642 163.256L144.505 161.737C146.732 164.685 148.708 167.157 150.549 169.311L148.777 170.944ZM29.3327 168.926L27.0152 168.45C27.6286 165.161 28.3103 161.873 29.0601 158.698L31.3549 159.288C30.6278 162.44 29.9462 165.66 29.3327 168.926ZM440.104 163.733C439.4 160.467 438.65 157.247 437.855 154.14L440.127 153.505C440.922 156.634 441.672 159.9 442.376 163.188L440.104 163.733ZM177.45 157.315L175.11 156.997C175.474 154.049 175.792 150.829 176.11 147.155L178.45 147.359C178.132 151.078 177.814 154.321 177.45 157.315ZM136.848 155.297C134.94 152.598 132.94 149.74 131.236 147.269L133.145 145.817C134.849 148.289 136.848 151.146 138.757 153.822L136.848 155.297ZM309.55 155.092C307.709 155.092 305.915 154.525 304.188 153.392L305.437 151.305C308.028 153.006 310.55 153.006 313.299 151.645L314.321 153.868C312.708 154.684 311.095 155.092 309.55 155.092ZM33.8769 149.786L31.6275 149.06C32.5591 145.863 33.6042 142.665 34.6948 139.604L36.8988 140.465C35.8082 143.504 34.8085 146.634 33.8769 149.786ZM322.046 147.45L320.32 145.772C322.115 143.754 324.023 141.259 326.182 138.13L328.09 139.581C325.886 142.778 323.909 145.341 322.046 147.45ZM297.485 145.749C295.963 143.277 294.44 140.397 292.85 136.882L294.986 135.839C296.531 139.241 297.985 142.053 299.462 144.411L297.485 145.749ZM435.265 144.661C434.31 141.463 433.311 138.334 432.243 135.318L434.469 134.478C435.537 137.517 436.56 140.715 437.514 143.935L435.265 144.661ZM125.647 139.241C123.488 136.157 121.693 133.639 119.989 131.281L121.875 129.784C123.579 132.143 125.397 134.683 127.555 137.789L125.647 139.241ZM179.154 137.404L176.791 137.245C176.973 134.365 177.155 131.122 177.337 127.312L179.7 127.448C179.518 131.258 179.336 134.501 179.154 137.404ZM40.4205 131.326L38.262 130.328C39.5571 127.267 40.9431 124.251 42.3972 121.303L44.4876 122.437C43.0561 125.362 41.6929 128.31 40.4205 131.326ZM333.498 131.326L331.521 129.966C333.202 127.312 334.929 124.478 336.679 121.62L338.655 122.958C336.906 125.838 335.179 128.65 333.498 131.326ZM289.078 127.698C288.01 124.908 286.897 121.847 285.693 118.355L287.92 117.516C289.124 120.985 290.214 124.001 291.26 126.791L289.078 127.698ZM428.767 126.156C427.494 123.072 426.154 120.078 424.79 117.243L426.903 116.132C428.312 119.012 429.675 122.051 430.948 125.181L428.767 126.156ZM114.15 123.457C112.014 120.69 110.015 118.219 108.061 115.905L109.833 114.273C111.81 116.608 113.832 119.103 115.99 121.915L114.15 123.457ZM180.2 117.516L177.837 117.402C177.996 114.114 178.155 110.826 178.314 107.469L180.677 107.605C180.518 110.916 180.359 114.227 180.2 117.516ZM343.836 114.658L341.859 113.298C343.836 110.191 345.585 107.492 347.244 105.066L349.175 106.494C347.539 108.898 345.79 111.551 343.836 114.658ZM49.1681 113.955L47.1686 112.64C49.0318 109.601 50.9403 106.857 52.8489 104.499L54.6438 106.086C52.8261 108.354 50.9857 111.007 49.1681 113.955ZM282.535 108.943C281.444 105.632 280.399 102.322 279.49 99.5095L281.717 98.7385C282.603 101.55 283.671 104.839 284.761 108.15L282.535 108.943ZM101.585 108.762C99.1768 106.313 96.8139 104.136 94.5418 102.322L95.9732 100.371C98.3134 102.253 100.745 104.476 103.221 106.993L101.585 108.762ZM420.201 108.671C418.519 105.791 416.747 103.07 414.929 100.575L416.815 99.0786C418.656 101.641 420.473 104.431 422.223 107.379L420.201 108.671ZM61.301 99.3734L59.8696 97.4232C62.687 95.1781 65.618 93.568 68.5945 92.6155L69.2761 94.974C66.5723 95.813 63.8912 97.3098 61.301 99.3734ZM354.878 98.6251L353.038 97.083C355.242 94.2256 357.355 91.7764 359.445 89.5767L361.104 91.3229C359.081 93.4319 357.037 95.8357 354.878 98.6251ZM181.222 97.6499L178.859 97.5139C179.064 93.9308 179.268 90.6879 179.473 87.5584L181.836 87.7398C181.631 90.824 181.427 94.0669 181.222 97.6499ZM86.7258 97.1283C83.772 95.6089 80.8865 94.6111 78.1145 94.2256L78.4326 91.7764C81.4545 92.2073 84.59 93.2731 87.7709 94.9059L86.7258 97.1283ZM408.863 93.1371C406.591 90.7106 404.251 88.5562 401.865 86.7647L403.251 84.769C405.728 86.6513 408.181 88.8964 410.544 91.4136L408.863 93.1371ZM276.491 90.0756C275.309 86.4018 274.355 83.4084 273.446 80.6644L275.673 79.8707C276.582 82.6373 277.536 85.6308 278.718 89.3046L276.491 90.0756ZM368.17 85.0185L366.807 83.0002C369.715 80.8685 372.646 79.3037 375.509 78.3286L376.236 80.6644C373.6 81.5715 370.874 83.0229 368.17 85.0185ZM393.913 82.0024C390.982 80.7097 388.028 79.916 385.12 79.6439L385.347 77.1947C388.505 77.5122 391.686 78.3513 394.844 79.7573L393.913 82.0024ZM182.585 77.8297L180.245 77.6029C180.54 74.1332 180.859 70.7996 181.199 67.6701L183.54 67.9422C183.199 71.0717 182.881 74.4054 182.585 77.8297ZM270.311 71.2985C269.175 67.9649 268.107 64.9261 267.016 62.0007L269.22 61.1162C270.288 64.0643 271.379 67.1032 272.515 70.4594L270.311 71.2985ZM184.744 58.1455L182.404 57.7826C182.881 54.3356 183.403 51.002 183.971 47.9179L186.289 48.3714C185.721 51.4329 185.198 54.7212 184.744 58.1455ZM263.517 52.7936C262.245 49.6187 260.973 46.5572 259.723 43.7225L261.859 42.6793C263.131 45.5367 264.403 48.6209 265.698 51.8184L263.517 52.7936ZM188.288 38.7334L185.993 38.1438C186.811 34.6968 187.72 31.4539 188.697 28.5058L190.924 29.2995C189.97 32.1796 189.084 35.3544 188.288 38.7334ZM255.542 34.9009C253.997 31.8394 252.407 28.982 250.839 26.3741L252.838 25.0588C254.452 27.7121 256.065 30.6375 257.633 33.7443L255.542 34.9009ZM194.468 20.2511L192.355 19.1626C193.9 15.8744 195.627 12.9943 197.468 10.5451L199.331 12.0645C197.558 14.3776 195.945 17.1443 194.468 20.2511ZM245.431 18.3689C243.364 15.6703 241.251 13.2664 239.115 11.2708L240.705 9.4339C242.932 11.5429 245.159 14.0375 247.295 16.8268L245.431 18.3689ZM205.874 5.69209L204.602 3.60575C207.397 1.74618 210.487 0.521586 213.758 0L214.122 2.42651C211.168 2.90274 208.396 4.01394 205.874 5.69209ZM231.663 5.69209C228.913 4.15001 226.05 3.08416 223.165 2.5399L223.574 0.113388C226.709 0.703007 229.822 1.83689 232.799 3.51503L231.663 5.69209Z" fill="#DCE6FF"/>
<path d="M86.1123 338.917C86.1123 338.917 28.6511 191.49 70.0032 158.653C97.6318 136.701 126.919 185.072 161.887 159.492C193.014 136.701 183.108 67.3979 232.753 57.8052C288.556 47.0333 300.848 176.319 346.653 158.653C402.229 137.2 457.509 180.741 409.749 339.189L86.1123 338.917Z" fill="#D4E8FF"/>
<path d="M460.621 288.097C441.036 285.058 444.239 312.453 416.338 312.453C390.823 312.453 382.666 208.135 364.103 237.956C268.948 390.826 324.205 172.94 248.521 170.173C214.304 168.926 191.492 207.047 183.085 274.558C170.907 335.584 142.619 228.001 113.536 238.002C95.0416 244.352 97.1547 312.43 71.6618 312.43C43.7605 312.43 46.9414 285.035 27.3787 288.074C6.29369 291.362 0 339.847 0 339.847H488C488 339.847 481.706 291.362 460.621 288.097Z" fill="#EEF7FF"/>
<path d="M443.285 317.759C425.268 316.467 428.221 328.168 402.547 328.168C379.076 328.168 379.712 301.953 364.012 296.374C335.088 286.124 311.254 338.033 300.03 311.976C278.74 242.832 216.621 208.158 187.97 311.976C176.746 338.033 150.526 291.544 123.988 296.374C107.629 299.345 108.924 328.146 85.4534 328.146C59.7788 328.146 62.7325 316.444 44.7148 317.737C25.3339 319.12 19.54 339.825 19.54 339.825H468.483C468.46 339.847 462.689 319.143 443.285 317.759Z" fill="#DCE6FF"/>
<path d="M0.363581 339.847C0.363581 339.847 -3.06728 354.973 11.1333 358.76C30.537 363.931 144.414 377.537 116.74 387.878C101.131 393.707 124.715 401.644 200.785 404.546C276.855 407.472 407.364 396.042 363.489 379.125C319.593 362.207 498.429 375.043 487.546 339.847H0.363581V339.847Z" fill="#CFDDF9"/>
<path d="M234.071 222.83C236.616 244.555 204.307 248.887 201.012 227.252C198.467 205.527 230.776 201.196 234.071 222.83Z" fill="#7689D6"/>
<path d="M151.662 87.7624C139.688 48.2352 171.225 10.7491 212.259 14.4909C266.221 20.4098 275.946 90.2342 244.409 126.156C229.322 141.622 215.44 168.427 216.235 187.725C216.303 199.155 206.92 198.248 203.489 188.066C191.447 140.896 217.644 128.355 228.777 91.2774C237.456 31.3404 171.157 40.6836 159.978 87.5583C158.751 91.5722 152.821 92.0031 151.662 87.7624Z" fill="#7689D6"/>
<path d="M301.166 146.067C299.303 157.043 282.898 154.548 284.398 143.527C286.261 132.528 302.665 135.023 301.166 146.067Z" fill="#FCB4B4"/>
<path d="M280.263 68.3503C280.081 47.3508 300.848 33.5401 320.342 41.2278C345.858 51.8183 340.61 87.2861 320.047 100.348C310.459 105.746 299.848 116.858 297.485 126.405C295.872 131.984 291.441 130.215 291.214 124.75C292.1 99.9856 306.664 97.6045 317.411 81.0951C330.249 53.0656 296.531 48.1672 284.352 69.4615C283.194 71.2304 280.217 70.5727 280.263 68.3503Z" fill="#FCB4B4"/>
<path d="M167.408 228.772C170.657 236.256 159.592 241.245 156.093 233.875C152.866 226.414 163.909 221.425 167.408 228.772Z" fill="#FCB4B4"/>
<path d="M123.534 189.449C115.013 176.636 122.239 159.9 137.28 156.861C157.161 153.21 168.112 177.044 160.728 193.236C157.002 200.357 154.934 211.401 157.297 218.204C158.547 222.264 155.116 222.944 152.798 219.678C143.437 204.144 151.435 196.887 151.435 182.464C148.095 160.172 125.465 170.581 126.51 188.497C126.488 190.039 124.397 190.832 123.534 189.449Z" fill="#FCB4B4"/>
<path d="M348.721 167.86C335.315 165.297 337.86 156.249 324.887 160.762C324.887 160.762 313.253 151.487 311.799 173.507C310.618 191.263 319.343 199.835 332.884 207.138C348.971 215.801 374.259 206.367 373.214 186.32C372.487 172.373 361.876 170.377 348.721 167.86Z" fill="#1D3F70"/>
<path d="M314.821 195.39C295.94 208.339 281.989 203.622 267.584 187.226C265.676 184.006 260.973 185.82 262.404 189.426C262.654 190.016 263.131 190.764 263.404 191.354C276.695 215.642 300.212 221.878 322.773 205.028C329.022 199.813 321.16 190.243 314.821 195.39Z" fill="#F99370"/>
<path d="M320.751 192.216C320.751 192.216 315.503 192.556 312.935 194.597C310.368 196.638 303.074 200.198 297.667 200.946C292.259 201.695 283.307 198.883 279.967 196.207C276.627 193.531 274.287 190.787 272.06 192.284C272.06 192.284 270.356 194.665 265.926 195.595C265.926 195.595 263.676 201.672 272.401 209.11C280.921 216.367 299.484 224.826 320.592 214.145L320.751 192.216Z" fill="#23659B"/>
<path d="M320.365 189.426L320.751 192.216C322.183 196.865 328.363 193.214 329.385 191.377C329.385 191.377 328.817 188.746 328.726 187.499L320.365 189.426Z" fill="#F99370"/>
<path d="M376.804 364.293L389.755 348.442C389.141 347.489 384.643 345.131 383.37 343.838C382.439 343.181 372.101 332.681 371.01 331.615L363.58 340.731L376.531 348.805C378.076 349.757 378.69 351.662 378.054 353.363C376.781 357.195 373.509 360.098 374.282 363.84C374.645 364.928 376.077 365.201 376.804 364.293Z" fill="#F99370"/>
<path d="M388.641 346.718C389.119 347.217 389.528 347.784 389.777 348.442L376.713 364.43C376.077 365.201 374.85 365.155 374.327 364.294C373.1 362.298 372.328 358.148 377.963 350.46C377.963 350.46 380.757 348.555 383.37 343.838C383.37 343.838 386.665 344.677 388.641 346.718Z" fill="#1D3F70"/>
<path d="M373.464 359.372C374.214 359.554 374.713 358.533 377.167 359.236C377.395 359.304 377.622 359.191 377.69 358.964C377.531 357.4 371.942 358.42 373.464 359.372Z" fill="#E8C0A6"/>
<path d="M374.418 356.447C374.532 356.515 374.668 356.515 374.782 356.47C374.804 356.47 376.781 355.631 378.871 356.47C379.371 356.674 379.689 355.88 379.19 355.699C376.758 354.724 374.554 355.653 374.464 355.699C374.145 355.812 374.123 356.288 374.418 356.447Z" fill="#E8C0A6"/>
<path d="M376.19 353.113C376.736 353.318 378.213 352.41 380.871 353.34C381.371 353.544 381.666 352.728 381.166 352.547C378.462 351.685 375.213 352.025 376.19 353.113Z" fill="#E8C0A6"/>
<path d="M374.305 364.248L388.641 346.696C389.119 347.195 389.528 347.762 389.777 348.419L376.713 364.43C376.077 365.223 374.804 365.133 374.305 364.248Z" fill="#395B96"/>
<path d="M312.913 367.491L333.384 367.264C333.725 366.176 332.657 361.232 332.839 359.418C332.839 358.647 333.043 354.451 333.112 353.68L331.589 342.137L322.569 342.228L324.637 357.331C324.887 359.123 323.819 360.824 322.092 361.413C318.32 362.888 314.026 362.253 311.617 365.201C310.981 366.221 311.731 367.514 312.913 367.491Z" fill="#F99370"/>
<path d="M333.975 365.291C333.907 365.994 333.725 366.652 333.384 367.264L312.708 367.491C311.708 367.491 310.959 366.516 311.277 365.564C312.026 363.341 314.73 360.098 324.25 359.509C324.25 359.509 327.499 360.438 332.816 359.418C332.839 359.418 334.293 362.479 333.975 365.291Z" fill="#1D3F70"/>
<path d="M317.366 364.77C317.661 364.77 317.866 364.452 317.752 364.18C316.821 361.98 315.139 361.323 315.071 361.277C314.571 361.073 314.253 361.867 314.776 362.048C314.844 362.071 316.207 362.638 316.98 364.475C317.048 364.679 317.207 364.77 317.366 364.77Z" fill="#E8C0A6"/>
<path d="M320.615 364.362C320.888 364.362 321.115 364.09 321.024 363.818C320.251 361.051 316.616 358.987 317.616 360.937C317.639 360.96 319.547 361.935 320.229 364.067C320.274 364.248 320.433 364.362 320.615 364.362Z" fill="#E8C0A6"/>
<path d="M324.319 363.863C324.591 363.863 324.818 363.568 324.705 363.296C323.796 360.779 321.819 359.486 321.728 359.418C321.274 359.123 320.819 359.826 321.274 360.121C321.297 360.144 323.114 361.346 323.91 363.568C323.978 363.749 324.137 363.863 324.319 363.863Z" fill="#E8C0A6"/>
<path d="M311.299 365.541L333.975 365.291C333.907 365.994 333.725 366.652 333.384 367.264L312.708 367.491C311.686 367.514 310.936 366.493 311.299 365.541Z" fill="#395B96"/>
<path d="M328.522 178.7C328.522 178.859 328.499 178.995 328.499 179.153C328.295 179.04 328.363 184.437 328.84 188.292C325.409 190.379 321.251 190.129 320.501 190.061C319.842 185.186 319.752 180.673 320.138 177.77C321.024 172.872 328.681 173.711 328.522 178.7Z" fill="#E57D61"/>
<path d="M334.088 175.752C333.43 179.561 332.066 183.825 329.022 186.297C327.795 187.295 326.295 187.907 324.727 188.202C315.866 190.628 305.437 179.992 312.549 172.645C315.116 170.354 315.707 166.227 317.752 163.937C320.751 159.741 327.181 160.036 330.612 163.551C333.68 166.726 334.702 171.057 334.088 175.752Z" fill="#F99370"/>
<path d="M319.547 173.189C319.206 172.532 320.274 172.01 320.592 172.69C320.933 173.348 319.865 173.87 319.547 173.189Z" fill="#C16256"/>
<path d="M314.708 172.305C314.367 171.647 315.435 171.125 315.753 171.806C316.071 172.463 315.026 172.985 314.708 172.305Z" fill="#C16256"/>
<path d="M323.637 356.493C330.612 357.831 335.656 353.726 335.656 353.726C335.247 352.297 334.861 350.891 334.475 349.462C321.637 300.706 335.088 275.057 335.088 275.057C337.928 300.252 344.676 324.948 369.033 346.718C370.056 347.626 371.124 348.555 372.214 349.462C377.713 348.238 382.802 339.212 382.802 339.212C381.939 338.214 381.121 337.194 380.348 336.196C353.401 301.567 367.034 264.489 354.719 241.585C348.175 229.384 322.228 237.027 312.367 248.411C295.758 300.297 314.935 339.983 323.637 356.493Z" fill="#9358E0"/>
<path d="M316.116 177.316C316.48 177.316 317.252 177.475 317.23 176.976C317.184 176.863 317.071 176.795 316.957 176.84C316.23 177.067 315.185 176.681 315.048 176.341C315.003 176.228 315.162 176.115 315.298 176.046C316.525 175.457 318.161 172.033 317.048 172.826C317.048 172.849 316.207 175.094 315.094 175.661C313.89 176.5 315.162 177.18 316.116 177.316Z" fill="#C16256"/>
<path d="M375.054 344.632L375.85 343.884C375.645 343.657 354.446 321.07 348.448 301.136C342.45 281.157 343.109 248.297 343.109 247.957L342.018 247.935C342.018 248.275 341.336 281.293 347.403 301.454C353.469 321.66 374.827 344.405 375.054 344.632Z" fill="#7640CC"/>
<path d="M334.088 175.752C333.43 179.561 332.066 183.825 329.022 186.297C330.726 184.256 331.839 179.63 331.839 179.63L331.089 177.566C317.888 173.098 319.184 162.508 319.184 162.508C327.704 156.566 335.952 167.043 334.088 175.752Z" fill="#E57D61"/>
<path d="M320.57 161.578C320.57 161.578 319.343 172.033 331.157 176.5L335.452 174.21C339.723 166.159 332.362 154.117 320.57 161.578Z" fill="#1D3F70"/>
<path d="M334.475 158.539C331.589 168.472 319.979 165.297 322.569 155.274C325.455 145.364 337.065 148.538 334.475 158.539Z" fill="#1D3F70"/>
<path d="M336.474 177.702C335.543 181.988 330.135 180.764 331.158 176.5C332.089 172.214 337.497 173.439 336.474 177.702Z" fill="#F99370"/>
<path d="M335.065 178.586C335.974 177.657 335.656 175.752 335.179 175.434C334.316 174.731 332.771 175.094 332.884 175.525C333.157 175.956 334.043 175.049 334.884 175.752C335.747 176.387 334.543 178.224 335.065 178.586Z" fill="#C16256"/>
<path d="M333.021 178.246C333.475 178.224 333.657 176.613 335.384 176.455C335.497 176.455 335.588 176.341 335.588 176.228C334.384 175.321 332.203 178.337 333.021 178.246Z" fill="#C16256"/>
<path d="M334.066 179.675C334.066 180.31 333.066 180.287 333.089 179.652C333.066 179.017 334.088 179.04 334.066 179.675Z" fill="#F4D4BE"/>
<path d="M335.656 353.726C335.656 353.726 330.612 357.853 323.637 356.492C323.637 356.492 322.864 355.222 321.637 352.841C321.637 352.841 329.999 353.635 334.497 349.44C334.838 350.846 335.224 352.274 335.656 353.726Z" fill="#7640CC"/>
<path d="M334.475 349.44C334.611 349.939 334.725 350.438 334.861 350.936H332.362C323.637 324.812 322.092 281.815 335.065 275.057C335.065 275.057 321.637 300.683 334.475 349.44Z" fill="#7640CC"/>
<path d="M326.295 355.018C319.433 339.416 314.867 324.177 312.708 309.731C310.981 298.166 310.777 287.076 312.117 276.781C314.389 259.205 320.479 249.885 320.524 249.794L321.319 250.316C321.251 250.406 315.298 259.591 313.049 276.962C310.981 292.995 311.754 319.505 327.181 354.61L326.295 355.018Z" fill="#7640CC"/>
<path d="M310.163 223.148C311.981 228.454 314.73 234.01 311.322 244.51C310.936 247.3 312.299 248.365 312.299 248.365C325.409 252.742 344.108 248.751 355.333 243.399C361.763 238.183 352.992 228.25 352.47 224.849C346.994 188.542 335.066 190.107 329.113 190.107C327.159 192.374 322.319 196.116 320.66 192.148C316.616 193.871 314.685 202.897 312.435 206.412C310.118 210.063 309.141 212.988 308.914 215.574C308.709 218.363 309.345 220.721 310.163 223.148Z" fill="#3A72AA"/>
<path d="M316.934 178.949C316.548 178.949 316.298 178.836 316.275 178.836C316.139 178.768 316.071 178.632 316.139 178.496C316.207 178.36 316.343 178.292 316.48 178.36C316.525 178.382 317.32 178.7 318.138 177.906C318.252 177.815 318.411 177.815 318.525 177.906C318.616 178.02 318.616 178.178 318.525 178.292C317.934 178.813 317.366 178.949 316.934 178.949Z" fill="#C16256"/>
<path d="M322.342 171.148C322.319 171.148 322.274 171.148 322.251 171.125L319.774 170.128C319.638 170.082 319.57 169.924 319.638 169.788C319.683 169.651 319.842 169.583 319.979 169.651L322.455 170.649C322.592 170.695 322.66 170.853 322.592 170.989C322.546 171.08 322.455 171.148 322.342 171.148Z" fill="#C16256"/>
<path d="M317.434 169.833H315.207C315.071 169.833 314.935 169.719 314.935 169.561C314.935 169.425 315.048 169.289 315.207 169.289H317.434C317.57 169.289 317.707 169.402 317.707 169.561C317.707 169.719 317.593 169.833 317.434 169.833Z" fill="#C16256"/>
<path d="M343.722 197.545C345.881 207.342 347.471 218.113 343.404 227.706C336.383 241.721 318.116 242.129 304.756 238.909C302.643 238.523 300.075 237.752 300.734 235.054C301.62 232.038 305.187 233.398 307.482 233.194C332.135 232.4 336.133 224.531 329.135 201.854C326.363 192.284 340.882 188.043 343.722 197.545Z" fill="#F99370"/>
<path d="M304.051 238.863C304.051 238.863 305.551 236.641 303.983 233.035C303.983 233.035 304.869 232.673 305.687 233.149C305.687 233.149 307.369 235.87 305.642 239.272C305.642 239.249 304.892 239.476 304.051 238.863Z" fill="#10325B"/>
<path d="M326.227 198.135C325.977 200.561 327.181 203.6 328.976 207.5C330.771 211.424 332.18 216.209 330.544 220.177C328.908 224.146 326 227.752 320.797 228.681C316.025 229.52 311.072 230.564 310.55 233.013C310.55 233.013 311.186 236.845 309.504 239.839C309.504 239.839 311.458 246.007 327.613 244.011C343.768 242.016 351.356 224.531 352.265 217.002C353.674 205.369 347.267 194.438 338.565 190.968C329.84 187.521 326.613 194.393 326.227 198.135Z" fill="#23659B"/>
<path d="M369.011 346.718C370.033 347.626 371.101 348.555 372.191 349.462C377.69 348.238 382.779 339.212 382.779 339.212C381.916 338.214 381.098 337.194 380.326 336.196C380.303 336.173 375.827 344.496 369.011 346.718Z" fill="#7640CC"/>
<path d="M249.352 160.749L243.476 164.707L308.412 260.744L314.288 256.786L249.352 160.749Z" fill="#EB5648"/>
<path d="M280.293 206.508L274.417 210.466L308.404 260.731L314.28 256.773L280.293 206.508Z" fill="#CE3932"/>
<path opacity="0.4" d="M252.396 157.739C269.033 141.134 269.033 114.211 252.396 97.6061C235.759 81.0009 208.786 81.0009 192.149 97.6061C175.512 114.211 175.512 141.134 192.149 157.739C208.786 174.344 235.759 174.344 252.396 157.739Z" fill="white"/>
<path opacity="0.4" d="M176.133 127.516C176.11 131.984 176.723 136.474 178.041 140.851L181.29 139.331L184.539 137.812L254.134 105.156L260.632 102.117C260.518 101.959 260.404 101.777 260.291 101.618C257.792 97.99 254.838 94.8151 251.589 92.1392L248.022 93.8173L244.341 95.5408L183.381 124.115L179.7 125.838L176.133 127.516Z" fill="white"/>
<path opacity="0.4" d="M180.359 146.951C181.449 149.287 182.744 151.577 184.244 153.754C186.834 157.496 189.879 160.762 193.241 163.483L196.831 161.805L200.535 160.059L261.132 131.621L264.812 129.898L268.425 128.197C268.516 121.099 266.971 114.137 263.881 107.741L257.474 110.758L186.766 143.935L183.562 145.432L180.359 146.951Z" fill="white"/>
<path d="M193.241 163.483C218.53 185.435 262.586 169.697 267.653 136.066C275.559 96.6974 229.595 66.3093 196.15 89.69C170.657 106.562 169.703 145.182 193.241 163.483ZM257.474 110.78C274.696 146.384 233.003 181.943 200.512 160.081C188.879 152.552 181.881 137.925 183.381 124.115C186.811 85.1544 240.546 75.4484 257.474 110.78Z" fill="#CE3932"/>
<path d="M295.713 229.316L297.644 232.196C295.781 232.763 293.804 232.786 293.804 232.786C292.168 232.605 289.351 232.582 289.351 232.582C286.329 234.26 292.146 234.419 292.986 234.804C292.986 234.827 292.986 234.827 292.986 234.85C292.986 234.85 293.191 234.94 290.669 234.714C287.261 236.505 292.282 236.755 293.236 236.868V236.891L292.373 237.072C289.101 239.181 293.236 239.158 294.191 238.954C294.191 238.954 294.191 238.977 294.213 238.977C294.191 238.954 293.895 239.294 293.895 239.294C292.418 240.769 294.872 241.063 295.736 240.791C296.417 240.905 299.848 240.088 303.733 238.183C305.006 237.571 304.21 233.716 303.052 232.922C301.984 232.196 300.484 231.221 299.894 230.972C299.235 230.677 297.553 228.931 295.713 229.316Z" fill="#F99370"/>
<path d="M261.086 189.562C258.382 191.059 256.86 187.408 260.245 187.612L260.2 187.635C261.677 186.841 262.495 188.859 261.086 189.562Z" fill="#F99370"/>
<path d="M259.632 188.066C256.269 189.2 256.11 184.868 258.996 185.957C258.928 185.957 259.291 185.934 259.223 185.934C260.836 185.458 261.063 187.68 259.632 188.066Z" fill="#F99370"/>
<path d="M258.042 186.569L256.86 186.592C255.201 186.569 255.838 184.256 257.201 184.324L258.382 184.301C260.041 184.324 259.428 186.637 258.042 186.569Z" fill="#F99370"/>
<path d="M256.883 185.027L255.701 185.05C254.043 185.027 254.679 182.714 256.042 182.782L257.224 182.759C258.882 182.782 258.269 185.095 256.883 185.027Z" fill="#F99370"/>
<path d="M267.584 187.227C267.584 187.227 268.039 181.943 262.699 180.491C259.814 179.698 260.291 181.875 262.131 182.487C263.972 183.099 266.562 186.229 266.562 186.229L267.584 187.227Z" fill="#F99370"/>
<path d="M274.401 367.446H145.323C145.323 367.446 144.255 360.484 151.049 344.269C155.229 334.291 177.882 322.272 178.291 346.514C184.267 320.163 218.075 313.949 207.919 355.789C208.01 355.585 215.19 340.051 227.959 345.108C240.819 350.188 239.047 361.323 247.272 360.779C255.474 360.28 271.129 350.211 274.401 367.446Z" fill="#9AB1E8"/>
<path d="M260.018 367.469H153.798C153.798 367.469 154.502 344.972 164.818 337.33C174.906 329.869 186.698 340.391 190.242 354.588C194.877 366.176 205.443 348.17 212.804 347.648C214.099 347.353 215.417 347.331 216.758 347.648C223.46 349.281 222.983 361.776 232.708 361.776C243.341 361.776 243.068 355.971 250.544 355.812C259.155 355.653 260.018 367.469 260.018 367.469Z" fill="#ABC1EF"/>
<path d="M156.933 300.025C154.957 297.939 132.963 314.357 131.077 317.85C130.691 314.244 129.85 310.003 128.305 305.354C131.372 305.173 152.23 283.607 150.185 281.52C147.891 279.797 128.828 300.093 127.76 303.767C126.465 300.161 124.715 296.306 122.398 292.269C125.033 292.7 142.665 266.168 140.097 264.716C137.575 263.242 121.466 288.188 121.852 291.34C120.194 288.55 118.262 285.67 115.99 282.745C118.99 281.407 133.236 255.758 130.759 254.194C128.078 253.128 115.059 277.438 114.9 281.339C112.946 278.912 110.651 276.327 108.311 273.923C111.083 271.996 121.171 244.737 118.512 243.558C115.74 242.946 106.698 268.413 106.97 272.517C104.539 269.955 102.29 267.505 100.199 265.147C102.994 262.947 112.9 236.165 110.265 234.94C107.515 234.351 98.677 259.205 98.7679 263.514C96.2686 260.68 94.0192 258.004 91.9971 255.486C94.769 253.423 104.789 226.391 102.131 225.189C99.3814 224.599 90.5202 249.499 90.6338 253.786C88.3844 250.974 86.4304 248.366 84.7264 245.984C87.4529 244.76 97.95 216.367 95.2007 215.324C92.406 214.689 83.2722 240.519 83.6358 244.465C81.341 241.199 79.546 238.387 78.16 236.029C80.7502 234.578 88.0663 205.119 85.249 204.394C82.477 204.099 76.4332 229.543 76.9558 233.897C72.4571 226.391 74.5474 223.919 71.1393 213.759C65.1182 193.259 60.6876 194.574 66.7996 215.029C69.9123 225.575 71.5482 227.298 74.7519 233.738C71.5482 230.11 50.9631 216.662 49.2817 218.726C47.4868 221.062 74.3656 238.455 76.5468 236.936C77.8874 239.204 79.5687 241.857 81.7045 244.919C78.2509 241.97 54.5075 232.196 53.1897 234.6C51.8946 237.231 81.4546 249.114 83.4086 247.3C85.0672 249.59 86.9757 252.107 89.1115 254.806C84.9536 252.629 60.2332 247.912 59.4153 250.497C59.029 253.4 88.18 258.684 90.9973 257.142C92.9513 259.523 95.0871 262.063 97.4501 264.739C93.5194 262.993 67.0949 261.473 66.6178 264.24C66.5496 267.165 96.8139 268.526 98.9951 266.508C101.085 268.866 103.358 271.315 105.789 273.878C101.358 272.903 75.797 275.465 75.7516 278.209C76.3196 281.044 104.698 277.915 107.561 275.737C109.878 278.141 112.037 280.591 113.9 282.972C110.901 281.339 82.0226 284.083 82.0907 287.008C82.2498 289.934 113.718 286.509 114.695 284.015C116.831 286.782 118.671 289.525 120.262 292.179C116.967 290.659 88.6798 293.381 88.7025 296.261C89.0888 299.163 119.126 295.83 121.034 293.494C123.284 297.463 124.988 301.25 126.238 304.81C123.329 302.951 94.4055 303.382 94.2464 306.284C94.4055 309.21 124.579 308.303 126.692 306.126C128.169 310.638 128.964 314.72 129.328 318.213C125.806 316.33 98.4498 314.72 97.9727 317.532C98.1544 320.412 126.033 321.682 129.509 320.095C130.259 330.481 127.714 337.217 127.669 337.307L129.373 337.965C129.487 337.67 132.145 330.663 131.304 319.664C134.326 319.982 158.569 302.452 156.933 300.025Z" fill="#9358E0"/>
<path d="M153.139 316.943C154.275 315.741 167.067 325.175 168.18 327.193C168.408 325.107 168.862 322.658 169.748 319.959C167.976 319.868 155.82 307.418 157.002 306.216C158.342 305.219 169.43 316.92 170.066 319.029C170.816 316.92 171.816 314.698 173.133 312.362C171.611 312.611 161.319 297.304 162.795 296.442C164.25 295.58 173.656 309.981 173.452 311.818C174.406 310.185 175.519 308.529 176.814 306.829C175.065 306.058 166.749 291.249 168.18 290.342C169.725 289.73 177.337 303.767 177.45 306.035C178.564 304.629 179.904 303.132 181.245 301.726C179.632 300.615 173.702 284.854 175.247 284.151C176.86 283.788 182.154 298.529 182.017 300.887C183.403 299.39 184.721 297.962 185.925 296.601C184.312 295.331 178.496 279.842 180.018 279.117C181.608 278.754 186.811 293.154 186.766 295.649C188.197 293.993 189.493 292.451 190.674 290.977C189.061 289.798 183.176 274.15 184.721 273.447C186.312 273.084 191.515 287.485 191.469 289.979C192.764 288.346 193.878 286.827 194.877 285.444C193.287 284.741 187.13 268.322 188.72 267.71C190.333 267.347 195.718 282.269 195.491 284.559C196.809 282.654 197.831 281.021 198.649 279.661C197.149 278.822 192.81 261.768 194.446 261.337C196.059 261.156 199.626 275.896 199.331 278.414C201.921 274.059 200.694 272.631 202.648 266.735C206.079 254.851 208.646 255.577 205.17 267.46C203.398 273.583 202.443 274.581 200.626 278.323C202.466 276.214 214.372 268.367 215.326 269.547C216.371 270.885 200.853 281.044 199.581 280.182C198.808 281.498 197.831 283.04 196.604 284.831C198.604 283.108 212.327 277.393 213.1 278.776C213.849 280.296 196.763 287.28 195.627 286.215C194.673 287.553 193.582 289.004 192.333 290.569C194.741 289.299 209.055 286.487 209.51 287.983C209.737 289.662 192.878 292.814 191.242 291.929C190.129 293.313 188.879 294.787 187.539 296.352C189.811 295.331 205.102 294.379 205.397 295.966C205.443 297.667 187.925 298.551 186.63 297.372C185.426 298.733 184.108 300.161 182.722 301.658C185.289 301.068 200.103 302.497 200.126 304.085C199.808 305.74 183.358 303.994 181.699 302.747C180.359 304.153 179.132 305.581 178.041 306.965C179.768 306.012 196.513 307.532 196.491 309.21C196.422 310.911 178.155 309.006 177.587 307.554C176.36 309.164 175.292 310.752 174.383 312.294C176.292 311.409 192.673 312.906 192.673 314.562C192.446 316.24 175.042 314.403 173.929 313.042C172.634 315.355 171.657 317.555 170.952 319.619C172.634 318.53 189.379 318.712 189.493 320.39C189.402 322.091 171.929 321.637 170.702 320.39C169.862 323.02 169.407 325.379 169.203 327.397C171.225 326.309 187.084 325.288 187.38 326.921C187.289 328.576 171.134 329.393 169.112 328.486C168.703 334.518 170.202 338.396 170.225 338.441L169.248 338.827C169.18 338.645 167.612 334.609 168.067 328.236C166.294 328.44 152.185 318.349 153.139 316.943Z" fill="#677CC1"/>
<path d="M148.799 367.4C148.799 367.4 167.408 339.167 205.715 336.944C205.715 336.922 184.062 363.318 148.799 367.4Z" fill="#F49F9F"/>
<path d="M149.231 367.332C149.231 367.332 154.707 339.779 194.196 318.553C194.196 318.553 184.63 348.192 149.231 367.332Z" fill="#F9C0C0"/>
<path d="M149.231 367.332C149.231 367.332 147.618 333.588 177.246 309.255C177.269 309.255 175.337 343.317 149.231 367.332Z" fill="#F49F9F"/>
<path d="M149.231 367.333C149.231 367.333 138.802 333.044 160.024 300.728C160.024 300.728 172.179 345.925 149.231 367.333Z" fill="#F9C0C0"/>
<path d="M149.231 367.333C149.231 367.333 131.418 329.778 141.892 301.363C141.892 301.386 158.251 336.582 149.231 367.333Z" fill="#F49F9F"/>
<path d="M149.458 367.355C149.458 367.355 107.402 370.417 85.6807 349.258C85.6807 349.258 125.011 346.582 149.458 367.355Z" fill="#F49F9F"/>
<path d="M149.458 367.355C149.458 367.355 113.832 362.888 92.9286 330.368C92.9286 330.368 139.234 337.715 149.458 367.355Z" fill="#F9C0C0"/>
<path d="M149.458 367.355C149.458 367.355 117.444 352.456 107.266 315.514C107.266 315.514 138.121 333.792 149.458 367.355Z" fill="#F49F9F"/>
<path d="M149.458 367.355C149.458 367.355 126.487 351.118 123.17 306.488C123.17 306.488 146.391 327.284 149.458 367.355Z" fill="#F9C0C0"/>
</g>
<defs>
<clipPath id="clip0_50_1310">
<rect width="488" height="405" fill="white"/>
</clipPath>
</defs>
</svg>
