<svg width="45" height="45" viewBox="0 0 45 45" fill="none" xmlns="http://www.w3.org/2000/svg">
<path d="M23.465 12.0721C23.0579 11.6646 22.3974 11.6646 21.9896 12.0721C21.5822 12.4792 21.5822 13.14 21.9896 13.5475L29.8914 21.4492H8.89662C8.31872 21.4492 7.84998 21.918 7.84998 22.4958C7.84998 23.0741 8.31872 23.5425 8.89662 23.5425H29.8809L21.9791 31.4442C21.7831 31.6396 21.673 31.9054 21.673 32.1821C21.673 32.4591 21.7831 32.7243 21.9791 32.92C22.1751 33.1176 22.4436 33.2271 22.7222 33.2235C22.9999 33.2222 23.2664 33.1134 23.465 32.92L33.146 23.2393C33.343 23.042 33.4528 22.7741 33.4499 22.4958C33.4479 22.2182 33.3391 21.9527 33.146 21.7531L23.465 12.0721Z" fill="#0A3ED1"/>
<path d="M22.5023 -0.00579404C13.4011 -0.007433 5.19551 5.47456 1.71272 13.8831C-1.76942 22.2919 0.156688 31.9703 6.59419 38.4039C15.3803 47.19 29.6249 47.19 38.4107 38.4039C47.1965 29.6184 47.1965 15.3739 38.4107 6.58774C34.2008 2.35398 28.4727 -0.0202169 22.5023 -0.00579404ZM22.5023 42.9045C11.2515 42.9045 2.09394 33.7466 2.09394 22.4958C2.09394 11.245 11.2515 2.08749 22.5023 2.08749C33.7531 2.08749 42.9109 11.245 42.9109 22.4958C42.9109 33.7466 33.7531 42.9045 22.5023 42.9045Z" fill="#0A3ED1"/>
</svg>
