<svg width="64" height="64" viewBox="0 0 64 64" fill="none" xmlns="http://www.w3.org/2000/svg">
<path d="M56 12H31.716C30.8215 8.5595 27.7165 6 24 6C20.2835 6 17.1785 8.5595 16.284 12H8C6.8955 12 6 12.8955 6 14C6 15.1045 6.8955 16 8 16H16.284C17.1785 19.4405 20.2835 22 24 22C27.7165 22 30.8215 19.4405 31.716 16H56C57.1045 16 58 15.1045 58 14C58 12.8955 57.1045 12 56 12ZM24 18C21.794 18 20 16.206 20 14C20 11.794 21.794 10 24 10C26.206 10 28 11.794 28 14C28 16.206 26.206 18 24 18ZM56 30H47.716C46.8215 26.5595 43.7165 24 40 24C36.2835 24 33.1785 26.5595 32.284 30H8C6.8955 30 6 30.8955 6 32C6 33.1045 6.8955 34 8 34H32.284C33.1785 37.4405 36.2835 40 40 40C43.7165 40 46.8215 37.4405 47.716 34H56C57.1045 34 58 33.1045 58 32C58 30.8955 57.1045 30 56 30ZM40 36C37.794 36 36 34.206 36 32C36 29.794 37.794 28 40 28C42.206 28 44 29.794 44 32C44 34.206 42.206 36 40 36ZM56 48H31.716C30.8215 44.5595 27.7165 42 24 42C20.2835 42 17.1785 44.5595 16.284 48H8C6.8955 48 6 48.8955 6 50C6 51.1045 6.8955 52 8 52H16.284C17.1785 55.4405 20.2835 58 24 58C27.7165 58 30.8215 55.4405 31.716 52H56C57.1045 52 58 51.1045 58 50C58 48.8955 57.1045 48 56 48ZM24 54C21.794 54 20 52.206 20 50C20 47.794 21.794 46 24 46C26.206 46 28 47.794 28 50C28 52.206 26.206 54 24 54Z" fill="#EB5A4D"/>
</svg>
