<svg width="64" height="64" viewBox="0 0 64 64" fill="none" xmlns="http://www.w3.org/2000/svg">
<rect width="64" height="64" rx="8" fill="#0A3ED1"/>
<path d="M40.4185 34.0193H34.9833C33.4958 34.0193 32.2861 35.2289 32.2861 36.7165V40.8848C32.2861 42.3724 33.4958 43.582 34.9833 43.582H40.4185C41.9061 43.582 43.1157 42.3724 43.1157 40.8848V36.7165C43.1157 35.2289 41.9061 34.0193 40.4185 34.0193ZM41.1541 40.8848C41.1541 41.2935 40.819 41.6204 40.4185 41.6204H34.9833C34.5746 41.6204 34.2477 41.2853 34.2477 40.8848V36.7165C34.2477 36.3078 34.5828 35.9809 34.9833 35.9809H40.4185C40.8272 35.9809 41.1541 36.316 41.1541 36.7165V40.8848Z" fill="white"/>
<path d="M52 26.4426C52 26.2709 51.9591 26.1075 51.8692 25.9604L45.9191 15.4986C45.7474 15.1962 45.4205 15 45.0691 15H18.9228C18.5713 15 18.2444 15.188 18.0727 15.4986L12.1308 25.9604C12.049 26.1075 12 26.2709 12 26.4426C12 28.7883 13.414 30.7989 15.4328 31.6898V48.9436C15.4328 49.483 15.8741 49.9244 16.4136 49.9244H21.8324C21.8406 49.9244 21.8488 49.9244 21.857 49.9244H29.4581C29.4663 49.9244 29.4745 49.9244 29.4826 49.9244H47.5783C48.1177 49.9244 48.5591 49.483 48.5591 48.9436V31.8124C48.5591 31.7716 48.5591 31.7389 48.5509 31.7062C50.5779 30.8153 52 28.7965 52 26.4426ZM19.4949 16.9698H44.4969L49.1475 25.1512H14.8525L19.4949 16.9698ZM40.4675 27.1046C40.1569 28.87 38.6122 30.2105 36.7568 30.2105C34.9015 30.2105 33.3568 28.87 33.0462 27.1046H40.4675ZM30.962 27.1046C30.6514 28.87 29.1067 30.2105 27.2513 30.2105C25.396 30.2105 23.8512 28.87 23.5325 27.1046H30.962ZM14.027 27.1046H21.4565C21.1459 28.87 19.593 30.2105 17.7376 30.2105C15.8823 30.2186 14.3376 28.87 14.027 27.1046ZM28.4773 47.9628H22.8378V37.3784C22.8378 36.6101 23.4589 35.9808 24.2354 35.9808H27.0879C27.8562 35.9808 28.4855 36.602 28.4855 37.3784V47.9628H28.4773ZM46.5975 47.9628H30.4389V37.3784C30.4389 35.5313 28.935 34.0192 27.0797 34.0192H24.2272C22.3801 34.0192 20.868 35.5231 20.868 37.3784V47.971H17.3944V32.172C17.5088 32.1802 17.6232 32.1802 17.7376 32.1802C19.7156 32.1802 21.4647 31.1749 22.4945 29.6465C23.5243 31.1749 25.2734 32.1802 27.2513 32.1802C29.2293 32.1802 30.9702 31.1749 32.0082 29.6465C33.038 31.1749 34.7871 32.1802 36.7568 32.1802C38.7348 32.1802 40.4757 31.1749 41.5055 29.6465C42.5353 31.1749 44.2844 32.1802 46.2624 32.1802C46.3768 32.1802 46.483 32.172 46.5975 32.172V47.9628ZM46.2624 30.2186C44.407 30.2186 42.8623 28.8782 42.5517 27.1128H49.9812C49.6624 28.87 48.1177 30.2186 46.2624 30.2186Z" fill="white"/>
</svg>
