<svg width="48" height="48" viewBox="0 0 48 48" fill="none" xmlns="http://www.w3.org/2000/svg">
<path d="M24 1.5C21.6131 1.5 19.3239 2.44821 17.636 4.13604C15.9482 5.82387 15 8.11305 15 10.5V12H13.755C12.4922 11.9987 11.2775 12.4844 10.3638 13.3562C9.45016 14.228 8.90793 15.4185 8.85 16.68L7.665 41.355C7.63462 42.0185 7.73891 42.6813 7.97159 43.3035C8.20426 43.9256 8.56049 44.4942 9.01882 44.9749C9.47715 45.4557 10.0281 45.8386 10.6384 46.1008C11.2487 46.3629 11.9058 46.4987 12.57 46.5H35.43C36.0942 46.4987 36.7513 46.3629 37.3616 46.1008C37.9719 45.8386 38.5229 45.4557 38.9812 44.9749C39.4395 44.4942 39.7957 43.9256 40.0284 43.3035C40.2611 42.6813 40.3654 42.0185 40.335 41.355L39.15 16.68C39.0921 15.4185 38.5498 14.228 37.6362 13.3562C36.7225 12.4844 35.5078 11.9987 34.245 12H33V10.5C33 8.11305 32.0518 5.82387 30.364 4.13604C28.6761 2.44821 26.387 1.5 24 1.5ZM18 10.5C18 8.9087 18.6321 7.38258 19.7574 6.25736C20.8826 5.13214 22.4087 4.5 24 4.5C25.5913 4.5 27.1174 5.13214 28.2426 6.25736C29.3679 7.38258 30 8.9087 30 10.5V12H18V10.5ZM36.15 16.815L37.335 41.505C37.3444 41.763 37.3029 42.0203 37.2128 42.2622C37.1227 42.5042 36.9858 42.726 36.81 42.915C36.6304 43.0994 36.4159 43.2461 36.1789 43.3465C35.942 43.447 35.6874 43.4992 35.43 43.5H12.57C12.3126 43.4992 12.058 43.447 11.8211 43.3465C11.5841 43.2461 11.3696 43.0994 11.19 42.915C11.0142 42.726 10.8773 42.5042 10.7872 42.2622C10.6971 42.0203 10.6556 41.763 10.665 41.505L11.85 16.815C11.8732 16.3255 12.084 15.8638 12.4388 15.5258C12.7936 15.1878 13.265 14.9995 13.755 15H34.245C34.735 14.9995 35.2064 15.1878 35.5612 15.5258C35.916 15.8638 36.1269 16.3255 36.15 16.815Z" fill="#0A3ED1"/>
<path d="M17.04 19.785C17.8684 19.785 18.54 19.1134 18.54 18.285C18.54 17.4565 17.8684 16.785 17.04 16.785C16.2116 16.785 15.54 17.4565 15.54 18.285C15.54 19.1134 16.2116 19.785 17.04 19.785Z" fill="#0A3ED1"/>
<path d="M30.96 19.785C31.7884 19.785 32.46 19.1134 32.46 18.285C32.46 17.4565 31.7884 16.785 30.96 16.785C30.1316 16.785 29.46 17.4565 29.46 18.285C29.46 19.1134 30.1316 19.785 30.96 19.785Z" fill="#0A3ED1"/>
</svg>
