<?xml version="1.0" encoding="utf-8"?>
<!-- Svg Vector Icons : http://www.onlinewebfonts.com/icon -->
<!DOCTYPE svg PUBLIC "-//W3C//DTD SVG 1.1//EN" "http://www.w3.org/Graphics/SVG/1.1/DTD/svg11.dtd">
<svg version="1.1" xmlns="http://www.w3.org/2000/svg" xmlns:xlink="http://www.w3.org/1999/xlink" x="0px" y="0px" viewBox="0 0 1000 1000" enable-background="new 0 0 1000 1000" xml:space="preserve">
<metadata> Svg Vector Icons : http://www.onlinewebfonts.com/icon </metadata>
<g><g transform="translate(0.000000,511.000000) scale(0.100000,-0.100000)"><path d="M4646.4,5006.4c-586-60.6-1014.4-159.6-1469-343.5C1647.8,4050.6,514.2,2692.8,192.9,1088.4c-74.8-369.8-92.9-561.7-92.9-980c0-668.8,105.1-1226.5,341.5-1812.5c573.9-1426.6,1743.8-2481.3,3235-2913.7c414.2-119.2,820.4-173.8,1323.5-173.8c771.9,0,1416.4,143.5,2099.4,466.8C8117.8-3843.9,8952.3-3009.4,9433.2-1991C9756.5-1308,9900-663.5,9900,108.4c0,771.9-143.5,1416.5-466.8,2099.4C8726,3701.1,7348,4715.4,5676.9,4970C5480.9,4998.3,4810.1,5022.6,4646.4,5006.4z M5420.3,4228.5c493-52.5,951.7-185.9,1390.2-400.1C7649,3418.2,8299.7,2769.6,8715.9,1927c917.3-1852.9,313.2-4089.7-1418.5-5261.7c-107.1-72.7-323.3-196-478.9-272.8c-1147.7-567.8-2489.4-567.8-3637.1,0C2338.8-3191.3,1690.2-2540.6,1280-1702.1c-911.3,1861-307.1,4081.7,1426.6,5257.7C3476.5,4074.9,4498.9,4329.5,5420.3,4228.5z"/><path d="M3050.1,1977.5c-155.6-54.6-293-250.5-293-414.2c0-171.8,153.6-377.9,313.2-422.3c113.2-30.3,3726-30.3,3839.2,0c159.6,44.4,313.2,250.5,313.2,422.3s-153.6,377.9-313.2,422.3c-56.6,16.2-638.5,22.2-1929.7,22.2C3438.1,2005.8,3116.8,2001.7,3050.1,1977.5z"/><path d="M3050.1,542.8c-44.5-16.2-119.2-68.7-165.7-117.2c-173.8-183.9-169.7-422.3,12.1-602.1c56.6-58.6,123.3-103.1,173.8-117.2c113.2-30.3,3726-30.3,3839.2,0c159.6,44.4,313.2,250.5,313.2,422.3c0,171.8-153.6,377.9-313.2,422.3c-56.6,16.2-638.5,22.2-1929.7,22.2C3438.1,571.1,3116.8,567.1,3050.1,542.8z"/><path d="M3050.1-912c-44.5-16.2-119.2-68.7-165.7-117.2c-173.8-183.9-169.7-422.3,12.1-602.1c56.6-58.6,123.3-103.1,173.8-117.2c113.2-30.3,3726-30.3,3839.2,0c159.6,44.4,313.2,250.5,313.2,422.3c0,171.7-153.6,377.9-313.2,422.3c-56.6,16.2-638.5,22.2-1929.7,22.2C3438.1-883.7,3116.8-887.8,3050.1-912z"/></g></g>
</svg>