<svg width="64" height="64" viewBox="0 0 64 64" fill="none" xmlns="http://www.w3.org/2000/svg">
<path d="M42.0999 49.9592C41.87 49.9587 41.6421 50.0035 41.4295 50.0912C41.217 50.179 41.0238 50.3079 40.8612 50.4705C40.6986 50.6331 40.5697 50.8263 40.4819 51.0388C40.3942 51.2514 40.3493 51.4793 40.3499 51.7092V56.4292C40.3501 56.5527 40.3258 56.675 40.2787 56.7891C40.2315 56.9032 40.1622 57.0069 40.0749 57.0942C39.9876 57.1815 39.8839 57.2508 39.7698 57.298C39.6557 57.3452 39.5334 57.3694 39.4099 57.3692H5.87995C5.63212 57.3675 5.3951 57.2675 5.22079 57.0913C5.04649 56.9152 4.9491 56.6771 4.94995 56.4292V19.3813H13.4647C14.6345 19.38 15.7559 18.9147 16.5831 18.0875C17.4102 17.2604 17.8755 16.139 17.8769 14.9692V6.44923H39.4099C39.5334 6.4491 39.6557 6.47333 39.7698 6.52052C39.8839 6.56771 39.9876 6.63695 40.0749 6.72426C40.1622 6.81157 40.2315 6.91525 40.2787 7.02936C40.3258 7.14346 40.3501 7.26575 40.3499 7.38923V16.6692C40.3499 17.1334 40.5343 17.5785 40.8625 17.9067C41.1907 18.2349 41.6358 18.4192 42.0999 18.4192C42.5641 18.4192 43.0092 18.2349 43.3374 17.9067C43.6656 17.5785 43.8499 17.1334 43.8499 16.6692V7.38923C43.8492 6.2119 43.3812 5.083 42.5487 4.2505C41.7162 3.418 40.5873 2.94997 39.4099 2.94923H16.1299C16.0292 2.94879 15.9286 2.95884 15.8299 2.97923V2.98433C15.4743 3.04312 15.1457 3.21084 14.8894 3.46433L1.95895 16.394C1.67699 16.6818 1.50442 17.0591 1.47105 17.4606C1.45916 17.5161 1.4521 17.5725 1.44995 17.6292V56.4292C1.45011 57.605 1.91657 58.7328 2.74703 59.5651C3.5775 60.3974 4.70417 60.8664 5.87995 60.8693H39.4099C40.5873 60.8685 41.7162 60.4005 42.5487 59.568C43.3812 58.7355 43.8492 57.6066 43.8499 56.4292V51.7092C43.8505 51.4793 43.8057 51.2514 43.7179 51.0388C43.6302 50.8263 43.5013 50.6331 43.3387 50.4705C43.1761 50.3079 42.9829 50.179 42.7703 50.0912C42.5578 50.0035 42.3299 49.9587 42.0999 49.9592ZM14.3769 8.92623V14.9692C14.3767 15.2111 14.2805 15.4429 14.1094 15.6139C13.9384 15.7849 13.7066 15.8811 13.4647 15.8813H7.42185L14.3769 8.92623Z" fill="#EB5A4D"/>
<path d="M34.3018 23.9653H10.9961C10.532 23.9653 10.0868 24.1497 9.75866 24.4779C9.43047 24.8061 9.24609 25.2512 9.24609 25.7153C9.24609 26.1795 9.43047 26.6246 9.75866 26.9528C10.0868 27.281 10.532 27.4653 10.9961 27.4653H34.3018C34.7659 27.4653 35.211 27.281 35.5392 26.9528C35.8674 26.6246 36.0518 26.1795 36.0518 25.7153C36.0518 25.2512 35.8674 24.8061 35.5392 24.4779C35.211 24.1497 34.7659 23.9653 34.3018 23.9653Z" fill="#EB5A4D"/>
<path d="M34.3018 30.1586H10.9961C10.532 30.1586 10.0868 30.3429 9.75866 30.6711C9.43047 30.9993 9.24609 31.4444 9.24609 31.9086C9.24609 32.3727 9.43047 32.8178 9.75866 33.146C10.0868 33.4742 10.532 33.6586 10.9961 33.6586H34.3018C34.7659 33.6586 35.211 33.4742 35.5392 33.146C35.8674 32.8178 36.0518 32.3727 36.0518 31.9086C36.0518 31.4444 35.8674 30.9993 35.5392 30.6711C35.211 30.3429 34.7659 30.1586 34.3018 30.1586Z" fill="#EB5A4D"/>
<path d="M26.3984 36.3521H10.9961C10.532 36.3521 10.0868 36.5364 9.75866 36.8646C9.43047 37.1928 9.24609 37.6379 9.24609 38.1021C9.24609 38.5662 9.43047 39.0113 9.75866 39.3395C10.0868 39.6677 10.532 39.8521 10.9961 39.8521H26.3984C26.8625 39.8521 27.3076 39.6677 27.6358 39.3395C27.964 39.0113 28.1484 38.5662 28.1484 38.1021C28.1484 37.6379 27.964 37.1928 27.6358 36.8646C27.3076 36.5364 26.8625 36.3521 26.3984 36.3521Z" fill="#EB5A4D"/>
<path d="M19.8135 44.2085C19.3791 43.9766 18.8898 43.8674 18.398 43.8927C17.9063 43.918 17.4307 44.0768 17.0225 44.3521L11.0439 48.3736C10.6598 48.633 10.3943 49.0342 10.3057 49.4892C10.2171 49.9442 10.3126 50.4157 10.5713 50.8003C10.83 51.1849 11.2306 51.4512 11.6854 51.5407C12.1402 51.6303 12.6119 51.5357 12.9971 51.2779L17.8871 47.9888C18.14 49.0116 18.728 49.9205 19.5573 50.5705C20.3866 51.2205 21.4096 51.5744 22.4633 51.5757H26.3988C26.8629 51.5757 27.308 51.3913 27.6362 51.0631C27.9644 50.7349 28.1488 50.2898 28.1488 49.8257C28.1488 49.3615 27.9644 48.9164 27.6362 48.5882C27.308 48.26 26.8629 48.0757 26.3988 48.0757H22.4629C22.1416 48.0752 21.8336 47.9474 21.6064 47.7202C21.3792 47.493 21.2514 47.185 21.251 46.8638V46.6038C21.2514 46.1116 21.1179 45.6286 20.8646 45.2066C20.6114 44.7846 20.248 44.4396 19.8135 44.2085Z" fill="#EB5A4D"/>
<path d="M34.3018 48.0757H31.8037C31.3396 48.0757 30.8945 48.2601 30.5663 48.5882C30.2381 48.9164 30.0537 49.3616 30.0537 49.8257C30.0537 50.2898 30.2381 50.7349 30.5663 51.0631C30.8945 51.3913 31.3396 51.5757 31.8037 51.5757H34.3018C34.7659 51.5757 35.2111 51.3913 35.5393 51.0631C35.8674 50.7349 36.0518 50.2898 36.0518 49.8257C36.0518 49.3616 35.8674 48.9164 35.5393 48.5882C35.2111 48.2601 34.7659 48.0757 34.3018 48.0757Z" fill="#EB5A4D"/>
<path d="M58.2392 8.3237C56.4547 7.55528 54.4384 7.5257 52.6321 8.24144C50.8259 8.95718 49.3771 10.3599 48.6034 12.142L47.7923 14.0175L47.7909 14.02L47.7901 14.0226L38.2701 36.0336C38.0972 36.4338 38.0798 36.884 38.2213 37.2963L40.9127 45.1274C40.9917 45.3577 41.1179 45.5689 41.2833 45.7476C41.4486 45.9263 41.6494 46.0685 41.8728 46.1652C42.0963 46.2619 42.3374 46.3109 42.5809 46.3091C42.8243 46.3073 43.0647 46.2547 43.2867 46.1547L50.8367 42.7524C51.2342 42.5726 51.5507 42.2513 51.7244 41.851L61.2444 19.8389V19.8383V19.8373L62.0566 17.9594C62.8254 16.1751 62.8553 14.1587 62.1397 12.3524C61.4241 10.5461 60.0214 9.09732 58.2392 8.3237ZM56.8492 11.5366C57.7806 11.9404 58.5137 12.6973 58.8878 13.6411C59.2618 14.5848 59.2462 15.6384 58.8443 16.5707L58.7267 16.843L51.6986 13.803L51.816 13.5317C52.2197 12.6002 52.9765 11.867 53.9202 11.4929C54.864 11.1189 55.9177 11.1346 56.8499 11.5366H56.8492ZM49.9988 37.0239L42.9699 33.984L50.3099 17.0156L57.3379 20.0556L49.9988 37.0239ZM41.9418 37.3527L48.2475 40.08L43.5999 42.1752L41.9418 37.3527Z" fill="#EB5A4D"/>
</svg>
