<svg width="64" height="64" viewBox="0 0 64 64" fill="none" xmlns="http://www.w3.org/2000/svg">
<g clip-path="url(#clip0_648_36)">
<path d="M62.1245 64H1.87499C0.839493 64 0 63.1605 0 62.125C0 61.0895 0.839493 60.25 1.87499 60.25H62.1245C63.16 60.25 63.9995 61.0895 63.9995 62.125C63.9995 63.1605 63.16 64 62.1245 64Z" fill="#EB5A4D"/>
<path d="M13.2499 64H5.74999C4.71449 64 3.875 63.1605 3.875 62.125V48.3751C3.875 46.652 5.27686 45.2501 6.99998 45.2501H11.9999C13.723 45.2501 15.1249 46.652 15.1249 48.3751V62.125C15.1249 63.1605 14.2854 64 13.2499 64ZM7.62497 60.25H11.3749V49.0001H7.62497V60.25ZM11.9999 49.0001H12.0012H11.9999Z" fill="#EB5A4D"/>
<path d="M28.2497 64.0001H20.7497C19.7142 64.0001 18.8748 63.1606 18.8748 62.1251V43.8752C18.8748 42.1521 20.2766 40.7502 21.9997 40.7502H26.9997C28.7228 40.7502 30.1247 42.1521 30.1247 43.8752V62.1251C30.1247 63.1606 29.2852 64.0001 28.2497 64.0001ZM22.6247 60.2501H26.3747V44.5002H22.6247V60.2501ZM26.9997 44.5002H27.0009H26.9997Z" fill="#EB5A4D"/>
<path d="M43.2497 64H35.7497C34.7142 64 33.8748 63.1605 33.8748 62.125V37.0002C33.8748 35.2771 35.2766 33.8752 36.9997 33.8752H41.9997C43.7228 33.8752 45.1247 35.2771 45.1247 37.0002V62.125C45.1247 63.1605 44.2852 64 43.2497 64ZM37.6247 60.25H41.3747V37.6252H37.6247V60.25ZM41.9997 37.6252H42.0009H41.9997Z" fill="#EB5A4D"/>
<path d="M58.2494 64H50.7495C49.714 64 48.8745 63.1605 48.8745 62.125V24.5003C48.8745 22.7772 50.2764 21.3754 51.9995 21.3754H56.9994C58.7226 21.3754 60.1244 22.7772 60.1244 24.5003V62.125C60.1244 63.1605 59.2849 64 58.2494 64ZM52.6245 60.25H56.3745V25.1253H52.6245V60.25ZM56.9994 25.1253H57.0007H56.9994Z" fill="#EB5A4D"/>
<path d="M1.87499 40.2883C0.839493 40.2883 0 39.4488 0 38.4133C0 37.3778 0.839493 36.5383 1.87499 36.5383C12.9006 36.5383 24.9053 32.5233 35.6773 25.233C45.5874 18.5262 53.4841 9.73374 57.3426 1.11018C57.7655 0.164937 58.8747 -0.25856 59.8198 0.164562C60.765 0.587434 61.1884 1.69655 60.7654 2.64179C56.6297 11.8851 48.2515 21.2513 37.7792 28.3386C26.3932 36.0444 13.642 40.2883 1.87499 40.2883Z" fill="#EB5A4D"/>
<path d="M62.1235 15.2096C61.2955 15.2096 60.538 14.6571 60.3136 13.8194L57.7285 4.17185L48.0809 6.75696C47.0803 7.02521 46.0526 6.43146 45.7846 5.43122C45.5166 4.43098 46.1101 3.40286 47.1103 3.13486L58.569 0.0645104C59.5696 -0.203613 60.5973 0.390133 60.8653 1.39025L63.9357 12.8489C64.2037 13.8492 63.6102 14.8773 62.6099 15.1453C62.4473 15.1888 62.2841 15.2096 62.1235 15.2096V15.2096Z" fill="#EB5A4D"/>
</g>
<defs>
<clipPath id="clip0_648_36">
<rect width="64" height="64" fill="white"/>
</clipPath>
</defs>
</svg>
