<svg width="64" height="64" viewBox="0 0 64 64" fill="none" xmlns="http://www.w3.org/2000/svg">
<rect width="64" height="64" rx="8" fill="#0AC0D1"/>
<path d="M30.3334 32.5482V14.4999C30.3334 14.0399 29.96 13.6665 29.5 13.6665C19.85 13.6665 12 22.2649 12 32.8331C12 43.4014 20.5984 51.9999 31.1666 51.9999C35.895 51.9999 38.4533 51.1432 41.6966 48.4765C42.045 48.1899 42.1016 47.6781 41.825 47.3215L30.3334 32.5482ZM31.1666 50.3332C21.5166 50.3332 13.6666 42.4832 13.6666 32.8332C13.6666 23.4932 20.3216 15.8382 28.6666 15.3566V32.8332C28.6666 33.0182 28.7283 33.1982 28.8433 33.3449L40.0033 47.6932C37.3716 49.7032 35.1766 50.3332 31.1666 50.3332Z" fill="white"/>
<path d="M32.8334 32H51.1667C51.6267 32 52.0001 31.6266 52.0001 31.1666C52 20.5984 43.4016 12 32.8334 12C32.3734 12 32 12.3734 32 12.8334V31.1667C32 31.6266 32.3734 32 32.8334 32ZM33.6666 13.6866C42.655 14.11 49.89 21.345 50.3133 30.3333H33.6666V13.6866Z" fill="white"/>
<path d="M51.1666 33.6665H34.5C34.18 33.6665 33.885 33.8515 33.7466 34.1415C33.6083 34.4315 33.65 34.7749 33.8516 35.0231L44.685 48.4348C44.83 48.6164 45.0434 48.7264 45.275 48.7431C45.295 48.7448 45.3134 48.7448 45.3334 48.7448C45.5434 48.7448 45.7467 48.6648 45.9017 48.5214C49.7766 44.9065 52 39.7965 52 34.4999C52 34.0399 51.6266 33.6665 51.1666 33.6665ZM45.405 46.6732L36.245 35.3332H50.3134C50.1084 39.5699 48.355 43.6215 45.405 46.6732Z" fill="white"/>
</svg>
