<svg width="48" height="48" viewBox="0 0 48 48" fill="none" xmlns="http://www.w3.org/2000/svg">
<path d="M40.875 0C38.5488 0 36.6562 1.89253 36.6562 4.21875C36.6562 5.16309 36.9682 6.036 37.4944 6.73987L30.6325 14.185C30.3095 14.1055 29.9722 14.0625 29.625 14.0625C28.7613 14.0625 27.9578 14.3238 27.2883 14.7709L22.4009 11.1053C22.5261 10.7068 22.5938 10.2831 22.5938 9.84375C22.5938 7.51753 20.7012 5.625 18.375 5.625C16.0488 5.625 14.1562 7.51753 14.1562 9.84375C14.1562 10.2831 14.2239 10.7068 14.3491 11.1053L9.46172 14.7709C8.79225 14.3238 7.98872 14.0625 7.125 14.0625C4.79878 14.0625 2.90625 15.955 2.90625 18.2812C2.90625 20.6075 4.79878 22.5 7.125 22.5C9.45122 22.5 11.3438 20.6075 11.3438 18.2812C11.3438 17.8419 11.2761 17.4182 11.1509 17.0197L16.0383 13.3541C16.7077 13.8012 17.5113 14.0625 18.375 14.0625C19.2387 14.0625 20.0422 13.8012 20.7117 13.3541L25.5991 17.0197C25.4739 17.4182 25.4062 17.8419 25.4062 18.2812C25.4062 20.6075 27.2988 22.5 29.625 22.5C31.9512 22.5 33.8438 20.6075 33.8438 18.2812C33.8438 17.3369 33.5318 16.464 33.0056 15.7601L39.8675 8.31497C40.1905 8.39447 40.5277 8.4375 40.875 8.4375C43.2012 8.4375 45.0938 6.54497 45.0938 4.21875C45.0938 1.89253 43.2012 0 40.875 0ZM7.125 19.6875C6.34959 19.6875 5.71875 19.0567 5.71875 18.2812C5.71875 17.5058 6.34959 16.875 7.125 16.875C7.90041 16.875 8.53125 17.5058 8.53125 18.2812C8.53125 19.0567 7.90041 19.6875 7.125 19.6875ZM18.375 11.25C17.5996 11.25 16.9688 10.6192 16.9688 9.84375C16.9688 9.06834 17.5996 8.4375 18.375 8.4375C19.1504 8.4375 19.7812 9.06834 19.7812 9.84375C19.7812 10.6192 19.1504 11.25 18.375 11.25ZM29.625 19.6875C28.8496 19.6875 28.2188 19.0567 28.2188 18.2812C28.2188 17.5058 28.8496 16.875 29.625 16.875C30.4004 16.875 31.0312 17.5058 31.0312 18.2812C31.0312 19.0567 30.4004 19.6875 29.625 19.6875ZM40.875 5.625C40.0996 5.625 39.4688 4.99416 39.4688 4.21875C39.4688 3.44334 40.0996 2.8125 40.875 2.8125C41.6504 2.8125 42.2812 3.44334 42.2812 4.21875C42.2812 4.99416 41.6504 5.625 40.875 5.625Z" fill="#0A3ED1"/>
<path d="M46.5938 45.1875H45.1875V18.2812C45.1875 17.5046 44.5579 16.875 43.7812 16.875H38.0625C37.2859 16.875 36.6562 17.5046 36.6562 18.2812V45.1875H33.8438V29.5312C33.8438 28.7546 33.2141 28.125 32.4375 28.125H26.8125C26.0359 28.125 25.4062 28.7546 25.4062 29.5312V45.1875H22.5938V23.9062C22.5938 23.1296 21.9641 22.5 21.1875 22.5H15.5625C14.7859 22.5 14.1562 23.1296 14.1562 23.9062V45.1875H11.3438V32.3438C11.3438 31.5671 10.7141 30.9375 9.9375 30.9375H4.21875C3.44212 30.9375 2.8125 31.5671 2.8125 32.3438V45.1875H1.40625C0.629625 45.1875 0 45.8171 0 46.5938C0 47.3704 0.629625 48 1.40625 48C2.78212 48 44.2981 48 46.5938 48C47.3704 48 48 47.3704 48 46.5938C48 45.8171 47.3704 45.1875 46.5938 45.1875ZM8.53125 45.1875H5.625V33.75H8.53125V45.1875ZM19.7812 45.1875H16.9688V25.3125H19.7812V45.1875ZM31.0312 45.1875H28.2188V30.9375H31.0312V45.1875ZM42.375 45.1875H39.4688V19.6875H42.375V45.1875Z" fill="#0A3ED1"/>
</svg>
