<svg width="64" height="64" viewBox="0 0 64 64" fill="none" xmlns="http://www.w3.org/2000/svg">
<rect width="64" height="64" rx="8" fill="#0A3ED1"/>
<path d="M50.464 34.1109L34.9404 18.5787C34.1207 17.759 33.0248 17.3016 31.8685 17.3016C31.7736 17.3016 31.6787 17.3016 31.5838 17.3103L20.3574 18.0524C19.1407 18.13 18.157 19.1137 18.0793 20.3304L17.8118 24.317C17.2423 23.9891 16.6987 23.5749 16.2068 23.0831C15.0074 21.8836 14.2653 20.3908 14.11 18.8721C13.9633 17.4311 14.3775 16.1453 15.2749 15.2479C17.1819 13.3409 20.6939 13.7637 23.1187 16.1799C23.5243 16.5854 24.1801 16.5854 24.5856 16.1799C24.9912 15.7743 24.9912 15.1185 24.5856 14.7129C21.3411 11.4943 16.5089 11.0801 13.7994 13.7896C12.4532 15.1358 11.8319 17.0083 12.039 19.0878C12.2375 21.0811 13.1953 23.0227 14.7313 24.5586C15.5942 25.4215 16.5952 26.1032 17.6565 26.5692L17.3286 31.5654C17.2423 32.8166 17.7083 34.0419 18.5971 34.9307L34.1293 50.4629C35.113 51.4466 36.416 51.9816 37.8053 51.9816C39.1945 51.9816 40.4975 51.438 41.4812 50.4629L50.4813 41.4629C51.465 40.4792 52 39.1762 52 37.7869C51.9914 36.389 51.4477 35.086 50.464 34.1109ZM49.0057 39.9873L39.997 48.996C39.4103 49.5828 38.625 49.9107 37.788 49.9107C36.951 49.9107 36.1658 49.5828 35.579 48.996L20.0468 33.4638C19.5808 32.9978 19.3392 32.3593 19.3823 31.7035L19.6843 27.1819C19.8569 27.2077 20.0295 27.2336 20.2021 27.2509C20.461 27.2768 20.7198 27.294 20.9701 27.294C22.739 27.294 24.3181 26.6727 25.4917 25.4992C25.8972 25.0936 25.8972 24.4378 25.4917 24.0323C25.0861 23.6267 24.4303 23.6267 24.0247 24.0323C23.1273 24.9297 21.8416 25.3439 20.4005 25.1972C20.2021 25.1799 20.0122 25.1454 19.8224 25.1109L20.1331 20.4857C20.1417 20.2959 20.297 20.1492 20.4868 20.132L31.7132 19.3899C31.765 19.3899 31.8167 19.3812 31.8685 19.3812C32.4725 19.3812 33.0593 19.6228 33.4821 20.0457L49.0057 35.5693C49.5925 36.156 49.9204 36.9413 49.9204 37.7783C49.9204 38.6153 49.5925 39.4005 49.0057 39.9873Z" fill="white"/>
</svg>
