<svg width="64" height="64" viewBox="0 0 64 64" fill="none" xmlns="http://www.w3.org/2000/svg">
<path d="M15.7767 23.0226L11.7993 27L10.4734 25.6742C9.7413 24.9421 8.55405 24.9421 7.8218 25.6742C7.08967 26.4064 7.08967 27.5936 7.8218 28.3259L10.4734 30.9775C10.8395 31.3436 11.3194 31.5267 11.7992 31.5267C12.2789 31.5267 12.7589 31.3436 13.1249 30.9775L18.4282 25.6742C19.1604 24.9421 19.1604 23.7549 18.4282 23.0226C17.696 22.2902 16.5089 22.2902 15.7767 23.0226Z" fill="#EB5A4D"/>
<path d="M15.7767 35.5226L11.7993 39.5L10.4734 38.1742C9.7413 37.4421 8.55405 37.4421 7.8218 38.1742C7.08967 38.9064 7.08967 40.0936 7.8218 40.8259L10.4734 43.4775C10.8395 43.8436 11.3194 44.0267 11.7992 44.0267C12.2789 44.0267 12.7589 43.8436 13.1249 43.4775L18.4282 38.1742C19.1604 37.4421 19.1604 36.2549 18.4282 35.5226C17.696 34.7902 16.5089 34.7902 15.7767 35.5226Z" fill="#EB5A4D"/>
<path d="M15.7767 48.0226L11.7993 52L10.4734 50.6742C9.7413 49.9421 8.55405 49.9421 7.8218 50.6742C7.08967 51.4064 7.08967 52.5936 7.8218 53.3259L10.4734 55.9775C10.8395 56.3436 11.3194 56.5267 11.7992 56.5267C12.2789 56.5267 12.7589 56.3436 13.1249 55.9775L18.4282 50.6742C19.1604 49.9421 19.1604 48.7549 18.4282 48.0226C17.696 47.2902 16.5089 47.2902 15.7767 48.0226Z" fill="#EB5A4D"/>
<path d="M46.25 25.1938V9.5C46.25 6.39838 43.7266 3.875 40.625 3.875H33.7046C33.4004 1.75775 31.5751 0.125 29.375 0.125H16.875C14.6749 0.125 12.8496 1.75775 12.5454 3.875H5.625C2.52338 3.875 0 6.39838 0 9.5V58.25C0 61.3516 2.52338 63.875 5.625 63.875H44.625C55.3085 63.875 64 55.1835 64 44.5C64 34.3639 56.1759 26.022 46.25 25.1938ZM18.75 11.375H27.5V14.5C27.5 14.8446 27.2196 15.125 26.875 15.125H19.375C19.0304 15.125 18.75 14.8446 18.75 14.5V11.375ZM16.25 4.5C16.25 4.15538 16.5304 3.875 16.875 3.875H29.375C29.7196 3.875 30 4.15538 30 4.5V7C30 7.34462 29.7196 7.625 29.375 7.625H16.875C16.5304 7.625 16.25 7.34462 16.25 7V4.5ZM5.625 60.125C4.59113 60.125 3.75 59.2839 3.75 58.25V9.5C3.75 8.46613 4.59113 7.625 5.625 7.625H12.5454C12.7569 9.09688 13.7032 10.3342 15 10.952V14.5C15 16.9124 16.9626 18.875 19.375 18.875H26.875C29.2874 18.875 31.25 16.9124 31.25 14.5V10.952C32.5467 10.3342 33.4931 9.09688 33.7046 7.625H40.625C41.6589 7.625 42.5 8.46613 42.5 9.5V25.242C41.1273 25.3925 39.7972 25.6866 38.5252 26.1095C38.2084 25.5234 37.5882 25.125 36.875 25.125H23.125C22.0895 25.125 21.25 25.9645 21.25 27C21.25 28.0355 22.0895 28.875 23.125 28.875H33.1826C30.1919 31.0711 27.8525 34.1035 26.5114 37.625H23.125C22.0895 37.625 21.25 38.4645 21.25 39.5C21.25 40.5355 22.0895 41.375 23.125 41.375H25.5033C25.3375 42.3926 25.25 43.4362 25.25 44.5C25.25 46.4556 25.5424 48.344 26.0837 50.125H23.125C22.0895 50.125 21.25 50.9645 21.25 52C21.25 53.0355 22.0895 53.875 23.125 53.875H27.6744C29.0404 56.3351 30.9261 58.4681 33.1828 60.125H5.625ZM44.625 60.125C36.0094 60.125 29 53.1156 29 44.5C29 35.8844 36.0094 28.875 44.625 28.875C53.2406 28.875 60.25 35.8844 60.25 44.5C60.25 53.1156 53.2406 60.125 44.625 60.125Z" fill="#EB5A4D"/>
<path d="M55.875 42.625H53.8114C53.5677 41.4298 53.095 40.3175 52.4429 39.3338L53.9059 37.8708C54.6381 37.1386 54.6381 35.9514 53.9059 35.2191C53.1738 34.487 51.9865 34.487 51.2542 35.2191L49.7912 36.6821C48.8076 36.0299 47.6952 35.5571 46.5 35.3136V33.25C46.5 32.2145 45.6605 31.375 44.625 31.375C43.5895 31.375 42.75 32.2145 42.75 33.25V35.3136C41.5548 35.5573 40.4425 36.03 39.4588 36.6821L37.9958 35.2191C37.2636 34.487 36.0764 34.487 35.3441 35.2191C34.6119 35.9512 34.6119 37.1385 35.3441 37.8708L36.8071 39.3338C36.155 40.3174 35.6821 41.4298 35.4386 42.625H33.375C32.3395 42.625 31.5 43.4645 31.5 44.5C31.5 45.5355 32.3395 46.375 33.375 46.375H35.4386C35.6823 47.5702 36.155 48.6825 36.8071 49.6662L35.3441 51.1292C34.6119 51.8614 34.6119 53.0486 35.3441 53.7809C35.7102 54.147 36.1901 54.3301 36.6699 54.3301C37.1496 54.3301 37.6296 54.147 37.9956 53.7809L39.4586 52.3179C40.4423 52.9701 41.5546 53.4429 42.7499 53.6864V55.75C42.7499 56.7855 43.5894 57.625 44.6249 57.625C45.6604 57.625 46.4999 56.7855 46.4999 55.75V53.6864C47.6951 53.4427 48.8074 52.97 49.7911 52.3179L51.2541 53.7809C51.6202 54.147 52.1001 54.3301 52.5799 54.3301C53.0596 54.3301 53.5396 54.147 53.9056 53.7809C54.6379 53.0488 54.6379 51.8615 53.9056 51.1292L52.4426 49.6662C53.0949 48.6826 53.5676 47.5702 53.8111 46.375H55.875C56.9105 46.375 57.75 45.5355 57.75 44.5C57.75 43.4645 56.9105 42.625 55.875 42.625ZM44.625 50.125C41.5234 50.125 39 47.6016 39 44.5C39 41.3984 41.5234 38.875 44.625 38.875C47.7266 38.875 50.25 41.3984 50.25 44.5C50.25 47.6016 47.7266 50.125 44.625 50.125Z" fill="#EB5A4D"/>
<path d="M44.625 46.375C45.6605 46.375 46.5 45.5355 46.5 44.5C46.5 43.4645 45.6605 42.625 44.625 42.625C43.5895 42.625 42.75 43.4645 42.75 44.5C42.75 45.5355 43.5895 46.375 44.625 46.375Z" fill="#EB5A4D"/>
</svg>
