<svg width="64" height="64" viewBox="0 0 64 64" fill="none" xmlns="http://www.w3.org/2000/svg">
<path d="M45.9999 38C45.9999 39.104 45.1059 40 43.9999 40C42.8939 40 41.9999 39.104 41.9999 38C41.9999 36.35 41.0059 34.89 39.4679 34.278C38.4419 33.87 37.9399 32.708 38.3459 31.682C38.7539 30.654 39.9179 30.154 40.9439 30.562C44.0159 31.78 45.9999 34.7 45.9999 38Z" fill="#EB5A4D"/>
<path d="M49.196 46.368C50.948 44.03 52 41.14 52 38C52 32.43 48.722 27.622 44 25.37V6C44 4.896 43.106 4 42 4C28.132 4 18.294 4 6 4C4.894 4 4 4.896 4 6V42C4 43.104 4.894 44 6 44H25.37C27.622 48.722 32.43 52 38 52C41.14 52 44.03 50.948 46.368 49.196L56.586 59.414C57.368 60.196 58.632 60.196 59.414 59.414C60.196 58.632 60.196 57.368 59.414 56.586L49.196 46.368ZM22 8H26V12.764L24.894 12.212C24.332 11.93 23.668 11.93 23.104 12.212L22 12.764V8ZM24.146 40H8V8H18V16C18 16.694 18.36 17.336 18.95 17.702C19.538 18.066 20.274 18.098 20.896 17.79L24 16.236L27.106 17.788C27.744 18.104 28.476 18.056 29.052 17.7C29.64 17.336 30 16.694 30 16V8H40V24.148C30.848 22.778 22.792 30.726 24.146 40ZM38 48C32.294 48 28 43.204 28 38C28 32.486 32.486 28 38 28C43.264 28 48 32.34 48 38C48 43.514 43.514 48 38 48Z" fill="#EB5A4D"/>
</svg>
