<svg width="64" height="64" viewBox="0 0 64 64" fill="none" xmlns="http://www.w3.org/2000/svg">
<path d="M64 32C64 38.3164 62.1255 44.4595 58.5781 49.7646C57.811 50.9121 56.2583 51.2207 55.1104 50.4531C53.9629 49.686 53.6543 48.1333 54.4219 46.9854C57.417 42.5054 59 37.3237 59 32C59 17.1123 46.8877 5 32 5C17.1123 5 5 17.1123 5 32C5 46.8877 17.1123 59 32 59C36.938 59 41.7681 57.6553 45.9673 55.1118C47.1479 54.3965 48.6851 54.7734 49.4009 55.9546C50.1162 57.1357 49.7388 58.6729 48.5576 59.3882C43.5771 62.4053 37.8516 64 32 64C23.4526 64 15.4165 60.6714 9.37256 54.6274C3.32861 48.5835 0 40.5474 0 32C0 23.4526 3.32861 15.4165 9.37256 9.37256C15.4165 3.32861 23.4526 0 32 0C40.5474 0 48.5835 3.32861 54.6274 9.37256C60.6714 15.4165 64 23.4526 64 32ZM31.9912 50C33.3721 50 34.4912 48.8809 34.4912 47.5V21.4688L43.4766 30.5122C43.9653 31.0039 44.6074 31.25 45.25 31.25C45.8872 31.25 46.5244 31.0078 47.0122 30.5234C47.9917 29.5503 47.9966 27.9673 47.0234 26.9878L37.3115 17.2129C35.8936 15.7856 34.0073 15 32 15C29.9927 15 28.1064 15.7856 26.689 17.2129L16.9766 26.9878C16.0034 27.9673 16.0088 29.5503 16.9878 30.5234C17.9678 31.4966 19.5503 31.4912 20.5234 30.5122L29.4912 21.4858V47.5C29.4912 48.8809 30.6108 50 31.9912 50Z" fill="#EB5A4D"/>
</svg>
