<svg width="48" height="48" viewBox="0 0 48 48" fill="none" xmlns="http://www.w3.org/2000/svg">
<g clip-path="url(#clip0_44_520)">
<path d="M3.88013 45.1077H44.12C46.2594 45.1077 48.0001 43.3671 48.0001 41.2276V6.7724C48.0001 4.63293 46.2595 2.89227 44.12 2.89227H3.88013C1.74056 2.89227 0 4.63284 0 6.7724V41.2276C0 43.3671 1.74056 45.1077 3.88013 45.1077V45.1077ZM2.8125 41.2276V16.9548H33.9375V42.2952H3.88013C3.29138 42.2952 2.8125 41.8163 2.8125 41.2276V41.2276ZM44.1199 42.2952H36.75V16.9548H45.1875V41.2276C45.1875 41.8163 44.7086 42.2952 44.1199 42.2952ZM3.88013 5.70477H44.12C44.7086 5.70477 45.1876 6.18365 45.1876 6.7724V14.1423H2.8125V6.7724C2.8125 6.18365 3.29138 5.70477 3.88013 5.70477V5.70477Z" fill="#0A3ED1"/>
<path d="M7.03125 11.3298C7.8079 11.3298 8.4375 10.7002 8.4375 9.92352C8.4375 9.14687 7.8079 8.51727 7.03125 8.51727C6.2546 8.51727 5.625 9.14687 5.625 9.92352C5.625 10.7002 6.2546 11.3298 7.03125 11.3298Z" fill="#0A3ED1"/>
<path d="M12.6562 11.3298C13.4329 11.3298 14.0625 10.7002 14.0625 9.92352C14.0625 9.14687 13.4329 8.51727 12.6562 8.51727C11.8796 8.51727 11.25 9.14687 11.25 9.92352C11.25 10.7002 11.8796 11.3298 12.6562 11.3298Z" fill="#0A3ED1"/>
<path d="M40.9688 11.3298C41.7454 11.3298 42.375 10.7002 42.375 9.92352C42.375 9.14687 41.7454 8.51727 40.9688 8.51727C40.1921 8.51727 39.5625 9.14687 39.5625 9.92352C39.5625 10.7002 40.1921 11.3298 40.9688 11.3298Z" fill="#0A3ED1"/>
<path d="M40.9688 24.5334C41.7454 24.5334 42.375 23.9038 42.375 23.1272C42.375 22.3505 41.7454 21.7209 40.9688 21.7209C40.1921 21.7209 39.5625 22.3505 39.5625 23.1272C39.5625 23.9038 40.1921 24.5334 40.9688 24.5334Z" fill="#0A3ED1"/>
<path d="M40.9688 30.1584C41.7454 30.1584 42.375 29.5288 42.375 28.7522C42.375 27.9755 41.7454 27.3459 40.9688 27.3459C40.1921 27.3459 39.5625 27.9755 39.5625 28.7522C39.5625 29.5288 40.1921 30.1584 40.9688 30.1584Z" fill="#0A3ED1"/>
<path d="M40.9688 35.7834C41.7454 35.7834 42.375 35.1538 42.375 34.3772C42.375 33.6005 41.7454 32.9709 40.9688 32.9709C40.1921 32.9709 39.5625 33.6005 39.5625 34.3772C39.5625 35.1538 40.1921 35.7834 40.9688 35.7834Z" fill="#0A3ED1"/>
<path d="M23.5483 22.5798H29.7188C30.4954 22.5798 31.125 21.9501 31.125 21.1735C31.125 20.3969 30.4954 19.7673 29.7188 19.7673H23.5483C22.7717 19.7673 22.1421 20.3969 22.1421 21.1735C22.1421 21.9501 22.7716 22.5798 23.5483 22.5798V22.5798Z" fill="#0A3ED1"/>
<path d="M29.7188 25.3923H23.5483C22.7717 25.3923 22.1421 26.0219 22.1421 26.7985C22.1421 27.5751 22.7717 28.2048 23.5483 28.2048H29.7188C30.4954 28.2048 31.125 27.5751 31.125 26.7985C31.125 26.0219 30.4954 25.3923 29.7188 25.3923Z" fill="#0A3ED1"/>
<path d="M29.7188 31.0173H23.5483C22.7717 31.0173 22.1421 31.6469 22.1421 32.4235C22.1421 33.2001 22.7717 33.8298 23.5483 33.8298H29.7188C30.4954 33.8298 31.125 33.2001 31.125 32.4235C31.125 31.6469 30.4954 31.0173 29.7188 31.0173Z" fill="#0A3ED1"/>
<path d="M29.7188 36.6423H23.5483C22.7717 36.6423 22.1421 37.2719 22.1421 38.0485C22.1421 38.8251 22.7717 39.4548 23.5483 39.4548H29.7188C30.4954 39.4548 31.125 38.8251 31.125 38.0485C31.125 37.2719 30.4954 36.6423 29.7188 36.6423Z" fill="#0A3ED1"/>
<path d="M17.9233 36.6423H7.03125C6.25462 36.6423 5.625 37.2719 5.625 38.0485C5.625 38.8251 6.25462 39.4548 7.03125 39.4548H17.9233C18.6999 39.4548 19.3296 38.8251 19.3296 38.0485C19.3296 37.2719 18.6999 36.6423 17.9233 36.6423Z" fill="#0A3ED1"/>
<path d="M17.9233 19.7673H7.03125C6.25462 19.7673 5.625 20.3969 5.625 21.1735V32.4235C5.625 33.2001 6.25462 33.8298 7.03125 33.8298H17.9233C18.6999 33.8298 19.3296 33.2001 19.3296 32.4235V21.1735C19.3296 20.3969 18.6999 19.7673 17.9233 19.7673ZM16.5171 31.0173H8.4375V22.5798H16.5171V31.0173Z" fill="#0A3ED1"/>
</g>
<defs>
<clipPath id="clip0_44_520">
<rect width="48" height="48" fill="white"/>
</clipPath>
</defs>
</svg>
