<svg width="547" height="465" viewBox="0 0 547 465" fill="none" xmlns="http://www.w3.org/2000/svg">
<path opacity="0.4" d="M547 436.143C547 452.073 424.545 465 273.5 465C122.455 465 0 452.073 0 436.143C0 420.212 122.455 407.3 273.5 407.3C424.545 407.3 547 420.212 547 436.143Z" fill="#F3F7FF"/>
<path d="M473.015 114.634L463.392 109.452C461.897 108.674 460.624 107.527 459.695 106.121C458.766 104.714 458.21 103.094 458.08 101.413C457.962 98.954 457.727 96.4806 457.359 93.9629C457.02 91.6956 456.594 89.546 456.064 87.2639C455.649 85.7778 455.72 84.1979 456.265 82.7546C456.81 81.3113 457.802 80.0799 459.095 79.2398L467.232 74.1603C470.926 71.8635 471.573 66.7988 468.704 62.7205L446.735 32.1111C443.792 28.0917 438.524 26.6783 434.831 28.9751L426.605 34.1135C425.201 34.9024 423.602 35.2781 421.993 35.1973C420.384 35.1166 418.83 34.5826 417.512 33.657C413.197 30.8454 408.648 28.4119 403.915 26.3838C402.356 25.7184 400.988 24.6711 399.939 23.3383C398.89 22.0056 398.193 20.4303 397.912 18.7573L396.44 8.45108C396.067 6.13295 394.894 4.01882 393.125 2.47524C391.357 0.931662 389.104 0.0559767 386.758 1.53156e-05H351.546C350.489 -0.0320885 349.437 0.173981 348.47 0.603C347.503 1.03202 346.644 1.67302 345.957 2.47866C345.271 3.28429 344.774 4.23396 344.504 5.25751C344.233 6.28107 344.196 7.35234 344.395 8.39219L345.955 18.9192C346.228 20.4358 346.005 22.0002 345.318 23.3797C344.631 24.7591 343.518 25.8799 342.144 26.5752C338.373 28.4361 334.808 30.6863 331.505 33.289C330.214 34.224 328.679 34.7623 327.088 34.8382C325.496 34.914 323.917 34.524 322.544 33.7159L312.582 28.3567C308.168 26.0305 303.297 27.385 301.546 31.3013L288.303 61.734C286.567 65.7387 288.671 70.8771 293.026 73.218L303.003 78.5773C304.494 79.3597 305.764 80.5072 306.692 81.9128C307.621 83.3184 308.179 84.9364 308.315 86.6161C308.432 89.0012 308.668 91.4305 309.036 93.8893C309.359 96.0978 309.771 98.3062 310.286 100.441C310.692 101.919 310.617 103.487 310.072 104.919C309.527 106.352 308.54 107.573 307.255 108.406L298.794 113.677C295.101 115.974 294.38 121.039 297.323 125.132L319.307 155.8C322.249 159.834 327.532 161.233 331.225 158.936L339.627 153.695C341.051 152.903 342.67 152.533 344.295 152.627C345.921 152.721 347.486 153.275 348.809 154.225C353.051 156.982 357.515 159.38 362.155 161.395C363.706 162.059 365.065 163.103 366.106 164.431C367.148 165.758 367.838 167.327 368.115 168.992L369.675 179.519C370.059 181.817 371.228 183.909 372.984 185.44C374.739 186.971 376.971 187.844 379.298 187.911H414.51C415.568 187.943 416.619 187.737 417.586 187.308C418.553 186.879 419.412 186.238 420.099 185.432C420.785 184.627 421.282 183.677 421.552 182.654C421.823 181.63 421.86 180.559 421.661 179.519L420.19 169.213C419.913 167.69 420.138 166.119 420.83 164.736C421.523 163.352 422.646 162.232 424.03 161.542C427.841 159.682 431.446 157.427 434.787 154.814C436.088 153.87 437.635 153.328 439.24 153.252C440.845 153.176 442.437 153.57 443.821 154.387L453.533 159.613C457.874 161.954 462.818 160.6 464.569 156.595L477.812 126.162C479.475 122.114 477.371 116.96 473.015 114.634ZM390.084 140.517C360.404 140.517 333.094 112.735 336.405 81.728C337.876 67.4466 350.59 52.6057 364.363 48.9691C394.189 41.0628 425.399 64.2811 429.754 93.9924C433.433 119.257 415.378 140.488 390.084 140.517Z" fill="#D0DAFD"/>
<path d="M484.537 114.634L474.898 109.452C473.407 108.669 472.138 107.522 471.209 106.116C470.28 104.71 469.722 103.092 469.587 101.413C469.475 98.9187 469.234 96.4321 468.866 93.9629C468.527 91.6955 468.1 89.546 467.571 87.2639C467.163 85.7745 467.241 84.1941 467.791 82.7516C468.341 81.309 469.336 80.079 470.631 79.2398L478.768 74.1603C482.447 71.8635 483.094 66.7988 480.24 62.7205L458.256 32.1111C455.313 28.0917 450.031 26.6783 446.352 28.9751L438.112 34.1135C436.71 34.9028 435.113 35.2788 433.507 35.198C431.9 35.1173 430.349 34.583 429.033 33.657C424.714 30.8453 420.16 28.4118 415.422 26.3838C413.863 25.7184 412.495 24.6711 411.446 23.3383C410.397 22.0056 409.7 20.4302 409.419 18.7573L407.947 8.45107C407.573 6.13295 406.4 4.01881 404.632 2.47523C402.864 0.931656 400.611 0.0559699 398.265 8.49087e-06H363.053C361.996 -0.0293303 360.946 0.178592 359.98 0.608503C359.014 1.03841 358.157 1.67939 357.471 2.48435C356.785 3.2893 356.288 4.23779 356.016 5.26013C355.745 6.28247 355.706 7.35269 355.902 8.39218L357.461 18.9192C357.737 20.436 357.515 22.0013 356.828 23.3813C356.141 24.7613 355.026 25.8817 353.65 26.5752C349.885 28.437 346.325 30.6871 343.026 33.289C341.736 34.224 340.201 34.7623 338.609 34.8382C337.018 34.914 335.439 34.524 334.065 33.7159L324.089 28.3567C319.748 26.0305 314.804 27.385 313.068 31.3013L299.824 61.734C298.073 65.7387 300.192 70.8771 304.533 73.218L314.51 78.5773C316.003 79.3575 317.274 80.5044 318.203 81.9105C319.132 83.3165 319.689 84.9357 319.822 86.6161C319.939 89.0012 320.175 91.4305 320.543 93.8893C320.866 96.0978 321.293 98.3062 321.793 100.441C322.199 101.919 322.124 103.487 321.579 104.919C321.034 106.352 320.047 107.573 318.762 108.406L310.301 113.677C306.608 115.974 305.887 121.039 308.83 125.132L330.784 155.726C333.727 159.76 338.995 161.159 342.688 158.862L351.105 153.621C352.528 152.83 354.147 152.46 355.773 152.553C357.398 152.647 358.964 153.201 360.287 154.151C364.527 156.911 368.991 159.31 373.633 161.321C375.182 161.988 376.539 163.032 377.58 164.36C378.622 165.687 379.313 167.254 379.592 168.918L381.064 179.445C381.454 181.743 382.627 183.835 384.384 185.365C386.141 186.894 388.373 187.768 390.702 187.837H425.987C427.045 187.87 428.096 187.663 429.064 187.234C430.031 186.805 430.889 186.164 431.576 185.359C432.263 184.553 432.759 183.604 433.03 182.58C433.3 181.556 433.337 180.485 433.138 179.445L431.667 169.139C431.39 167.617 431.615 166.046 432.308 164.662C433 163.279 434.123 162.158 435.508 161.468C439.32 159.612 442.926 157.356 446.264 154.74C447.565 153.797 449.113 153.254 450.718 153.178C452.322 153.102 453.915 153.497 455.299 154.313L465.01 159.54C469.425 161.881 474.295 160.526 476.046 156.521L489.289 126.089C490.996 122.113 488.877 116.96 484.537 114.634ZM401.605 140.517C371.911 140.517 344.601 112.735 347.926 81.728C349.398 67.4466 362.097 52.6057 375.884 48.9691C405.711 41.0628 436.92 64.2811 441.29 93.9923C444.94 119.257 426.885 140.488 401.605 140.517Z" fill="#E9EFFD"/>
<path d="M185.11 133.406L178.12 129.652C177.031 129.079 176.106 128.238 175.434 127.207C174.762 126.176 174.364 124.99 174.28 123.762C174.191 121.996 174.015 120.185 173.75 118.359C173.485 116.533 173.191 115.105 172.808 113.5C172.495 112.412 172.54 111.251 172.938 110.19C173.335 109.13 174.064 108.225 175.015 107.611L180.901 103.93C183.579 102.267 184.035 98.5418 181.946 95.6266L166.039 73.6156C165.154 72.2261 163.784 71.2164 162.195 70.7835C160.606 70.3507 158.913 70.5258 157.446 71.2746L151.472 74.9848C150.455 75.5597 149.296 75.8344 148.129 75.7771C146.962 75.7198 145.836 75.3327 144.88 74.6609C141.755 72.6171 138.456 70.8533 135.021 69.39C133.879 68.9131 132.876 68.1558 132.105 67.1881C131.333 66.2205 130.818 65.0738 130.607 63.8541L129.488 56.3306C129.2 54.6689 128.349 53.1568 127.08 52.0472C125.81 50.9377 124.198 50.298 122.514 50.2353H96.9839C96.216 50.2129 95.4529 50.3633 94.7508 50.6752C94.0486 50.9871 93.4254 51.4527 92.927 52.0376C92.4286 52.6225 92.0676 53.3118 91.8708 54.0548C91.6739 54.7978 91.6462 55.5755 91.7896 56.3306L92.9226 63.9719C93.1214 65.0719 92.9595 66.2067 92.4609 67.207C91.9624 68.2074 91.154 69.0196 90.1563 69.5225C87.4082 70.8712 84.8091 72.5046 82.4017 74.3959C81.4683 75.082 80.3533 75.4773 79.1964 75.5323C78.0395 75.5873 76.8921 75.2995 75.8978 74.7051L68.7171 70.8182C65.5535 69.125 61.9778 70.1115 60.7124 73.0119L51.0891 95.0966C50.5413 96.6542 50.5798 98.3582 51.1973 99.8895C51.8149 101.421 52.9692 102.674 54.444 103.415L61.8013 107.302C62.8895 107.875 63.8134 108.717 64.4854 109.748C65.1575 110.779 65.5555 111.964 65.6418 113.191C65.7301 114.929 65.9066 116.681 66.1715 118.462C66.4364 120.244 66.7159 121.657 67.0838 123.232C67.3745 124.304 67.3174 125.441 66.9207 126.478C66.524 127.516 65.8082 128.4 64.8766 129.004L58.7406 132.832C56.0626 134.496 55.5917 138.206 57.6959 141.136L73.5729 163.279C74.4749 164.662 75.8585 165.66 77.4548 166.079C79.0511 166.498 80.7461 166.308 82.2104 165.547L88.2875 161.748C89.3212 161.175 90.496 160.907 91.6757 160.975C92.8554 161.043 93.9918 161.444 94.9532 162.131C98.0286 164.133 101.268 165.872 104.635 167.328C105.759 167.816 106.743 168.576 107.498 169.54C108.254 170.504 108.757 171.642 108.962 172.849L110.08 180.491C110.372 182.152 111.226 183.663 112.498 184.77C113.771 185.876 115.384 186.512 117.069 186.571H142.643C143.409 186.594 144.17 186.444 144.871 186.133C145.571 185.821 146.193 185.357 146.69 184.773C147.187 184.19 147.547 183.502 147.743 182.761C147.939 182.02 147.966 181.244 147.823 180.491L146.719 172.967C146.516 171.863 146.677 170.723 147.179 169.719C147.681 168.715 148.495 167.901 149.5 167.402C152.264 166.051 154.878 164.413 157.299 162.514C158.245 161.831 159.369 161.439 160.534 161.384C161.7 161.329 162.855 161.614 163.862 162.205L170.91 166.003C174.059 167.696 177.649 166.71 178.915 163.809L188.523 141.725C189.07 140.16 189.024 138.45 188.395 136.917C187.766 135.384 186.597 134.135 185.11 133.406ZM124.942 152.178C103.399 152.178 83.5936 132.022 85.9921 109.481C87.1104 99.1749 96.2923 88.3387 106.254 85.7032C127.884 79.9759 150.53 96.8192 153.694 118.374C156.387 136.792 143.291 152.163 124.942 152.178Z" fill="#D0DAFD"/>
<path d="M193.467 133.406L186.478 129.652C185.387 129.08 184.46 128.239 183.785 127.208C183.111 126.178 182.71 124.992 182.623 123.762C182.538 121.954 182.361 120.15 182.093 118.359C181.858 116.725 181.534 115.105 181.166 113.5C180.845 112.412 180.887 111.249 181.285 110.186C181.683 109.124 182.416 108.22 183.373 107.611L189.259 103.93C191.937 102.267 192.408 98.5418 190.318 95.6266L174.397 73.6156C173.5 72.2275 172.116 71.2253 170.518 70.8058C168.92 70.3863 167.223 70.5798 165.76 71.3482L159.786 75.0584C158.769 75.6333 157.61 75.9081 156.443 75.8507C155.276 75.7934 154.149 75.4064 153.194 74.7345C150.064 72.6906 146.76 70.9268 143.32 69.4637C142.178 68.9867 141.175 68.2294 140.404 67.2618C139.632 66.2941 139.117 65.1475 138.906 63.9278L137.787 56.4043C137.498 54.7401 136.646 53.2262 135.373 52.1163C134.1 51.0065 132.485 50.3684 130.798 50.3089H105.327C104.56 50.2888 103.799 50.4408 103.099 50.7537C102.398 51.0666 101.777 51.5325 101.28 52.1171C100.783 52.7017 100.424 53.3902 100.228 54.1321C100.032 54.874 100.004 55.6504 100.147 56.4043L101.28 64.0456C101.466 65.126 101.306 66.2375 100.822 67.2213C100.339 68.205 99.5565 69.0105 98.5877 69.5226C95.8549 70.8739 93.2708 72.5072 90.8773 74.3959C89.9438 75.082 88.8289 75.4773 87.672 75.5323C86.515 75.5873 85.3676 75.2996 84.3734 74.7051L77.0603 70.8182C73.9113 69.125 70.321 70.1115 69.0555 73.0119L59.4469 95.0966C58.8994 96.663 58.9444 98.3759 59.5735 99.9114C60.2025 101.447 61.3719 102.699 62.8607 103.43L70.1003 107.317C71.1903 107.889 72.1164 108.731 72.791 109.761C73.4656 110.792 73.8664 111.977 73.9555 113.206C74.0438 114.943 74.2056 116.695 74.4705 118.477C74.7354 120.258 75.0149 121.672 75.3828 123.247C75.6796 124.317 75.627 125.455 75.2326 126.493C74.8382 127.531 74.1227 128.416 73.1903 129.019L67.0396 132.847C64.3763 134.51 63.9054 138.221 65.9949 141.15L81.9308 163.279C82.8305 164.665 84.2142 165.665 85.8114 166.084C87.4086 166.503 89.1047 166.312 90.5683 165.547L96.6601 161.748C97.6938 161.175 98.8686 160.907 100.048 160.975C101.228 161.043 102.364 161.444 103.326 162.131C106.405 164.127 109.643 165.865 113.008 167.328C114.131 167.816 115.115 168.576 115.871 169.54C116.626 170.504 117.129 171.642 117.334 172.849L118.467 180.491C118.759 182.15 119.611 183.658 120.88 184.765C122.149 185.872 123.759 186.509 125.442 186.571H150.986C151.754 186.596 152.516 186.448 153.219 186.137C153.921 185.827 154.544 185.363 155.043 184.779C155.542 184.195 155.903 183.507 156.1 182.765C156.297 182.022 156.324 181.245 156.181 180.491L155.062 172.967C154.862 171.862 155.027 170.721 155.531 169.717C156.036 168.714 156.852 167.901 157.858 167.402C160.622 166.051 163.236 164.413 165.657 162.514C166.603 161.831 167.727 161.439 168.892 161.384C170.057 161.329 171.213 161.614 172.219 162.205L179.253 166.003C182.417 167.696 185.992 166.71 187.258 163.809L196.881 141.725C197.425 140.16 197.377 138.451 196.749 136.919C196.12 135.386 194.953 134.137 193.467 133.406ZM133.299 152.178C111.757 152.178 91.9367 132.022 94.3499 109.481C95.4535 99.1749 104.65 88.3387 114.597 85.7033C136.228 79.976 158.873 96.8192 162.037 118.374C164.803 136.792 151.634 152.163 133.299 152.178Z" fill="#E9EFFD"/>
<path d="M313.067 379.753L245.013 385.804L237.39 384.582L250.957 303.973L326.634 299.129L313.067 379.753Z" fill="#5A83CC"/>
<path d="M320.719 380.843L245.042 385.687L258.609 305.063L334.286 300.234L320.719 380.843Z" fill="#7498E8"/>
<path d="M277.223 398.967L237.773 392.371L237.376 384.523L276.693 390.722L277.223 398.967Z" fill="#5A83CC"/>
<path d="M276.825 390.781L346.896 386.305L320.719 380.843L244.998 385.701L276.825 390.781Z" fill="#E9EFFD"/>
<path d="M347.006 386.253L276.696 390.753L277.219 398.937L347.529 394.437L347.006 386.253Z" fill="#5A83CC"/>
<path d="M435.89 335.805H148.279L104.165 120.258H391.776L435.89 335.805Z" fill="#7498E8"/>
<path d="M155.989 325.602L116.054 130.462H384.065L423.986 325.602H155.989Z" fill="white"/>
<path d="M104.165 120.258L99.7061 126.707L143.806 342.253L148.279 335.805L104.165 120.258Z" fill="#5A83CC"/>
<path d="M431.432 342.253L435.89 335.805H148.279L143.806 342.253H431.432Z" fill="#5A83CC"/>
<path d="M299.604 207.139L282.52 118.433C282.385 117.776 282.397 117.097 282.556 116.445C282.715 115.793 283.017 115.185 283.439 114.664C283.861 114.143 284.394 113.722 284.998 113.432C285.603 113.141 286.264 112.989 286.934 112.985H406.123C407.165 112.995 408.173 113.363 408.977 114.028C409.78 114.693 410.331 115.614 410.537 116.636L427.694 205.329C427.829 205.986 427.817 206.665 427.658 207.316C427.499 207.968 427.197 208.576 426.775 209.097C426.353 209.618 425.82 210.039 425.216 210.33C424.611 210.62 423.95 210.772 423.28 210.776H304.092C303.039 210.781 302.017 210.422 301.199 209.759C300.381 209.096 299.818 208.171 299.604 207.139Z" fill="#D0DAFD"/>
<path d="M304.886 205.358L288.097 118.403H405.24L422.029 205.358H304.886Z" fill="#E9EFFD"/>
<path d="M309.006 187.97L291.893 99.4105C291.761 98.7536 291.775 98.0757 291.935 97.4251C292.095 96.7745 292.397 96.1673 292.819 95.6469C293.24 95.1265 293.772 94.7057 294.375 94.4146C294.978 94.1235 295.638 93.9692 296.308 93.9629H415.304C416.348 93.97 417.357 94.3372 418.161 95.0024C418.965 95.6676 419.516 96.5902 419.719 97.6142L437.023 186.174C437.155 186.831 437.141 187.508 436.981 188.159C436.821 188.81 436.519 189.417 436.098 189.937C435.676 190.458 435.145 190.879 434.541 191.17C433.938 191.461 433.278 191.615 432.609 191.621H313.421C312.378 191.611 311.37 191.243 310.567 190.578C309.763 189.914 309.212 188.993 309.006 187.97Z" fill="#5A83CC"/>
<path d="M314.23 186.262L297.455 99.3221H414.598L431.387 186.262H314.23Z" fill="white"/>
<path d="M368.806 186.071L400.148 118.403L422.78 142.858L431.476 186.012L368.806 186.071Z" fill="#344159"/>
<path d="M314.142 186.409L305.681 145.641L328.959 106.625L431.387 186.262L314.142 186.409Z" fill="#344159"/>
<path d="M386.876 117.785C386.876 119.992 386.222 122.15 384.996 123.985C383.771 125.82 382.029 127.251 379.991 128.095C377.953 128.94 375.71 129.161 373.546 128.731C371.383 128.3 369.395 127.237 367.835 125.676C366.276 124.116 365.213 122.127 364.783 119.962C364.353 117.797 364.573 115.553 365.418 113.514C366.262 111.475 367.691 109.732 369.526 108.506C371.36 107.279 373.516 106.625 375.722 106.625C378.68 106.625 381.517 107.801 383.609 109.893C385.701 111.986 386.876 114.825 386.876 117.785Z" fill="#F9DC80"/>
<path d="M174.383 378.045L134.447 182.905L249.294 183.126L285.125 213.662L318.821 378.325L174.383 378.045Z" fill="#D0DAFD"/>
<path d="M180.342 362.763L143.541 174.646L253.164 174.984L294.542 206.919L324.78 363.057L180.342 362.763Z" fill="#E9EFFD"/>
<path d="M273.5 309.097H181.593L169.586 247.864H261.493L273.5 309.097Z" fill="#D0DAFD"/>
<path d="M253.164 174.984L294.512 206.904L261.478 208.685L253.164 174.984Z" fill="#D0DAFD"/>
<path d="M173.683 198.779L170.732 220.428H167.429L171.105 196.674H173.235L173.683 198.779ZM185.587 220.428L172.359 198.779L171.81 196.674H173.939L188.907 220.428H185.587ZM183.084 211.634L183.695 214.212H169.98L169.369 211.634H183.084Z" fill="#344159"/>
<path d="M283.065 224.027H213.229L212.655 219.728H282.505L283.065 224.027Z" fill="#7498E8"/>
<path d="M285.11 238.176H215.274L214.524 233.891H284.359L285.11 238.176Z" fill="#7498E8"/>
<path d="M306.181 325.852L183.726 325.484L182.24 317.283L304.695 317.666L306.181 325.852Z" fill="#7498E8"/>
<path d="M308.418 339.559L185.963 339.191L184.477 330.99L306.932 331.358L308.418 339.559Z" fill="#7498E8"/>
<path d="M267.114 290.929C276.737 302.56 293.924 307.669 301.428 315.251C305.181 321.141 300.678 326.868 297.838 326.691C289.539 326.161 265.834 299.071 263.067 295.89C263.009 295.935 267.129 290.796 267.114 290.929Z" fill="#FFB3A1"/>
<path d="M262.802 295.36C261.676 293.428 261.022 291.256 260.894 289.022C260.766 286.788 261.168 284.556 262.067 282.507C262.964 282.154 262.744 287.984 264.141 288.058C265.937 284.421 264.303 276.75 267.232 276.809C268.894 279.756 269.827 283.058 269.952 286.439C270.078 289.82 269.392 293.182 267.953 296.244C266.334 296.671 263.671 296.892 262.802 295.36Z" fill="#FFB3A1"/>
<path d="M282.52 258.891C276.163 255.755 274.089 262.999 273.765 264.059C273.422 265.334 273.396 266.674 273.691 267.961C273.989 269.255 274.398 270.521 274.913 271.744C275.327 271.337 275.693 270.882 276.001 270.39C278.4 266.665 279.577 262.071 282.52 258.891Z" fill="#1F2635"/>
<path d="M362.567 417.827C363.151 417.574 363.795 417.497 364.421 417.606C364.868 417.764 365.268 418.033 365.584 418.387C366.294 419.17 366.93 420.018 367.482 420.919C371.146 426.455 375.443 431.77 381.181 435.112C382.005 435.598 383.006 436.319 382.8 437.262C382.724 437.528 382.574 437.767 382.369 437.952C382.163 438.136 381.91 438.26 381.637 438.307C381.098 438.409 380.544 438.409 380.004 438.307C372.426 437.085 364.407 433.669 357.152 431.166C356.49 430.945 355.078 431.284 354.651 430.754C354.224 430.224 355.563 429.458 355.578 428.604C355.578 427.044 355.578 425.483 355.696 423.923C355.696 422.877 355.254 421.773 355.843 420.831C356.225 420.183 361.081 418.284 362.567 417.827Z" fill="#F9DC80"/>
<path d="M284.227 422.907C305.151 415.148 351.473 421.169 356.534 420.271C356.917 423.613 357.049 431.181 357.049 431.181C357.049 431.181 290.275 443.578 282.961 438.16C275.648 432.742 278.4 426.573 284.227 422.907Z" fill="#1F2635"/>
<path d="M312.729 358.316C312.729 358.316 319.351 366.193 321.219 373.746C325.457 390.899 299.854 429.311 295.307 434.464C290.76 439.617 283.727 435.112 283.182 433.331C282.638 431.549 284.197 383.773 288.17 377.162C292.143 370.551 312.729 358.316 312.729 358.316Z" fill="#1F2635"/>
<path d="M293.173 287.233C291.628 292.195 292.835 297.731 294.645 302.604C290.363 305.622 284.683 305.932 279.459 305.401C279.607 302.56 279.989 299.777 280.048 296.921C280.265 294.051 279.41 291.202 277.65 288.926C280.27 289.767 283.063 289.914 285.757 289.353C288.29 288.881 290.773 288.171 293.173 287.233Z" fill="#FFB3A1"/>
<g style="mix-blend-mode:multiply" opacity="0.3">
<path d="M291.349 288.882C289.627 289.471 287.641 289.029 285.698 289.353C283.004 289.914 280.211 289.767 277.591 288.926C279.186 290.911 280.044 293.388 280.019 295.935C284.212 294.197 288.406 292.357 291.349 288.882Z" fill="#FFB3A1"/>
</g>
<path d="M310.684 359.583C310.684 359.583 320.351 364.147 316.231 378.605C313.95 386.599 270.513 435.539 263.774 438.425C257.034 441.311 250.31 433.345 250.604 431.372C250.898 429.4 260.316 395.904 282.77 366.812C287.803 360.289 310.684 359.583 310.684 359.583Z" fill="#344159"/>
<path d="M293.821 297.628C285.492 296.303 276.561 296.155 274.339 299.1C273.956 299.601 269.821 305.858 269.247 311.35C268.703 316.473 268.173 322.348 269.365 326.721C271.587 334.921 274.589 330.328 279.224 346.14C281.136 353.133 281.97 360.377 281.696 367.621C291.525 370.566 315.201 369.565 319.645 364.809C319.645 364.809 310.228 346.214 309.345 329.327C308.182 305.254 301.649 298.879 293.821 297.628Z" fill="#F75E5E"/>
<path d="M278.268 298.423C274.206 296.95 254.356 310.967 237.817 320.228C237.817 320.228 237.081 329.282 240.76 331.771C244.439 334.259 278.915 318.888 281.49 314.515C284.874 308.714 285.463 301.367 278.268 298.423Z" fill="#FFB3A1"/>
<path d="M279.739 297.083C276.796 296.803 265.451 301.691 256.725 307.212C257.167 313.47 261.066 319.963 263.877 325.292C272.617 321.376 281.387 316.606 282.594 314.559C286.007 308.758 287.008 300.028 279.739 297.083Z" fill="#F75E5E"/>
<path d="M223.882 287.557C228.694 298.864 243.011 312.586 247.617 322.274C249.177 329.106 243.056 332.978 240.436 331.859C232.785 328.59 219.483 295.051 217.938 291.208H217.835L217.746 291.076C219.821 289.751 223.927 287.439 223.882 287.557Z" fill="#FFB3A1"/>
<path d="M346.44 429.915C347.058 429.674 347.727 429.598 348.383 429.694C349.516 429.944 350.56 432.506 351.164 433.419C354.897 439.318 359.93 444.284 365.878 447.936C366.746 448.436 367.776 449.187 367.57 450.159C367.487 450.433 367.331 450.68 367.118 450.872C366.906 451.064 366.645 451.194 366.364 451.249C365.8 451.36 365.22 451.36 364.657 451.249C356.801 449.757 349.09 447.58 341.614 444.741C340.426 444.477 339.292 444.014 338.259 443.372C337.715 442.694 339.201 442.032 339.23 441.149C339.23 439.529 339.304 437.895 339.348 436.275C339.177 435.05 339.308 433.801 339.73 432.639C340.271 431.995 341.021 431.562 341.849 431.417C343.335 430.872 344.895 430.401 346.44 429.915Z" fill="#F9DC80"/>
<path d="M258.079 424.026C282.873 418.313 334.36 431.888 340.216 431.608C340.216 435.451 339.215 444.02 339.215 444.02C339.215 444.02 261.89 448.289 254.415 441.075C246.94 433.861 250.943 427.338 258.079 424.026Z" fill="#344159"/>
<path d="M277.076 264.339C273.897 271.7 270.307 288.028 280.019 291.046C290.024 293.741 297.897 285.157 300.354 279.106C302.135 274.689 302.591 265.369 291.378 262.263C282.77 259.892 278.635 260.717 277.076 264.339Z" fill="#FFB3A1"/>
<path d="M277.547 260.599C273.353 273.114 283.344 275.028 283.432 275.322C283.533 275.595 283.568 275.887 283.535 276.176C283.373 279.03 283.009 281.869 282.446 284.671C283.049 284.958 283.688 285.161 284.345 285.275C285.257 284.141 286.684 281.079 288.362 282.507C283.947 288.632 286.611 295.625 284.992 297.996C282.41 301.58 281.02 305.886 281.019 310.304C281.05 312.504 281.599 314.665 282.621 316.612C283.644 318.559 285.112 320.236 286.905 321.509C291.437 324.453 298.191 322.083 302.915 319.447C306.461 317.46 309.551 314.088 309.83 310.039C310.081 306.358 308.006 302.943 305.902 299.91C303.797 296.877 301.487 293.697 301.193 290.016C300.928 286.85 302.164 283.803 302.959 280.74C303.576 278.329 303.956 275.864 304.092 273.379C304.353 270.744 303.77 268.094 302.429 265.811C300.119 261.541 295.439 260.629 290.657 260.084C285.875 259.539 280.328 254.783 277.547 260.599Z" fill="#1F2635"/>
<path d="M288.318 279.518C288.586 279.405 288.879 279.36 289.17 279.388C289.46 279.416 289.739 279.517 289.98 279.68C290.175 279.835 290.334 280.029 290.448 280.25C290.562 280.471 290.628 280.713 290.643 280.961C290.668 281.462 290.593 281.962 290.422 282.433C290.127 283.304 289.621 284.088 288.95 284.716C288.301 285.35 287.444 285.727 286.537 285.776C285.777 285.795 285.034 285.55 284.433 285.084C284.433 285.084 286.464 281.565 286.714 281.123C287.077 280.44 287.635 279.882 288.318 279.518Z" fill="#FFB3A1"/>
<g style="mix-blend-mode:multiply" opacity="0.3">
<path d="M290.643 280.961C290.628 280.713 290.562 280.471 290.448 280.25C290.334 280.029 290.175 279.835 289.98 279.68C289.782 279.541 289.555 279.447 289.315 279.406C289.076 279.366 288.831 279.379 288.597 279.445C289.112 279.885 289.438 280.506 289.509 281.179C289.58 281.853 289.391 282.528 288.98 283.067C288.552 283.706 287.997 284.249 287.348 284.663C286.7 285.076 285.973 285.349 285.213 285.466C285.646 285.665 286.12 285.761 286.596 285.746C287.502 285.698 288.36 285.321 289.009 284.686C289.68 284.058 290.186 283.274 290.481 282.404C290.628 281.938 290.683 281.448 290.643 280.961Z" fill="#FFB3A1"/>
</g>
<path d="M221.793 268.991C221.396 268.034 220.837 266.326 220.101 266.4C218.629 266.871 221.072 273.07 221.249 276.471C221.269 276.673 221.233 276.876 221.146 277.06C221.039 277.198 220.897 277.305 220.733 277.369C219.476 277.68 218.257 278.129 217.099 278.709C216.427 279.29 215.953 280.067 215.745 280.932C214.804 284.112 215.745 287.528 217.217 290.546C217.247 290.704 217.311 290.853 217.405 290.983C217.499 291.113 217.621 291.22 217.762 291.298C217.902 291.375 218.058 291.42 218.218 291.43C218.379 291.44 218.539 291.415 218.688 291.356C220.3 291.157 221.826 290.52 223.103 289.515C224.309 288.558 224.118 287.41 224.28 285.967C224.669 282.294 224.48 278.583 223.721 274.969C223.251 272.925 222.606 270.925 221.793 268.991Z" fill="#FFB3A1"/>
<path d="M315.083 255.652L308.123 221.686H361.155L368.115 255.652H315.083Z" fill="#F9DC80"/>
<path d="M368.115 255.652L340.451 239.221L315.083 255.652" stroke="white" stroke-width="0.82" stroke-miterlimit="10"/>
<path d="M308.123 221.686L341.172 242.931L361.155 221.686H308.123Z" fill="#F9DC80" stroke="white" stroke-width="0.82" stroke-miterlimit="10"/>
<path d="M370.204 253.664C370.25 254.335 370.147 255.007 369.904 255.633C369.661 256.259 369.283 256.824 368.797 257.288C368.311 257.752 367.729 258.103 367.093 258.316C366.456 258.53 365.78 258.6 365.113 258.523C363.677 258.259 362.381 257.494 361.454 256.365C360.528 255.236 360.031 253.815 360.051 252.354C360.006 251.684 360.108 251.012 360.352 250.386C360.595 249.759 360.973 249.194 361.459 248.731C361.944 248.267 362.526 247.916 363.163 247.702C363.8 247.489 364.475 247.418 365.142 247.496C366.576 247.765 367.869 248.531 368.794 249.659C369.72 250.787 370.219 252.205 370.204 253.664Z" fill="#FC7070"/>
<path d="M136.757 160.232L120.66 81.6838C120.557 81.1802 120.568 80.66 120.691 80.1611C120.814 79.6621 121.047 79.1969 121.373 78.7993C121.698 78.4017 122.108 78.0816 122.573 77.8624C123.037 77.6432 123.545 77.5303 124.059 77.5319H250.413C251.21 77.53 251.983 77.8049 252.6 78.3096C253.217 78.8144 253.641 79.5178 253.797 80.2999L269.895 158.833C270 159.336 269.991 159.857 269.87 160.357C269.749 160.856 269.518 161.323 269.193 161.722C268.869 162.121 268.46 162.443 267.996 162.664C267.532 162.885 267.025 162.999 266.511 163H140.142C139.345 162.999 138.574 162.723 137.957 162.219C137.34 161.714 136.917 161.012 136.757 160.232Z" fill="#FC7070"/>
<path d="M142.938 158.112L141.187 150.22L262.567 149.97L264.348 157.846L142.938 158.112Z" fill="#344159"/>
<path d="M217.025 114.693C217.316 117.12 217.083 119.582 216.343 121.912C215.602 124.242 214.372 126.386 212.733 128.199C211.095 130.013 209.087 131.454 206.845 132.426C204.603 133.398 202.179 133.878 199.736 133.833C194.523 133.728 189.528 131.727 185.682 128.204C181.837 124.682 179.405 119.879 178.841 114.693C178.548 112.265 178.779 109.803 179.518 107.472C180.258 105.141 181.489 102.996 183.128 101.181C184.766 99.3672 186.775 97.9259 189.018 96.9549C191.262 95.9839 193.687 95.5059 196.131 95.553C204.886 95.5972 216.025 104.151 217.025 114.693Z" fill="white"/>
<path d="M189.274 105.167L195.601 125.942L208.197 112.588L189.274 105.167Z" fill="#FC7070"/>
<path d="M152.546 151.648L153.606 156.654L157.608 153.503L152.546 151.648Z" fill="white"/>
<path d="M147.631 157.081H145.983L144.306 151.103H145.954L147.631 157.081Z" fill="white"/>
<path d="M150.486 157.081H148.838L147.161 151.103H148.823L150.486 157.081Z" fill="white"/>
<path d="M437.715 347.569L343.438 347.745L327.959 279.636L422.22 279.474L437.715 347.569Z" fill="#F9DC80"/>
<path d="M394.675 287.793L329.621 287.925L325.604 270.257L380.711 270.154C386.199 270.154 391.776 275.057 393.144 281.123L394.675 287.793Z" fill="#F9DC80"/>
<path d="M437.053 355.372L348.544 355.74L333.403 285.157L420.808 285.142L437.053 355.372Z" fill="white"/>
<path d="M441.717 365.148L347.441 365.325L331.946 297.215L426.223 297.039L441.717 365.148Z" fill="#F9DC80"/>
<path d="M388.774 305.387L333.8 305.49L329.783 287.822L374.81 287.734C380.298 287.734 385.861 292.622 387.244 298.688L388.774 305.387Z" fill="#F9DC80"/>
<path d="M398.5 423.437C397.294 423.849 395.852 424.644 396.131 426.057C396.411 427.471 397.941 427.942 399.074 428.001C404.35 428.134 409.628 427.932 414.878 427.397C417.861 427.189 420.817 426.696 423.707 425.925C423.707 426.646 423.824 427.117 423.824 427.117C423.824 427.117 430.284 427.235 430.976 426.396C431.667 425.557 431.285 417.68 431.358 413.145C427.93 412.939 416.805 412.836 416.805 412.836C405.181 421.891 404.386 421.464 398.5 423.437Z" fill="#5A83CC"/>
<path d="M505.652 408.257C505.081 411.418 503.806 414.41 501.921 417.009C500.036 419.609 497.589 421.751 494.763 423.275C494.41 423.466 493.998 423.702 493.969 424.099C493.939 424.497 494.616 425.925 495.19 425.998C499.186 426.414 503.223 425.864 506.962 424.394C510.684 423.069 513.716 418.622 517.6 414.514C517.785 414.789 518.032 415.016 518.321 415.177C519.866 414.176 522.868 411.791 522.589 410.598C522.309 409.406 518.822 405.357 516.379 402.162C513.14 404.736 509.521 406.792 505.652 408.257Z" fill="#5A83CC"/>
<path d="M436.876 260.599C435.022 260.275 412.656 320.11 412.376 333.052C412.067 346.302 416.658 413.396 416.658 413.396C418.35 416.163 426.576 414.986 431.373 413.499C431.373 413.499 439.804 349.821 438.818 335.319C450.987 317.136 471.352 279.518 471.352 279.518L436.876 260.599Z" fill="#212C3F"/>
<path d="M436.685 260.334C436.685 260.334 437.391 306.771 446.352 333.95C449.693 344.079 505.211 410.186 505.211 410.186C509.815 409.051 513.957 406.521 517.071 402.942C512.377 391.164 502.65 375.145 491.202 353.737C487.215 346.273 477.856 334.023 470.852 329.076C475.84 309.082 474.104 269.212 467.1 260.717C460.096 252.222 436.685 260.334 436.685 260.334Z" fill="#344159"/>
<path d="M463.392 194.345L435.125 189.148L415.569 161.395C413.848 161.115 411.788 162.587 409.831 162.955C410.919 166.842 419.557 193.535 425.34 199.881C430.622 204.092 442.997 213.986 461.317 215.443C474.884 213.986 477.562 199.425 463.392 194.345Z" fill="#FFB3A1"/>
<path d="M463.392 194.345L436.14 188.677L430.255 180.962C425.777 183.074 421.811 186.133 418.63 189.928C419.874 194.021 421.87 197.846 424.516 201.206C435.152 209.393 447.927 214.328 461.302 215.414C474.884 213.986 477.562 199.425 463.392 194.345Z" fill="#7498E8"/>
<path d="M452.12 179.74C451.87 184.834 451.782 188.191 449.663 192.564C454.372 194.831 459.787 194.625 464.849 193.373C464.473 186.468 464.968 179.543 466.32 172.761C464.671 174.963 462.525 176.743 460.058 177.956C457.59 179.169 454.87 179.78 452.12 179.74Z" fill="#FFB3A1"/>
<g style="mix-blend-mode:multiply" opacity="0.3">
<path d="M459.36 182.464C461.496 180.25 463.242 177.692 464.525 174.896C461.195 178.092 456.733 179.834 452.12 179.74C452.062 182.055 451.87 184.366 451.547 186.66C454.486 186.004 457.189 184.552 459.36 182.464Z" fill="#FF997D"/>
</g>
<path d="M465.599 188.161C465.599 188.161 474.28 197.805 475.443 204.622C478.386 221.892 468.306 262.042 468.306 262.042C468.115 265.693 443.762 264.663 436.611 261.188C435.493 246.2 435.743 219.448 436.891 211.659C438.2 202.826 450.531 190.326 450.531 190.326L449.854 192.519C455.608 192.991 461.082 189.825 465.599 188.161Z" fill="#5A83CC"/>
<path d="M444.675 158.126C444.675 158.126 441.232 176.339 445.16 181.242C449.089 186.144 460.581 183.288 464.127 177.855C469.484 170.494 471.661 155.27 454.578 155.137C443.277 155.064 444.675 158.126 444.675 158.126Z" fill="#FFB3A1"/>
<path d="M392.467 223.129L391.776 223.04C391.706 222.848 391.612 222.664 391.496 222.496C391.106 222.044 390.688 221.616 390.245 221.215C389.039 219.934 387.553 216.533 386.449 216.415C385.346 216.297 387.303 221.141 387.038 221.303C386.773 221.465 385.566 221.053 384.86 220.861C383.478 220.514 382.201 219.837 381.138 218.888C380.075 217.939 379.256 216.747 378.753 215.414C378.616 214.914 378.449 214.422 378.253 213.942C378.15 213.698 377.996 213.48 377.8 213.302C377.604 213.124 377.372 212.99 377.12 212.911C376.62 212.793 375.752 213.22 375.737 213.75C375.609 217.537 376.937 221.229 379.447 224.066C381.957 226.903 385.458 228.67 389.23 229.003C389.23 229.003 427.091 245.405 442.041 241.724C448.795 236.159 444.013 226.765 435.993 227.914L392.467 223.129Z" fill="#FFB3A1"/>
<path d="M453.621 201.928L436.052 227.884C431.638 234.068 436.361 242.446 442.306 242.607L442.585 242.534C449.133 239.162 464.466 231.256 473.927 213.588C478.401 199.41 464.981 190.075 453.621 201.928Z" fill="#FFB3A1"/>
<path d="M453.607 201.942L436.405 226.589L426.797 225.543C425.811 230.063 422.956 237.41 423.397 242.092C430.519 243.815 439.495 245.037 442.409 244.109C448.942 240.752 464.481 231.3 473.883 213.632C478.401 199.41 464.981 190.075 453.607 201.942Z" fill="#7498E8"/>
<path d="M445.734 161.306C439.26 162.322 437.524 157.729 438.23 155.564C439.701 151.147 443.733 154.784 445.734 153.326C447.735 151.869 450.266 150.19 452.591 149.97C457.624 149.484 460.037 152.443 462.891 152.723C475.325 153.945 471.102 167.269 468.777 170.037C468.117 170.841 467.582 171.739 467.188 172.702C466.975 173.164 466.864 173.666 466.864 174.174C466.864 174.683 466.975 175.185 467.188 175.647C467.076 176.098 466.85 176.513 466.532 176.852C466.213 177.19 465.813 177.441 465.37 177.58C464.926 177.719 464.455 177.742 464 177.645C463.545 177.549 463.123 177.337 462.774 177.031C462.259 176.398 462.891 172.496 462.774 171.686C462.511 170.278 462.388 168.848 462.406 167.417C460.934 168.786 460.052 174.116 457.491 172.511C453.209 167.269 455.328 159.805 445.734 161.306Z" fill="#1F2635"/>
<path d="M460.567 167.122C460.822 166.941 461.12 166.828 461.432 166.795C461.744 166.761 462.059 166.808 462.347 166.931C462.584 167.05 462.792 167.218 462.96 167.423C463.127 167.629 463.249 167.867 463.318 168.123C463.46 168.636 463.485 169.175 463.392 169.699C463.29 170.666 462.957 171.596 462.421 172.408C461.874 173.224 461.047 173.811 460.096 174.057C459.3 174.257 458.458 174.163 457.727 173.792C457.727 173.792 459.11 169.64 459.272 169.11C459.501 168.335 459.951 167.644 460.567 167.122Z" fill="#FFB3A1"/>
<g style="mix-blend-mode:multiply" opacity="0.3">
<path d="M463.303 168.123C463.234 167.867 463.112 167.629 462.945 167.423C462.778 167.218 462.569 167.05 462.332 166.931C462.101 166.825 461.85 166.77 461.597 166.77C461.343 166.77 461.092 166.825 460.861 166.931C461.192 167.106 461.486 167.344 461.725 167.633C461.963 167.922 462.143 168.256 462.252 168.614C462.361 168.973 462.399 169.349 462.362 169.723C462.325 170.096 462.215 170.458 462.038 170.788C461.732 171.559 461.268 172.256 460.674 172.834C460.081 173.413 459.372 173.859 458.595 174.145C459.079 174.256 459.582 174.256 460.066 174.145C461.017 173.899 461.845 173.312 462.391 172.496C462.927 171.684 463.26 170.755 463.362 169.787C463.474 169.235 463.454 168.665 463.303 168.123Z" fill="#FFB3A1"/>
</g>
<path d="M464.981 185.732C466.515 187.044 467.553 188.842 467.924 190.826L450.987 199.204C452.841 197.157 451.296 194.11 449.869 192.534L464.981 185.732Z" fill="#D0DAFD"/>
<path d="M451.34 187.661C449.457 190.193 447.912 190.605 444.484 196.024C444.484 196.024 447.912 192.711 449.854 192.534C450.631 191.009 451.134 189.36 451.34 187.661Z" fill="#D0DAFD"/>
<path d="M410.287 163.427C408.205 162.201 406.44 160.503 405.134 158.47C403.828 156.437 403.017 154.126 402.768 151.722C403.43 150.912 406.329 156.521 407.682 155.829C407.432 151.412 401.796 145.111 404.622 143.595C407.747 145.491 410.376 148.106 412.29 151.222C414.204 154.338 415.349 157.866 415.628 161.513C414.245 162.764 411.92 164.339 410.287 163.427Z" fill="#FFB3A1"/>
<path d="M120.321 338.175H46.9689C43.0436 338.181 39.2426 336.798 36.2377 334.271C33.2327 331.743 31.2173 328.235 30.5474 324.365L24.0142 286.953C23.596 284.559 23.706 282.101 24.3365 279.754C24.967 277.406 26.1028 275.224 27.6643 273.362C29.2258 271.499 31.1752 270.001 33.3762 268.971C35.5772 267.941 37.9766 267.406 40.4062 267.401L112.169 267.283C115.984 267.277 119.685 268.578 122.657 270.971C125.629 273.363 127.692 276.702 128.502 280.431L136.61 318.019C137.13 320.449 137.1 322.965 136.523 325.382C135.946 327.799 134.836 330.056 133.275 331.988C131.713 333.92 129.739 335.479 127.498 336.549C125.257 337.62 122.805 338.175 120.321 338.175Z" fill="#D0DAFD"/>
<path d="M96.3364 337.719L126.751 351.102L123.352 337.792L96.3364 337.719Z" fill="#D0DAFD"/>
<path d="M100.148 294.786C101.457 300.247 100.603 306.004 97.7638 310.849C94.9239 315.472 89.0969 320.478 85.9921 321.406C82.5489 320.493 74.5589 315.516 69.806 310.923C65.173 306.622 61.9209 301.042 60.4623 294.889C59.8737 292.092 59.8148 289.162 61.3157 287.042C62.9932 284.642 66.4953 283.685 69.9385 284.289C73.4641 285.021 76.6797 286.82 79.1498 289.442C79.8526 288.111 80.8434 286.953 82.0501 286.054C83.2567 285.155 84.6487 284.537 86.1245 284.244C87.8555 283.949 89.6302 284.037 91.3234 284.503C93.0167 284.968 94.5872 285.8 95.9244 286.939C98.1311 289.038 99.6106 291.787 100.148 294.786Z" fill="#FC7070"/>
<path d="M97.543 227.045H47.4251C44.7434 227.044 42.1479 226.097 40.0946 224.371C38.0413 222.645 36.6616 220.25 36.1979 217.608L31.7835 192.034C31.4984 190.398 31.5739 188.72 32.0049 187.116C32.4358 185.513 33.2117 184.023 34.2784 182.751C35.345 181.479 36.6766 180.455 38.1799 179.752C39.6832 179.049 41.3219 178.683 42.9813 178.68L92.0251 178.591C94.6318 178.59 97.1604 179.481 99.1899 181.118C101.219 182.755 102.627 185.038 103.179 187.587L108.726 213.235C109.085 214.902 109.065 216.628 108.669 218.286C108.273 219.945 107.511 221.493 106.438 222.818C105.365 224.143 104.009 225.21 102.47 225.942C100.931 226.673 99.2471 227.05 97.543 227.045Z" fill="#D0DAFD"/>
<path d="M81.1656 226.721L101.943 235.879L99.6177 226.78L81.1656 226.721Z" fill="#D0DAFD"/>
<path d="M60.5799 201.604C60.6734 202.038 60.6672 202.489 60.5617 202.921C60.4563 203.353 60.2544 203.756 59.9712 204.099C59.688 204.441 59.3309 204.716 58.9266 204.901C58.5223 205.086 58.0814 205.177 57.637 205.167C56.624 205.134 55.6503 204.767 54.8677 204.122C54.0852 203.477 53.5378 202.592 53.3109 201.604C53.2174 201.169 53.2236 200.718 53.3291 200.286C53.4345 199.854 53.6364 199.451 53.9196 199.109C54.2028 198.766 54.5599 198.492 54.9642 198.307C55.3685 198.122 55.8094 198.031 56.2538 198.041C57.2676 198.071 58.2425 198.437 59.0256 199.082C59.8086 199.727 60.3553 200.614 60.5799 201.604Z" fill="white"/>
<path d="M75.9567 201.059C76.0502 201.494 76.044 201.944 75.9386 202.376C75.8332 202.808 75.6313 203.211 75.3481 203.554C75.0649 203.897 74.7077 204.171 74.3034 204.356C73.8992 204.541 73.4583 204.632 73.0138 204.622C71.9994 204.594 71.0231 204.229 70.2396 203.583C69.456 202.938 68.91 202.05 68.6877 201.059C68.5943 200.624 68.6005 200.174 68.7059 199.741C68.8113 199.309 69.0132 198.907 69.2964 198.564C69.5796 198.221 69.9367 197.947 70.341 197.762C70.7453 197.577 71.1862 197.486 71.6306 197.496C72.6437 197.529 73.6174 197.896 74.3999 198.54C75.1825 199.185 75.7299 200.07 75.9567 201.059Z" fill="white"/>
<path d="M91.3481 200.514C91.4416 200.949 91.4354 201.399 91.33 201.831C91.2245 202.264 91.0227 202.666 90.7395 203.009C90.4563 203.352 90.0991 203.626 89.6948 203.811C89.2906 203.996 88.8496 204.087 88.4052 204.077C87.3915 204.047 86.4165 203.68 85.6335 203.036C84.8504 202.391 84.3037 201.504 84.0791 200.514C83.9882 200.08 83.9963 199.631 84.1029 199.201C84.2095 198.771 84.4118 198.37 84.6947 198.029C84.9776 197.688 85.3339 197.415 85.7368 197.231C86.1398 197.047 86.5791 196.956 87.022 196.966C88.0338 196.995 89.0072 197.36 89.79 198.002C90.5728 198.644 91.1207 199.527 91.3481 200.514Z" fill="white"/>
<path d="M201.104 397.436C206.652 405.784 215.407 408.714 216.731 409.332C218.055 409.95 222.735 413.027 222.794 416.59C220.039 426.442 215.695 435.776 209.933 444.226C207.152 446.478 201.796 444.874 200.472 444.226C199.147 443.578 191.275 438.778 181.343 439.897C171.41 441.016 156.328 442.268 146.719 436.643C120.41 419.623 128.723 396.891 131.225 390.84C133.903 385.186 148.882 361.968 176.369 372.966C186.875 376.72 195.542 389.088 201.104 397.436Z" fill="#F9DC80"/>
<path opacity="0.1" d="M158.564 403.708C164.379 399.863 169.461 395.012 173.573 389.382C175.743 386.505 177.323 383.228 178.223 379.739C178.562 377.79 178.562 375.798 178.223 373.849C177.59 373.555 176.943 373.29 176.295 373.054C148.735 362.056 133.829 385.274 131.151 390.928C128.065 397.956 127.207 405.762 128.694 413.292C134.8 418.681 150.221 409.42 158.564 403.708Z" fill="white"/>
<g style="mix-blend-mode:multiply" opacity="0.3">
<path d="M171.042 412.527C169.144 416.944 162.464 422.377 159.02 423.599C149.721 426.897 139.17 424.511 130.842 419.52C133.52 425.336 138.376 431.299 146.69 436.673C156.269 442.297 171.351 441.09 181.313 439.927C191.275 438.763 199.147 443.637 200.442 444.255C201.737 444.873 207.122 446.478 209.904 444.255C212.173 441.035 214.19 437.643 215.936 434.111C211.419 432.344 173.058 413.719 171.042 412.527Z" fill="#F9DC80"/>
</g>
<path d="M213.347 436.143L164.627 423.098" stroke="white" stroke-width="0.82" stroke-miterlimit="10" stroke-linecap="round"/>
<path d="M218.806 424.408L177.502 395.477" stroke="white" stroke-width="0.82" stroke-miterlimit="10" stroke-linecap="round"/>
<path d="M164.597 423.098C163.759 422.916 162.968 422.56 162.276 422.053C161.584 421.546 161.006 420.898 160.58 420.153C159.743 418.664 159.331 416.973 159.388 415.265C159.359 413.989 159.658 412.727 160.257 411.599C160.635 410.958 161.141 410.401 161.744 409.962C162.346 409.524 163.032 409.214 163.759 409.052C164.499 408.902 165.262 408.902 166.002 409.051C166.742 409.2 167.446 409.496 168.07 409.921C168.635 410.259 169.07 410.778 169.306 411.393C169.419 411.824 169.386 412.28 169.213 412.69C169.04 413.1 168.737 413.441 168.35 413.66C168.004 413.832 167.625 413.928 167.239 413.941C166.853 413.954 166.469 413.883 166.113 413.734C165.403 413.425 164.77 412.962 164.259 412.38C163.408 411.428 162.787 410.292 162.445 409.062C162.103 407.831 162.049 406.538 162.287 405.283C162.477 404.174 162.969 403.139 163.709 402.293C164.449 401.446 165.408 400.82 166.481 400.483C167.971 400.19 169.516 400.376 170.895 401.013C171.837 401.411 172.808 402.044 172.97 403.03C173.012 403.463 172.941 403.9 172.764 404.297C172.651 404.666 172.462 405.008 172.208 405.3C171.955 405.592 171.643 405.827 171.293 405.99C170.893 406.083 170.479 406.092 170.076 406.016C169.673 405.94 169.291 405.781 168.953 405.548C167.924 404.891 167.113 403.942 166.623 402.823C166.133 401.704 165.986 400.464 166.201 399.261C166.462 398.078 167.042 396.989 167.877 396.112C168.712 395.235 169.771 394.603 170.939 394.285C172.127 393.975 173.371 393.947 174.571 394.202C175.772 394.458 176.896 394.99 177.855 395.757" stroke="white" stroke-width="0.82" stroke-miterlimit="10" stroke-linecap="round"/>
<path d="M245.925 430.945L235.801 452.721L209.256 444.8L222.808 415.707L245.925 430.945Z" fill="#1F2635"/>
<path d="M245.528 430.71C248.294 431.991 248.25 437.939 245.439 443.961C242.629 449.982 238.082 453.84 235.345 452.544C232.608 451.249 232.623 445.33 235.433 439.293C238.244 433.257 242.791 429.414 245.528 430.71Z" fill="#1F2635"/>
<path d="M232.711 420.919L213.965 446.802C213.822 447.002 213.641 447.171 213.432 447.299C213.223 447.428 212.991 447.514 212.749 447.552C212.506 447.591 212.259 447.581 212.021 447.523C211.782 447.465 211.558 447.36 211.36 447.215H211.272C210.876 446.921 210.611 446.483 210.534 445.996C210.457 445.508 210.574 445.01 210.86 444.609L229.548 418.666C229.839 418.267 230.277 418 230.765 417.922C231.253 417.845 231.752 417.964 232.152 418.254L232.24 418.328C232.442 418.466 232.614 418.643 232.747 418.849C232.88 419.055 232.971 419.284 233.015 419.525C233.059 419.766 233.055 420.013 233.002 420.253C232.95 420.492 232.851 420.718 232.711 420.919Z" fill="#344159"/>
<path d="M237.655 424.703L220.439 448.466C220.296 448.665 220.115 448.834 219.906 448.963C219.697 449.092 219.465 449.178 219.223 449.216C218.981 449.254 218.733 449.244 218.495 449.186C218.257 449.128 218.032 449.024 217.835 448.878H217.746C217.547 448.735 217.378 448.554 217.25 448.345C217.121 448.136 217.035 447.904 216.997 447.661C216.958 447.419 216.968 447.171 217.026 446.933C217.084 446.694 217.189 446.47 217.334 446.272L234.55 422.494C234.842 422.095 235.28 421.828 235.768 421.75C236.256 421.673 236.755 421.792 237.155 422.082L237.243 422.156C237.626 422.446 237.882 422.873 237.959 423.347C238.035 423.821 237.927 424.307 237.655 424.703Z" fill="#344159"/>
<path d="M242.084 429.37L226.796 450.527C226.507 450.929 226.07 451.199 225.582 451.279C225.094 451.359 224.594 451.242 224.191 450.954L224.103 450.881C223.904 450.739 223.736 450.559 223.607 450.351C223.479 450.144 223.393 449.912 223.355 449.671C223.316 449.43 223.326 449.184 223.384 448.946C223.442 448.709 223.546 448.486 223.691 448.289L238.98 427.176C239.123 426.979 239.303 426.812 239.511 426.684C239.718 426.557 239.949 426.472 240.189 426.433C240.43 426.395 240.675 426.405 240.912 426.461C241.149 426.518 241.372 426.621 241.569 426.764H241.672C242.071 427.056 242.339 427.494 242.416 427.982C242.493 428.47 242.374 428.969 242.084 429.37Z" fill="#344159"/>
<path d="M247.352 432.594L233.094 452.264C232.951 452.464 232.769 452.633 232.561 452.762C232.352 452.89 232.12 452.976 231.877 453.015C231.635 453.053 231.388 453.043 231.15 452.985C230.911 452.927 230.687 452.822 230.489 452.677H230.401C230.002 452.385 229.734 451.947 229.657 451.459C229.58 450.97 229.699 450.471 229.989 450.071L244.262 430.342C244.551 429.94 244.988 429.67 245.476 429.59C245.964 429.51 246.464 429.627 246.867 429.915L246.955 429.988C247.153 430.133 247.32 430.315 247.448 430.524C247.575 430.734 247.66 430.966 247.697 431.209C247.733 431.451 247.722 431.698 247.663 431.936C247.604 432.174 247.498 432.398 247.352 432.594Z" fill="#344159"/>
<path d="M53.8554 446.449H44.1585L36.9336 441.149V395.595H53.8554V446.449Z" fill="#5A83CC"/>
<path d="M60.992 395.595H44.0702V446.449H60.992V395.595Z" fill="#7498E8"/>
<path d="M84.0498 446.449H74.3528L67.1427 439.661V381.387H84.0498V446.449Z" fill="#5A83CC"/>
<path d="M91.201 381.387H74.2792V446.449H91.201V381.387Z" fill="#7498E8"/>
<path d="M115.612 446.449H105.916L98.6907 437.335V359.111H115.612V446.449Z" fill="#5A83CC"/>
<path d="M122.749 359.111H105.827V446.449H122.749V359.111Z" fill="#7498E8"/>
<path d="M477.577 92.2697C478.52 91.9149 479.389 91.3854 480.137 90.7091C481.77 88.9267 482.664 86.5897 482.638 84.172C482.821 81.8105 482.391 79.4418 481.388 77.2963C480.313 75.1909 479.916 73.4242 477.606 72.8794C476.576 72.6291 469.189 71.8635 465.834 75.4854C465.834 72.6291 465.834 69.5962 464.275 67.1963C463.397 65.9861 462.268 64.9813 460.964 64.2517C459.492 63.3683 459.301 62.7794 457.579 62.5585C454.206 62.0386 450.753 62.5519 447.676 64.0308C446.011 64.9985 444.657 66.4242 443.777 68.1386C442.306 71.2304 442.791 74.6315 443.483 78.0178C441.782 77.0343 439.831 76.5702 437.87 76.6827C435.909 76.7952 434.024 77.4794 432.447 78.6509C430.926 79.8909 429.876 81.6152 429.471 83.5362C429.067 85.4572 429.333 87.4588 430.225 89.2073C430.962 90.5318 431.99 91.6718 433.232 92.5414C434.473 93.411 435.895 93.9876 437.391 94.2279C457.903 96.5689 475.914 92.9176 477.577 92.2697Z" fill="#5A83CC"/>
<path d="M480.843 92.4611C481.793 92.1099 482.667 91.5802 483.418 90.9005C485.048 89.1174 485.937 86.7797 485.905 84.3634C486.101 82.0013 485.67 79.6292 484.654 77.4877C484.144 76.4193 483.411 75.4724 482.505 74.7106C481.599 73.9488 480.541 73.3897 479.401 73.0708C478.366 72.8543 477.306 72.7849 476.252 72.8647C473.589 72.9825 470.558 73.4683 469.072 75.6915C469.072 72.8205 469.072 69.8023 467.6 67.3877C466.726 66.169 465.59 65.1626 464.275 64.4431C462.778 63.5342 461.127 62.9102 459.404 62.6027C456.502 62.1343 453.528 62.7024 451.002 64.2075C449.336 65.1811 447.983 66.6116 447.103 68.33C445.631 71.4218 446.117 74.8229 446.808 78.1945C445.105 77.2167 443.154 76.7573 441.194 76.8723C439.234 76.9874 437.35 77.672 435.772 78.8423C434.253 80.0799 433.203 81.8016 432.799 83.72C432.394 85.6385 432.66 87.6377 433.551 89.384C434.294 90.7062 435.326 91.8439 436.569 92.713C437.812 93.5821 439.235 94.1602 440.731 94.4046C456.549 96.5689 479.18 93.109 480.843 92.4611Z" fill="#7498E8"/>
<path d="M290.569 60.3648C291.517 60.01 292.391 59.4806 293.144 58.8041C294.774 57.0271 295.664 54.6937 295.631 52.2818C295.812 49.9156 295.382 47.5425 294.38 45.3914C293.306 43.286 292.909 41.5339 290.598 40.9744C289.568 40.7241 282.196 39.9585 278.827 43.5951C278.827 40.7389 278.827 37.7059 277.267 35.306C276.397 34.089 275.266 33.0827 273.956 32.3614C272.485 31.478 272.308 30.8891 270.587 30.6683C267.208 30.1472 263.751 30.6604 260.669 32.1406C259.003 33.1082 257.65 34.5339 256.77 36.2483C255.298 39.3402 255.784 42.7412 256.475 46.1128C254.775 45.1345 252.826 44.6747 250.868 44.7898C248.91 44.9048 247.028 45.5899 245.454 46.7606C243.933 48.0004 242.881 49.7237 242.475 51.6441C242.068 53.5645 242.33 55.5664 243.217 57.3171C243.958 58.6437 244.99 59.7841 246.237 60.6515C247.484 61.5189 248.912 62.0905 250.413 62.3229C270.896 64.605 288.906 60.9537 290.569 60.3648Z" fill="#5A83CC"/>
<path d="M293.836 60.512C294.79 60.1431 295.664 59.5932 296.411 58.8924C298.043 57.11 298.938 54.7731 298.912 52.3554C299.094 49.9892 298.663 47.6161 297.661 45.465C297.148 44.3987 296.414 43.4537 295.509 42.6922C294.603 41.9308 293.546 41.3704 292.408 41.048C291.373 40.8325 290.313 40.7631 289.259 40.8419C286.581 40.945 283.55 41.4456 282.079 43.654C282.079 40.7977 282.079 37.7648 280.519 35.3649C279.645 34.1515 278.515 33.1461 277.208 32.4203C275.707 31.5246 274.057 30.9062 272.338 30.5946C269.431 30.1265 266.452 30.6944 263.921 32.1994C262.255 33.1671 260.902 34.5928 260.021 36.3072C258.55 39.399 259.036 42.8001 259.727 46.1864C258.027 45.2029 256.075 44.7388 254.114 44.8513C252.153 44.9638 250.268 45.648 248.691 46.8195C247.16 48.0619 246.103 49.7942 245.698 51.7249C245.293 53.6556 245.566 55.6668 246.469 57.4201C247.217 58.7389 248.25 59.874 249.492 60.7426C250.735 61.6111 252.155 62.1913 253.65 62.4407C269.556 64.605 292.173 61.1598 293.836 60.512Z" fill="#7498E8"/>
</svg>
